{"glyphs":{"0":{"ha":988,"x_min":0,"x_max":0,"o":"m 67 460 b 644 928 165 807 365 928 b 996 460 925 928 1094 807 b 417 -8 899 113 697 -8 b 67 460 136 -8 -32 113 m 622 460 b 629 800 700 740 688 800 b 440 460 569 800 518 740 b 435 118 364 178 376 118 b 622 460 494 118 547 178 "},"1":{"ha":628,"x_min":0,"x_max":0,"o":"m 533 924 b 593 931 563 929 579 931 b 647 808 643 931 671 893 l 465 171 b 543 38 442 88 561 104 b 439 0 535 11 510 0 l 21 0 b -35 54 -26 0 -42 25 b 117 174 -17 111 93 89 l 261 685 b 179 835 286 769 160 769 b 240 872 183 854 199 864 "},"2":{"ha":986,"x_min":0,"x_max":0,"o":"m 163 758 b 549 925 196 869 342 925 b 990 592 875 925 1039 747 b 494 375 953 478 861 446 b 210 249 263 332 215 307 l 610 249 b 868 364 804 249 811 364 b 922 164 908 364 958 282 b 604 0 885 47 801 0 l 114 0 b 32 242 32 0 -10 101 b 358 496 72 372 175 443 b 613 672 556 554 590 601 b 493 799 640 767 583 821 b 294 585 506 646 404 585 b 163 758 190 585 133 657 "},"3":{"ha":1003,"x_min":0,"x_max":0,"o":"m 600 925 b 1036 608 886 925 1090 789 b 821 442 1006 503 933 461 b 960 210 951 390 992 317 b 478 -7 919 78 731 -7 b 28 269 118 -7 -15 126 b 206 381 53 354 128 381 b 396 242 319 381 399 325 b 367 147 396 213 385 174 b 457 132 393 136 424 132 b 596 242 526 132 576 169 b 497 399 625 339 572 399 b 421 465 443 399 408 415 b 497 521 433 500 453 521 l 538 521 b 671 638 604 524 650 569 b 581 799 701 757 639 799 b 528 793 558 799 546 797 b 528 706 533 761 533 733 b 339 586 511 639 451 586 b 175 761 206 586 144 657 b 600 925 201 851 315 925 "},"4":{"ha":1092,"x_min":0,"x_max":0,"o":"m 178 838 b 325 925 197 896 251 925 b 585 594 478 925 632 768 b 249 340 550 475 458 413 b 597 375 383 361 482 372 l 714 786 b 838 872 733 851 765 872 l 988 872 b 1058 776 1053 872 1076 835 l 946 378 l 1010 378 b 1088 313 1065 378 1099 353 b 972 249 1076 268 1036 249 l 910 249 l 886 164 b 910 35 863 78 922 81 b 826 0 903 8 876 0 l 507 0 b 442 51 457 0 435 21 b 538 164 454 96 513 81 l 561 246 b 124 213 354 238 238 213 b 42 303 61 213 26 251 b 251 533 67 390 218 417 b 178 838 286 647 146 738 "},"5":{"ha":939,"x_min":0,"x_max":0,"o":"m 678 881 b 926 938 869 881 889 938 b 982 757 960 938 1007 872 b 749 585 957 640 889 585 b 392 672 604 585 483 672 b 329 618 364 672 340 656 l 294 492 b 539 538 374 524 451 538 b 894 242 744 538 939 436 b 429 -8 861 96 701 -8 b 1 228 58 -8 -31 119 b 153 326 19 290 69 326 b 269 121 285 326 332 228 b 522 251 414 94 496 154 b 419 406 551 354 503 406 b 236 374 347 406 318 374 l 190 374 b 146 458 151 374 126 393 l 240 779 b 401 889 265 864 311 889 b 678 881 475 889 579 881 "},"6":{"ha":1004,"x_min":0,"x_max":0,"o":"m 108 550 b 640 935 186 818 378 935 b 1032 744 897 935 1031 849 b 861 594 1032 671 990 594 b 710 811 721 594 649 686 b 460 550 593 831 515 753 b 617 583 504 571 554 582 b 967 265 857 585 1011 454 b 496 -10 928 106 788 -10 b 108 550 143 -10 8 206 m 586 278 b 540 446 613 379 585 446 b 419 278 492 446 442 390 b 471 115 397 181 421 115 b 586 278 519 115 560 181 "},"7":{"ha":903,"x_min":0,"x_max":0,"o":"m 854 883 b 1001 732 976 883 1024 813 b 892 601 988 683 960 653 b 638 207 765 504 711 407 b 404 -11 578 40 507 -11 b 229 226 283 -11 192 90 b 772 631 265 351 371 460 l 351 631 b 261 593 314 631 289 621 l 231 564 b 149 521 194 529 176 521 b 99 590 99 521 85 543 l 179 874 b 240 932 192 915 213 932 b 294 910 263 932 276 925 b 371 883 317 892 336 883 "},"8":{"ha":1000,"x_min":0,"x_max":0,"o":"m 454 -11 b 32 276 144 -11 -17 108 b 322 464 57 369 147 433 b 168 735 224 536 138 619 b 582 925 203 860 342 925 b 1028 650 926 925 1063 783 b 765 494 1001 556 914 510 b 935 225 875 429 968 350 b 454 -11 897 85 769 -11 m 496 742 b 608 583 478 676 532 629 b 672 685 640 608 660 642 b 588 804 694 760 646 804 b 496 742 538 804 508 785 m 443 118 b 556 204 496 118 539 142 b 450 374 572 268 521 321 b 356 254 403 347 371 308 b 443 118 332 160 383 118 "},"9":{"ha":1021,"x_min":0,"x_max":0,"o":"m 996 375 b 446 -10 921 107 711 -10 b 31 243 154 -10 -1 119 b 185 349 49 315 107 349 b 344 126 325 349 393 244 b 428 113 372 115 404 113 b 644 375 528 113 596 193 b 489 342 600 354 550 343 b 140 660 249 342 93 472 b 601 935 179 821 326 935 b 996 375 960 935 1096 719 m 506 646 b 560 482 475 533 496 482 b 681 646 622 482 653 533 b 625 811 708 760 688 811 b 506 646 561 811 536 760 "}," ":{"ha":278,"x_min":0,"x_max":0,"o":""},"અ":{"ha":1375,"x_min":0,"x_max":0,"o":"m 668 576 b 760 649 683 625 717 649 b 869 461 814 649 881 593 b 965 518 918 464 947 479 l 1039 753 b 1319 867 1065 832 1217 867 b 1424 799 1410 867 1424 832 b 1417 753 1424 786 1421 771 l 1256 235 b 1276 192 1249 208 1256 192 b 1328 226 1307 192 1314 226 b 1347 189 1339 226 1347 207 b 1106 -4 1347 101 1249 -4 b 881 190 942 -4 881 88 b 901 311 881 224 888 261 b 840 331 881 317 860 322 b 510 97 783 178 647 97 b 233 297 368 97 264 175 b 24 474 76 297 -3 389 b 100 526 36 513 68 526 b 179 499 129 526 151 517 b 257 597 225 533 250 569 b 224 649 264 628 251 649 b 164 626 193 649 178 626 b 154 682 151 626 142 643 b 428 872 186 785 286 872 b 628 597 600 872 663 736 b 383 344 600 492 522 383 b 471 325 408 332 435 325 b 693 429 550 325 631 364 b 668 576 661 476 654 531 "},"આ":{"ha":1888,"x_min":0,"x_max":0,"o":"m 668 576 b 760 649 683 625 717 649 b 869 461 814 649 881 593 b 965 518 918 464 947 479 l 1039 753 b 1319 867 1065 832 1217 867 b 1424 799 1410 867 1424 832 b 1417 753 1424 786 1421 771 l 1256 235 b 1276 192 1249 208 1256 192 b 1328 226 1307 192 1314 226 b 1347 189 1339 226 1347 207 b 1106 -4 1347 101 1249 -4 b 881 190 942 -4 881 88 b 901 311 881 224 888 261 b 840 331 881 317 860 322 b 510 97 783 178 647 97 b 233 297 368 97 264 175 b 24 474 76 297 -3 389 b 100 526 36 513 68 526 b 179 499 129 526 151 517 b 257 597 225 533 250 569 b 224 649 264 628 251 649 b 164 626 193 649 178 626 b 154 682 151 626 142 643 b 428 872 186 785 286 872 b 628 597 600 872 663 736 b 383 344 600 492 522 383 b 471 325 408 332 435 325 b 693 429 550 325 631 364 b 668 576 661 476 654 531 m 1553 753 b 1833 867 1578 832 1729 867 b 1936 799 1924 867 1936 832 b 1929 753 1936 786 1933 771 l 1771 235 b 1790 192 1761 208 1771 192 b 1842 226 1818 192 1828 226 b 1860 189 1854 226 1860 207 b 1619 -4 1860 101 1764 -4 b 1396 190 1457 -4 1396 88 b 1438 388 1396 239 1407 296 l 1553 753 "},"ઇ":{"ha":883,"x_min":0,"x_max":0,"o":"m 164 693 b 444 878 199 808 304 878 b 644 694 588 878 676 796 b 589 647 636 665 613 647 b 571 669 579 647 575 651 b 535 714 565 697 556 714 b 492 675 518 714 500 704 b 614 496 460 571 628 540 b 514 450 608 481 601 474 b 378 358 417 424 389 393 b 489 253 361 304 389 253 b 697 429 572 253 656 293 b 731 942 746 590 682 811 b 838 1026 753 999 790 1026 b 958 819 931 1026 981 908 b 903 774 950 786 928 774 l 839 774 b 813 756 822 774 815 771 b 821 265 803 699 869 425 b 407 0 774 113 646 0 b 36 353 131 0 -24 157 b 203 517 60 429 125 488 b 164 693 157 563 144 626 "},"ઈ":{"ha":999,"x_min":0,"x_max":0,"o":"m 164 693 b 444 878 199 808 304 878 b 644 694 588 878 676 796 b 589 647 636 665 613 647 b 571 669 579 647 575 651 b 535 714 565 697 556 714 b 492 675 518 714 500 704 b 614 496 460 571 628 540 b 514 450 608 481 601 474 b 378 358 417 424 389 393 b 489 253 361 304 389 253 b 697 429 572 253 656 293 b 740 893 746 590 706 781 b 899 1026 768 985 826 1026 b 1054 769 1025 1026 1093 892 b 939 653 1031 694 965 653 b 871 760 904 653 921 760 b 833 725 854 760 842 750 b 835 265 807 644 883 425 b 407 0 788 113 646 0 b 36 353 131 0 -24 157 b 203 517 60 431 119 486 b 164 693 157 563 144 626 "},"ઉ":{"ha":965,"x_min":0,"x_max":0,"o":"m 247 650 b 408 281 189 464 256 281 b 515 343 474 281 507 304 b 440 447 525 385 507 415 b 382 511 390 471 375 490 b 565 619 393 546 524 551 b 543 700 590 660 575 700 b 460 647 501 700 490 647 b 444 711 438 647 432 675 b 689 878 478 811 568 878 b 897 624 856 878 940 761 b 768 476 876 556 829 507 b 844 203 843 418 881 318 b 526 0 804 78 678 0 b 133 765 154 0 18 394 b 796 1293 235 1092 535 1293 b 1079 975 1035 1293 1132 1138 b 992 872 1060 915 1021 872 b 688 978 951 872 874 978 b 247 650 483 978 304 832 "},"ઊ":{"ha":1446,"x_min":0,"x_max":0,"o":"m 240 617 b 408 281 199 460 246 281 b 515 343 474 281 507 304 b 440 447 525 385 507 415 b 382 511 390 471 375 490 b 565 619 393 546 524 551 b 543 700 590 660 575 700 b 460 647 501 700 490 647 b 444 711 438 647 432 675 b 689 878 478 811 568 878 b 897 624 856 878 940 761 b 768 476 876 556 829 507 b 844 203 843 418 881 318 b 526 -4 804 78 678 -4 b 118 715 183 -4 22 349 b 857 1228 189 985 419 1228 b 1444 613 1288 1228 1554 974 l 1331 235 b 1347 192 1321 208 1331 192 b 1401 226 1379 192 1388 226 b 1418 189 1413 226 1418 207 b 1179 -4 1418 101 1322 -4 b 956 190 1015 -4 956 88 b 996 388 956 239 968 296 l 1076 640 b 754 996 1135 825 1035 996 b 240 617 436 996 283 790 "},"ઋ":{"ha":1594,"x_min":0,"x_max":0,"o":"m 107 703 b 319 879 107 806 229 879 b 568 660 449 879 522 808 l 597 565 l 656 753 b 936 867 681 832 835 867 b 1040 799 1028 867 1040 832 b 1033 753 1040 786 1038 771 l 975 563 b 1114 550 1029 553 1075 549 b 1056 669 1082 581 1056 625 b 1326 879 1056 793 1154 879 b 1632 656 1492 879 1632 782 b 1353 435 1632 563 1560 464 b 1492 274 1460 385 1492 329 b 1279 128 1492 199 1426 128 b 954 342 1056 128 954 263 b 974 378 954 363 964 378 b 1128 331 1003 378 1050 331 b 1203 396 1179 331 1203 361 b 1194 426 1203 406 1201 415 b 940 451 1122 428 1038 435 l 874 235 b 893 192 865 208 874 192 b 943 226 922 192 932 226 b 964 189 957 226 964 207 b 722 -4 964 101 867 -4 b 500 190 560 -4 500 88 b 542 388 500 239 511 296 l 547 404 b 268 174 408 228 346 174 b 40 392 172 174 40 283 b 521 510 40 518 306 406 b 372 610 478 571 428 610 b 217 557 304 610 263 557 b 107 703 185 557 107 618 m 1196 644 b 1210 565 1189 617 1196 586 b 1279 632 1250 581 1271 604 b 1244 690 1289 669 1272 690 b 1196 644 1217 690 1201 668 "},"ૠ":{"ha":1594,"x_min":0,"x_max":0,"o":"m 107 703 b 319 879 107 806 229 879 b 568 660 449 879 522 808 l 597 565 l 656 753 b 936 867 681 832 835 867 b 1040 799 1028 867 1040 832 b 1033 753 1040 786 1038 771 l 975 563 b 1114 550 1029 553 1075 549 b 1056 669 1082 581 1056 625 b 1326 879 1056 793 1154 879 b 1632 656 1492 879 1632 782 b 1247 426 1632 547 1536 433 b 1197 379 1213 421 1197 404 b 1285 331 1197 351 1231 331 b 1454 379 1368 331 1428 379 b 1467 354 1464 379 1467 369 b 1206 128 1467 235 1367 128 b 985 292 1065 128 985 199 b 1069 433 985 350 1019 400 b 940 451 1029 438 986 443 l 874 235 b 893 192 865 208 874 192 b 943 226 922 192 932 226 b 964 189 957 226 964 207 b 722 -4 964 101 867 -4 b 500 190 560 -4 500 88 b 542 388 500 239 511 296 l 547 404 b 268 174 408 228 346 174 b 40 392 172 174 40 283 b 521 510 40 518 306 406 b 372 610 478 571 428 610 b 217 557 304 610 263 557 b 107 703 185 557 107 618 m 1196 644 b 1210 565 1189 617 1196 586 b 1279 632 1250 581 1271 604 b 1244 690 1289 669 1272 690 b 1196 644 1217 690 1201 668 "},"ઌ":{"ha":1250,"x_min":0,"x_max":0,"o":"m 383 722 b 672 583 499 722 600 696 b 899 676 740 638 813 665 l 908 757 b 1118 868 918 835 1014 868 b 1282 792 1229 868 1282 835 b 1233 704 1282 760 1269 733 l 1175 653 b 1257 496 1251 617 1269 551 b 1068 221 1228 368 1064 294 b 1118 181 1069 199 1083 181 b 1172 151 1151 181 1186 204 b 869 -6 1153 78 1036 -6 b 647 150 717 -6 653 63 b 653 201 647 167 647 183 b 836 447 683 313 811 381 b 793 510 850 486 831 510 b 622 426 728 510 683 426 b 465 518 564 426 540 518 b 381 458 425 518 390 501 b 468 369 371 415 410 369 b 554 392 508 369 525 392 b 569 367 564 392 569 382 b 289 135 569 285 482 135 b 46 474 118 135 -18 268 b 383 722 101 642 249 722 "},"ૡ":{"ha":1235,"x_min":0,"x_max":0,"o":"m 881 -83 b 1056 -39 974 -83 1032 -39 b 1054 -135 1083 -39 1075 -87 b 786 -297 1013 -225 926 -297 b 564 -40 603 -297 521 -167 b 676 72 581 15 622 54 b 642 221 633 113 626 172 b 831 440 669 315 800 357 b 788 510 842 482 825 510 b 622 426 726 510 683 426 b 465 518 564 426 540 518 b 381 458 425 518 390 501 b 468 369 371 415 410 369 b 554 392 508 369 525 392 b 569 367 564 392 569 382 b 289 135 569 285 482 135 b 46 474 118 135 -18 268 b 383 722 101 642 249 722 b 674 583 514 722 607 676 b 899 679 743 639 814 669 l 908 757 b 1118 868 918 835 1014 868 b 1282 792 1229 868 1282 835 b 1233 704 1282 760 1269 733 l 1156 638 b 1233 424 1233 590 1261 510 b 971 250 1203 328 1129 290 b 851 192 881 231 860 218 b 910 143 840 161 864 143 l 932 143 b 1014 85 996 143 1025 125 b 911 24 1007 44 979 24 l 869 24 b 800 -17 838 24 810 15 b 881 -83 789 -54 817 -83 "},"એ":{"ha":1375,"x_min":0,"x_max":0,"o":"m 668 576 b 760 649 683 625 717 649 b 869 461 814 649 881 593 b 965 518 918 464 947 479 l 1039 753 b 1319 867 1065 832 1217 867 b 1424 799 1410 867 1424 832 b 1417 753 1424 786 1421 771 l 1256 235 b 1276 192 1249 208 1256 192 b 1328 226 1307 192 1314 226 b 1347 189 1339 226 1347 207 b 1106 -4 1347 101 1249 -4 b 881 190 942 -4 881 88 b 901 311 881 224 888 261 b 840 331 881 317 860 322 b 510 97 783 178 647 97 b 233 297 368 97 264 175 b 24 474 76 297 -3 389 b 100 526 36 513 68 526 b 179 499 129 526 151 517 b 257 597 225 533 250 569 b 224 649 264 628 251 649 b 164 626 193 649 178 626 b 154 682 151 626 142 643 b 428 872 186 785 286 872 b 628 597 600 872 663 736 b 383 344 600 492 522 383 b 471 325 408 332 435 325 b 693 429 550 325 631 364 b 668 576 661 476 654 531 m 1089 1293 b 1269 1158 1161 1293 1213 1253 l 1383 971 b 1353 903 1410 928 1386 903 b 972 1171 1214 903 972 1014 b 1089 1293 972 1244 1019 1293 "},"ઐ":{"ha":1375,"x_min":0,"x_max":0,"o":"m 668 576 b 760 649 683 625 717 649 b 869 461 814 649 881 593 b 965 518 918 464 947 479 l 1039 753 b 1319 867 1065 832 1217 867 b 1424 799 1410 867 1424 832 b 1417 753 1424 786 1421 771 l 1256 235 b 1276 192 1249 208 1256 192 b 1328 226 1307 192 1314 226 b 1347 189 1339 226 1347 207 b 1106 -4 1347 101 1249 -4 b 881 190 942 -4 881 88 b 901 311 881 224 888 261 b 840 331 881 317 860 322 b 510 97 783 178 647 97 b 233 297 368 97 264 175 b 24 474 76 297 -3 389 b 100 526 36 513 68 526 b 179 499 129 526 151 517 b 257 597 225 533 250 569 b 224 649 264 628 251 649 b 164 626 193 649 178 626 b 154 682 151 626 142 643 b 428 872 186 785 286 872 b 628 597 600 872 663 736 b 383 344 600 492 522 383 b 471 325 408 332 435 325 b 693 429 550 325 631 364 b 668 576 661 476 654 531 m 1300 1172 b 1399 1293 1300 1244 1342 1293 b 1510 1125 1457 1293 1510 1243 b 1403 907 1510 994 1451 907 b 965 1133 1275 907 965 971 b 1064 1231 965 1196 1004 1231 b 1292 1069 1117 1231 1154 1204 l 1368 996 b 1300 1172 1317 1072 1300 1125 "},"ઓ":{"ha":1889,"x_min":0,"x_max":0,"o":"m 668 576 b 760 649 683 625 717 649 b 869 461 814 649 881 593 b 965 518 918 464 947 479 l 1039 753 b 1319 867 1065 832 1217 867 b 1424 799 1410 867 1424 832 b 1417 753 1424 786 1421 771 l 1256 235 b 1276 192 1249 208 1256 192 b 1328 226 1307 192 1314 226 b 1347 189 1339 226 1347 207 b 1106 -4 1347 101 1249 -4 b 881 190 942 -4 881 88 b 901 311 881 224 888 261 b 840 331 881 317 860 322 b 510 97 783 178 647 97 b 233 297 368 97 264 175 b 24 474 76 297 -3 389 b 100 526 36 513 68 526 b 179 499 129 526 151 517 b 257 597 225 533 250 569 b 224 649 264 628 251 649 b 164 626 193 649 178 626 b 154 682 151 626 142 643 b 428 872 186 785 286 872 b 628 597 600 872 663 736 b 383 344 600 492 522 383 b 471 325 408 332 435 325 b 693 429 550 325 631 364 b 668 576 661 476 654 531 m 1554 753 b 1835 867 1579 832 1731 867 b 1938 799 1925 867 1938 832 b 1931 753 1938 786 1935 771 l 1772 235 b 1792 192 1763 208 1772 192 b 1843 226 1819 192 1829 226 b 1861 189 1856 226 1861 207 b 1621 -4 1861 101 1765 -4 b 1397 190 1458 -4 1397 88 b 1439 388 1397 239 1408 296 l 1554 753 m 1603 1293 b 1785 1158 1676 1293 1726 1258 l 1904 963 b 1869 903 1925 928 1901 903 b 1496 1222 1714 903 1432 1057 b 1603 1293 1514 1269 1549 1293 "},"ઔ":{"ha":1889,"x_min":0,"x_max":0,"o":"m 668 576 b 760 649 683 625 717 649 b 869 461 814 649 881 593 b 965 518 918 464 947 479 l 1039 753 b 1319 867 1065 832 1217 867 b 1424 799 1410 867 1424 832 b 1417 753 1424 786 1421 771 l 1256 235 b 1276 192 1249 208 1256 192 b 1328 226 1307 192 1314 226 b 1347 189 1339 226 1347 207 b 1106 -4 1347 101 1249 -4 b 881 190 942 -4 881 88 b 901 311 881 224 888 261 b 840 331 881 317 860 322 b 510 97 783 178 647 97 b 233 297 368 97 264 175 b 24 474 76 297 -3 389 b 100 526 36 513 68 526 b 179 499 129 526 151 517 b 257 597 225 533 250 569 b 224 649 264 628 251 649 b 164 626 193 649 178 626 b 154 682 151 626 142 643 b 428 872 186 785 286 872 b 628 597 600 872 663 736 b 383 344 600 492 522 383 b 471 325 408 332 435 325 b 693 429 550 325 631 364 b 668 576 661 476 654 531 m 1554 753 b 1835 867 1579 832 1731 867 b 1938 799 1925 867 1938 832 b 1931 753 1938 786 1935 771 l 1772 235 b 1792 192 1763 208 1772 192 b 1843 226 1819 192 1829 226 b 1861 189 1856 226 1861 207 b 1621 -4 1861 101 1765 -4 b 1397 190 1458 -4 1397 88 b 1439 388 1397 239 1408 296 l 1554 753 m 1817 1172 b 1915 1293 1817 1244 1858 1293 b 2026 1125 1974 1293 2026 1243 b 1919 907 2026 994 1968 907 b 1482 1133 1792 907 1482 971 b 1581 1231 1482 1196 1521 1231 b 1808 1069 1633 1231 1671 1204 l 1885 996 b 1817 1172 1833 1072 1817 1125 "},"ઍ":{"ha":1374,"x_min":0,"x_max":0,"o":"m 668 576 b 760 649 683 625 717 649 b 869 461 814 649 881 593 b 965 518 918 464 947 479 l 1039 753 b 1319 867 1065 832 1217 867 b 1424 799 1410 867 1424 832 b 1417 753 1424 786 1421 771 l 1256 235 b 1276 192 1249 208 1256 192 b 1328 226 1307 192 1314 226 b 1347 189 1339 226 1347 207 b 1106 -4 1347 101 1249 -4 b 881 190 942 -4 881 88 b 901 311 881 224 888 261 b 840 331 881 317 860 322 b 510 97 783 178 647 97 b 233 297 368 97 264 175 b 24 474 76 297 -3 389 b 100 526 36 513 68 526 b 179 499 129 526 151 517 b 257 597 225 533 250 569 b 224 649 264 628 251 649 b 164 626 193 649 178 626 b 154 682 151 626 142 643 b 428 872 186 785 286 872 b 628 597 600 872 663 736 b 383 344 600 492 522 383 b 471 325 408 332 435 325 b 693 429 550 325 631 364 b 668 576 661 476 654 531 m 1543 1050 b 1332 915 1513 964 1424 915 b 999 1201 1121 915 971 1122 b 1028 1225 1004 1217 1015 1225 b 1242 1092 1078 1225 1147 1092 b 1458 1213 1329 1092 1372 1213 b 1543 1050 1524 1213 1575 1142 "},"ઑ":{"ha":1888,"x_min":0,"x_max":0,"o":"m 668 576 b 760 649 683 625 717 649 b 869 461 814 649 881 593 b 965 518 918 464 947 479 l 1039 753 b 1319 867 1065 832 1217 867 b 1424 799 1410 867 1424 832 b 1417 753 1424 786 1421 771 l 1256 235 b 1276 192 1249 208 1256 192 b 1328 226 1307 192 1314 226 b 1347 189 1339 226 1347 207 b 1106 -4 1347 101 1249 -4 b 881 190 942 -4 881 88 b 901 311 881 224 888 261 b 840 331 881 317 860 322 b 510 97 783 178 647 97 b 233 297 368 97 264 175 b 24 474 76 297 -3 389 b 100 526 36 513 68 526 b 179 499 129 526 151 517 b 257 597 225 533 250 569 b 224 649 264 628 251 649 b 164 626 193 649 178 626 b 154 682 151 626 142 643 b 428 872 186 785 286 872 b 628 597 600 872 663 736 b 383 344 600 492 522 383 b 471 325 408 332 435 325 b 693 429 550 325 631 364 b 668 576 661 476 654 531 m 1553 753 b 1833 867 1578 832 1729 867 b 1936 799 1924 867 1936 832 b 1929 753 1936 786 1933 771 l 1771 235 b 1790 192 1761 208 1771 192 b 1842 226 1818 192 1828 226 b 1860 189 1854 226 1860 207 b 1619 -4 1860 101 1764 -4 b 1396 190 1457 -4 1396 88 b 1438 388 1396 239 1407 296 l 1553 753 m 2057 1050 b 1846 915 2026 964 1938 915 b 1513 1201 1635 915 1485 1122 b 1542 1225 1518 1217 1529 1225 b 1756 1092 1592 1225 1661 1092 b 1972 1213 1843 1092 1886 1213 b 2057 1050 2038 1213 2089 1142 "},"ા":{"ha":528,"x_min":0,"x_max":0,"o":"m 193 753 b 474 867 218 832 369 867 b 576 799 564 867 576 832 b 569 753 576 786 574 771 l 411 235 b 431 192 401 208 411 192 b 482 226 458 192 468 226 b 500 189 494 226 500 207 b 260 -4 500 101 404 -4 b 36 190 97 -4 36 88 b 78 388 36 239 47 296 l 193 753 "},"િ":{"ha":528,"x_min":0,"x_max":0,"o":"m 85 1064 b 639 1293 129 1211 297 1293 b 1160 1025 1007 1293 1201 1157 b 967 915 1142 963 1081 915 b 764 1053 803 915 744 992 b 783 1075 768 1068 776 1075 b 833 1042 797 1075 800 1042 b 874 1071 853 1042 867 1050 b 678 1169 890 1124 815 1169 b 454 1054 556 1169 479 1128 b 553 808 428 957 468 890 b 564 732 572 790 574 771 l 410 235 b 429 192 401 208 410 192 b 482 226 457 192 468 226 b 500 189 493 226 500 207 b 258 -4 500 101 401 -4 b 36 190 94 -4 36 88 b 78 388 36 239 47 294 l 183 736 b 172 779 189 754 185 767 b 85 1064 100 853 49 953 "},"ી":{"ha":528,"x_min":0,"x_max":0,"o":"m -251 1113 b 146 1293 -222 1218 -92 1293 b 604 868 554 1293 664 1072 l 411 235 b 431 192 401 208 411 192 b 482 226 458 192 468 226 b 500 189 494 226 500 207 b 260 -4 500 101 404 -4 b 36 190 97 -4 36 88 b 78 388 36 239 49 294 l 257 971 b 138 1183 301 1118 224 1183 b 32 1114 86 1183 44 1158 b 69 1040 18 1069 38 1040 b 128 1067 103 1040 113 1067 b 136 1022 138 1067 146 1053 b -57 915 118 965 68 915 b -251 1113 -215 915 -285 1007 "},"ુ":{"ha":0,"x_min":0,"x_max":0,"o":"m -562 -44 b -368 121 -562 53 -482 121 b -133 -82 -256 121 -133 36 b -401 -292 -133 -200 -240 -292 b -704 -108 -579 -292 -704 -189 b -681 -83 -704 -90 -697 -83 b -517 -157 -651 -83 -594 -157 b -428 -75 -468 -157 -428 -126 b -468 -25 -428 -42 -449 -25 b -546 -74 -500 -25 -519 -74 b -562 -44 -556 -74 -562 -62 "},"ૂ":{"ha":0,"x_min":0,"x_max":0,"o":"m -600 -62 b -328 176 -600 82 -487 176 b 46 -83 -108 176 46 19 b 22 -124 46 -106 38 -124 b -179 -7 -22 -124 -74 -7 b -269 -94 -242 -7 -269 -53 b -232 -146 -269 -122 -256 -146 b -144 -106 -189 -146 -174 -106 b -122 -132 -131 -106 -122 -114 b -328 -292 -122 -204 -196 -292 b -600 -62 -472 -292 -600 -206 "},"ૃ":{"ha":0,"x_min":0,"x_max":0,"o":"m -544 -144 b -340 54 -544 -28 -431 54 b -262 11 -283 54 -262 28 b -292 -8 -262 1 -267 -3 b -347 -56 -322 -15 -347 -29 b -285 -96 -347 -82 -328 -96 b -196 -58 -233 -96 -212 -58 b -181 -100 -186 -58 -181 -74 b -372 -307 -181 -215 -254 -307 b -544 -144 -468 -307 -544 -244 "},"ૄ":{"ha":0,"x_min":0,"x_max":0,"o":"m -285 0 b -360 -39 -335 -12 -353 -21 b -308 -78 -371 -62 -350 -78 l -286 -78 b -210 -121 -226 -78 -203 -92 b -306 -169 -215 -151 -246 -169 l -343 -169 b -408 -199 -374 -169 -400 -174 b -335 -246 -419 -229 -396 -246 b -174 -217 -249 -246 -197 -217 b -176 -289 -146 -217 -156 -251 b -436 -411 -211 -356 -312 -411 b -668 -218 -625 -411 -701 -310 b -543 -119 -643 -157 -594 -132 b -562 -19 -567 -94 -576 -60 b -382 68 -546 39 -483 68 "},"ૢ":{"ha":1,"x_min":0,"x_max":0,"o":"m -631 -90 b -486 -160 -574 -90 -522 -104 b -374 -112 -453 -133 -417 -119 l -368 -74 b -264 -18 -364 -35 -315 -18 b -182 -56 -208 -18 -182 -35 b -206 -100 -182 -72 -187 -85 l -235 -125 b -194 -204 -196 -143 -187 -176 b -289 -342 -208 -268 -290 -304 b -264 -361 -287 -353 -281 -361 b -236 -376 -247 -361 -229 -350 b -387 -454 -246 -412 -304 -454 b -499 -376 -464 -454 -496 -421 b -496 -351 -499 -368 -499 -360 b -404 -228 -481 -296 -417 -261 b -426 -197 -397 -208 -407 -197 b -511 -239 -458 -197 -481 -239 b -590 -193 -540 -239 -553 -193 b -632 -222 -610 -193 -628 -201 b -589 -267 -637 -244 -618 -267 b -546 -256 -568 -267 -560 -256 b -537 -268 -540 -256 -537 -261 b -678 -385 -537 -310 -582 -385 b -800 -215 -764 -385 -832 -318 b -631 -90 -772 -131 -699 -90 "},"ૣ":{"ha":0,"x_min":0,"x_max":0,"o":"m -383 -493 b -296 -471 -337 -493 -308 -471 b -297 -519 -282 -471 -286 -496 b -431 -600 -318 -564 -361 -600 b -542 -472 -522 -600 -564 -535 b -485 -415 -533 -443 -512 -425 b -503 -342 -508 -396 -511 -365 b -408 -232 -489 -294 -424 -274 b -431 -197 -403 -211 -411 -197 b -512 -239 -461 -197 -482 -239 b -592 -193 -542 -239 -554 -193 b -633 -222 -611 -193 -629 -201 b -590 -267 -639 -244 -619 -267 b -547 -256 -569 -267 -561 -256 b -539 -268 -542 -256 -539 -261 b -679 -385 -539 -310 -583 -385 b -801 -215 -765 -385 -833 -318 b -632 -90 -774 -131 -700 -90 b -487 -160 -567 -90 -521 -114 b -374 -112 -453 -132 -417 -117 l -369 -74 b -265 -18 -365 -35 -317 -18 b -183 -56 -210 -18 -183 -35 b -207 -100 -183 -72 -189 -85 l -246 -133 b -207 -240 -207 -157 -193 -197 b -339 -326 -222 -287 -260 -307 b -399 -356 -383 -336 -394 -343 b -369 -381 -404 -371 -392 -381 l -358 -381 b -317 -410 -326 -381 -311 -389 b -368 -440 -321 -429 -335 -440 l -389 -440 b -424 -460 -406 -440 -419 -444 b -383 -493 -429 -479 -415 -493 "},"ે":{"ha":0,"x_min":0,"x_max":0,"o":"m -262 1293 b -82 1158 -190 1293 -139 1253 l 32 971 b 1 903 58 928 35 903 b -379 1171 -137 903 -379 1014 b -262 1293 -379 1244 -332 1293 "},"ૈ":{"ha":0,"x_min":0,"x_max":0,"o":"m -86 1172 b 13 1293 -86 1244 -44 1293 b 124 1125 71 1293 124 1243 b 17 907 124 994 65 907 b -421 1133 -111 907 -421 971 b -322 1231 -421 1196 -382 1231 b -94 1069 -269 1231 -232 1204 l -18 996 b -86 1172 -69 1072 -86 1125 "},"ો":{"ha":528,"x_min":0,"x_max":0,"o":"m 193 753 b 474 867 218 832 369 867 b 576 799 564 867 576 832 b 569 753 576 786 574 771 l 411 235 b 431 192 401 208 411 192 b 482 226 458 192 468 226 b 500 189 494 226 500 207 b 260 -4 500 101 404 -4 b 36 190 97 -4 36 88 b 78 388 36 239 47 296 l 193 753 m 242 1293 b 424 1158 315 1293 365 1258 l 543 963 b 508 903 564 928 540 903 b 135 1222 353 903 71 1057 b 242 1293 153 1269 188 1293 "},"ૌ":{"ha":528,"x_min":0,"x_max":0,"o":"m 193 753 b 474 867 218 832 369 867 b 576 799 564 867 576 832 b 569 753 576 786 574 771 l 411 235 b 431 192 401 208 411 192 b 482 226 458 192 468 226 b 500 189 494 226 500 207 b 260 -4 500 101 404 -4 b 36 190 97 -4 36 88 b 78 388 36 239 47 296 l 193 753 m 456 1172 b 554 1293 456 1244 497 1293 b 665 1125 613 1293 665 1243 b 558 907 665 994 607 907 b 121 1133 431 907 121 971 b 219 1231 121 1196 160 1231 b 447 1069 272 1231 310 1204 l 524 996 b 456 1172 472 1072 456 1125 "},"ૅ":{"ha":0,"x_min":0,"x_max":0,"o":"m 169 1050 b -42 915 139 964 50 915 b -375 1201 -253 915 -403 1122 b -346 1225 -369 1217 -358 1225 b -132 1092 -296 1225 -226 1092 b 85 1213 -44 1092 -1 1213 b 169 1050 150 1213 201 1142 "},"ૉ":{"ha":528,"x_min":0,"x_max":0,"o":"m 193 753 b 474 867 218 832 369 867 b 576 799 564 867 576 832 b 569 753 576 786 574 771 l 411 235 b 431 192 401 208 411 192 b 482 226 458 192 468 226 b 500 189 494 226 500 207 b 260 -4 500 101 404 -4 b 36 190 97 -4 36 88 b 78 388 36 239 47 296 l 193 753 m 697 1050 b 486 915 667 964 578 915 b 153 1201 275 915 125 1122 b 182 1225 158 1217 169 1225 b 396 1092 232 1225 301 1092 b 613 1213 483 1092 526 1213 b 697 1050 678 1213 729 1142 "},"ક":{"ha":749,"x_min":0,"x_max":0,"o":"m 518 543 b 600 568 561 563 582 568 b 704 472 644 568 707 510 b 635 431 703 451 693 431 l 543 431 b 729 229 650 386 732 317 b 363 -4 721 94 579 -4 b 21 219 160 -4 15 92 b 107 353 28 299 85 353 b 338 263 140 353 169 263 b 443 335 410 263 443 294 b 415 399 446 361 436 381 b 290 351 339 361 311 351 b 143 444 229 351 140 401 b 204 490 143 465 157 490 l 326 490 b 224 661 267 531 224 593 b 472 879 224 772 307 879 b 775 646 674 879 775 757 b 736 583 775 600 753 583 b 557 633 699 583 653 633 b 443 551 489 633 447 600 b 456 511 443 535 449 521 l 518 543 "},"ખ":{"ha":1290,"x_min":0,"x_max":0,"o":"m 86 689 b 324 879 86 776 178 879 b 556 690 475 879 556 794 b 525 558 556 646 544 600 l 489 467 b 526 392 472 424 489 392 b 626 447 568 392 599 413 b 590 551 610 472 590 501 b 718 694 590 647 654 694 b 821 581 781 694 821 653 b 804 483 821 547 815 515 b 888 539 840 485 868 499 l 954 753 b 1235 867 981 832 1132 867 b 1339 799 1326 867 1339 832 b 1331 753 1339 786 1336 771 l 1174 235 b 1192 192 1164 208 1174 192 b 1244 226 1221 192 1231 226 b 1263 189 1256 226 1263 207 b 1021 -4 1263 101 1165 -4 b 796 190 857 -4 796 88 b 824 333 796 229 804 272 b 736 364 793 340 764 350 b 365 174 646 253 500 174 b 106 381 178 174 106 258 b 132 518 106 425 114 468 l 174 642 b 176 658 175 647 176 654 b 154 685 176 676 168 685 b 104 650 122 685 115 650 b 86 689 92 650 86 668 "},"ગ":{"ha":1039,"x_min":0,"x_max":0,"o":"m 707 753 b 986 867 731 832 882 867 b 1090 799 1075 867 1090 832 b 1082 753 1090 786 1086 771 l 924 235 b 942 192 917 208 924 192 b 994 226 974 192 982 226 b 1011 189 1004 226 1011 207 b 774 -4 1011 101 917 -4 b 546 190 607 -4 546 88 b 590 388 546 239 561 296 l 707 753 m 574 631 b 250 272 574 417 451 272 b 40 481 74 272 19 382 b 64 514 44 500 53 514 b 111 471 79 514 85 471 b 213 658 165 471 213 568 b 188 707 213 690 203 707 b 135 674 163 707 151 674 b 118 710 124 674 118 693 b 329 879 118 794 207 879 b 574 631 489 879 574 768 "},"ઘ":{"ha":1079,"x_min":0,"x_max":0,"o":"m 121 664 b 368 879 121 782 218 879 b 621 706 515 879 621 797 b 600 676 621 688 613 676 b 513 728 569 676 546 728 b 465 675 489 728 465 707 b 597 544 465 583 597 576 b 394 417 597 493 394 504 b 478 365 394 382 421 365 b 674 528 569 365 638 433 l 743 753 b 1025 867 771 832 922 867 b 1129 799 1115 867 1129 832 b 1122 753 1129 786 1126 771 l 963 235 b 982 192 953 208 963 192 b 1033 226 1011 192 1021 226 b 1051 189 1046 226 1051 207 b 811 -4 1051 101 954 -4 b 588 190 649 -4 588 88 b 604 301 588 221 593 256 b 293 174 524 219 419 174 b 35 368 125 174 35 257 b 175 546 35 456 88 513 b 121 664 140 579 121 619 "},"ઙ":{"ha":767,"x_min":0,"x_max":0,"o":"m 801 733 b 683 851 801 801 753 851 b 556 696 607 851 556 788 b 674 578 556 628 604 578 b 801 733 750 578 801 642 m 340 879 b 521 719 449 879 536 781 b 481 697 517 701 504 697 b 440 667 456 697 444 688 b 504 556 435 638 446 611 b 699 183 674 394 732 317 b 378 -4 671 74 554 -4 b 25 301 156 -4 25 132 b 64 414 25 368 44 414 b 331 294 97 414 203 294 b 458 394 408 294 458 331 b 194 744 458 507 194 586 b 340 879 194 818 250 879 "},"ચ":{"ha":1103,"x_min":0,"x_max":0,"o":"m 538 324 b 667 433 607 324 644 367 l 767 753 b 1047 867 793 832 944 867 b 1151 799 1138 867 1151 832 b 1143 753 1151 786 1149 771 l 983 235 b 1004 192 976 208 983 192 b 1056 226 1033 192 1043 226 b 1075 189 1065 226 1075 207 b 835 -4 1075 101 978 -4 b 611 163 685 -4 622 71 b 311 307 513 168 399 199 b 219 297 282 300 251 297 b 24 474 86 297 -4 383 b 100 526 36 513 68 526 b 179 499 129 526 151 517 b 257 597 225 533 250 569 b 224 649 264 628 251 649 b 164 626 193 649 178 626 b 154 682 151 626 142 643 b 428 872 186 785 286 872 b 628 597 600 872 663 736 b 426 350 604 503 532 407 b 538 324 469 332 506 324 "},"છ":{"ha":1007,"x_min":0,"x_max":0,"o":"m 606 510 b 489 457 606 489 558 476 b 382 382 425 439 393 418 b 546 278 360 313 450 278 b 772 347 629 278 710 306 b 678 653 681 428 643 539 b 853 797 707 744 765 797 b 1019 435 1015 797 1067 611 b 403 0 957 182 714 0 b 42 350 128 0 -17 161 b 204 513 65 426 119 481 b 154 708 151 556 128 622 b 428 879 182 799 274 879 b 635 728 551 879 635 811 b 576 653 635 676 600 653 b 558 674 568 653 563 657 b 521 715 551 703 539 715 b 481 676 503 715 488 700 b 606 510 447 568 606 549 m 801 557 b 840 408 786 507 801 447 b 882 485 860 432 874 458 b 844 600 897 535 885 600 b 801 557 825 600 810 585 "},"જ":{"ha":972,"x_min":0,"x_max":0,"o":"m 636 806 b 840 921 636 849 706 921 b 1083 714 983 921 1083 822 b 824 421 1083 604 1021 526 l 710 360 b 825 196 788 319 825 268 b 578 -4 825 79 728 -4 b 283 251 407 -4 283 103 b 465 535 283 342 325 414 l 457 547 b 353 613 426 589 392 613 b 294 563 318 613 294 594 b 313 510 294 540 313 525 b 283 489 313 499 304 489 b 99 761 150 489 58 633 b 269 879 124 839 188 879 b 546 601 374 879 471 811 b 679 754 657 697 679 728 b 636 806 679 785 636 776 m 621 310 b 554 233 574 283 554 258 b 600 188 554 204 574 188 b 635 292 644 188 676 238 "},"ઝ":{"ha":1007,"x_min":0,"x_max":0,"o":"m 574 631 b 569 561 574 607 572 583 b 635 590 589 574 611 583 l 681 753 b 953 867 703 833 849 867 b 1074 793 1032 867 1074 838 b 1050 728 1074 774 1065 756 l 913 488 b 946 322 940 442 953 385 b 629 -6 925 122 786 -6 b 419 203 453 -6 399 104 b 443 236 424 222 432 236 b 490 193 458 236 464 193 b 586 350 533 193 579 274 b 551 426 590 396 574 426 b 513 404 538 426 526 421 b 250 272 457 321 367 272 b 40 481 74 272 19 382 b 64 514 44 500 53 514 b 111 471 79 514 85 471 b 213 658 165 471 213 568 b 188 707 213 690 203 707 b 135 674 163 707 151 674 b 118 710 124 674 118 693 b 329 879 118 794 207 879 b 574 631 489 879 574 768 "},"ઞ":{"ha":1051,"x_min":0,"x_max":0,"o":"m 719 753 b 999 867 743 832 894 867 b 1103 799 1088 867 1103 832 b 1094 753 1103 786 1099 771 l 936 235 b 954 192 929 208 936 192 b 1007 226 986 192 994 226 b 1024 189 1017 226 1024 207 b 786 -4 1024 101 929 -4 b 558 190 619 -4 558 88 b 569 272 558 215 563 242 b 439 328 522 282 479 300 b 250 272 389 292 325 272 b 40 481 74 272 19 382 b 64 514 44 500 53 514 b 111 471 79 514 85 471 b 213 658 165 471 213 568 b 188 707 213 690 203 707 b 135 674 163 707 151 674 b 118 710 124 674 118 693 b 329 879 118 794 207 879 b 574 631 489 879 574 768 b 525 424 574 550 557 481 b 643 513 583 425 617 451 l 719 753 "},"ટ":{"ha":758,"x_min":0,"x_max":0,"o":"m 471 289 b 701 410 613 289 663 410 b 735 332 721 410 735 383 b 354 -4 735 151 600 -4 b 28 219 160 -4 28 82 b 447 588 28 494 447 483 b 396 633 447 615 431 633 b 283 583 349 633 308 583 b 264 619 274 583 264 593 b 540 879 264 767 369 879 b 771 703 679 879 771 803 b 363 358 771 463 363 478 b 471 289 363 308 399 289 "},"ઠ":{"ha":865,"x_min":0,"x_max":0,"o":"m 629 656 b 589 618 604 656 589 639 b 671 529 589 596 600 579 b 832 293 778 458 832 401 b 471 -10 832 140 701 -10 b 42 417 203 -10 -19 167 b 371 640 82 569 217 640 b 321 742 339 675 321 704 b 515 879 321 801 381 879 b 799 649 685 879 799 774 b 776 607 799 625 789 607 b 629 656 732 607 678 656 m 479 308 b 474 497 513 456 510 497 b 379 308 438 497 415 456 b 388 143 349 174 353 143 b 479 308 425 143 447 174 "},"ડ":{"ha":736,"x_min":0,"x_max":0,"o":"m 189 736 b 378 879 189 818 253 879 b 669 647 557 879 665 760 b 642 583 671 607 657 583 b 529 640 610 583 582 640 b 488 596 504 640 488 625 b 710 263 488 517 710 444 b 393 -4 710 118 583 -4 b 25 301 156 -4 25 132 b 64 414 25 368 44 414 b 331 294 97 414 203 294 b 458 394 408 294 458 331 b 189 736 458 507 189 586 "},"ઢ":{"ha":856,"x_min":0,"x_max":0,"o":"m 315 796 b 564 876 329 839 446 876 b 858 635 779 876 897 763 b 604 472 839 572 786 536 b 304 275 393 399 324 338 b 371 122 278 192 314 140 b 376 238 363 168 367 204 b 660 417 415 358 549 417 b 858 190 826 417 894 306 b 450 -10 815 53 621 -10 b 25 335 203 -10 19 128 b 233 619 28 453 104 544 b 357 707 333 678 353 692 b 315 796 371 753 304 764 m 553 217 b 482 161 524 217 493 197 b 476 113 478 147 475 128 b 594 163 525 113 582 122 b 553 217 603 192 585 217 "},"ણ":{"ha":1542,"x_min":0,"x_max":0,"o":"m 615 710 b 826 879 615 794 703 879 b 1068 631 985 879 1068 768 b 768 275 1068 417 942 275 b 536 458 629 275 536 351 b 554 504 536 489 544 504 b 606 471 569 504 572 471 b 708 658 660 471 708 568 b 683 707 708 690 701 707 b 633 674 657 707 647 674 b 615 710 621 674 615 693 m 174 753 b 453 867 200 832 351 867 b 560 799 546 867 560 832 b 551 753 560 786 557 771 l 426 364 b 504 261 407 307 424 290 l 788 164 b 1013 -72 929 113 1013 44 b 786 -279 1013 -187 919 -279 b 551 -67 640 -279 551 -181 b 574 -19 551 -36 561 -19 b 649 -36 593 -19 610 -36 b 717 17 692 -36 717 -18 b 644 75 717 42 701 56 l 196 231 b 78 447 75 272 42 333 l 174 753 m 1208 753 b 1490 867 1233 832 1385 867 b 1594 799 1579 867 1594 832 b 1583 753 1594 786 1589 771 l 1425 235 b 1444 192 1419 208 1425 192 b 1497 226 1476 192 1483 226 b 1514 189 1507 226 1514 207 b 1275 -4 1514 101 1419 -4 b 1051 190 1111 -4 1051 88 b 1094 388 1051 239 1064 296 l 1208 753 "},"ત":{"ha":1053,"x_min":0,"x_max":0,"o":"m 53 361 b 468 622 101 521 242 622 b 668 593 531 622 597 611 l 718 753 b 999 867 744 832 896 867 b 1103 799 1089 867 1103 832 b 1094 753 1103 786 1101 771 l 936 235 b 954 192 928 208 936 192 b 1007 226 986 192 994 226 b 1025 189 1017 226 1025 207 b 786 -4 1025 101 929 -4 b 561 190 622 -4 561 88 b 604 388 561 239 574 296 l 636 492 b 603 493 625 493 614 493 b 390 331 497 493 418 425 b 433 192 364 240 397 192 b 493 226 464 192 475 226 b 504 143 513 226 518 189 b 289 -4 478 56 394 -4 b 53 361 107 -4 -10 156 "},"થ":{"ha":1201,"x_min":0,"x_max":0,"o":"m 129 693 b 396 879 129 788 225 879 b 728 640 607 879 728 764 b 558 410 728 536 668 465 l 483 371 b 542 342 444 354 479 342 b 786 496 658 342 750 390 l 786 493 l 868 753 b 1147 867 893 832 1044 867 b 1251 799 1236 867 1251 832 b 1244 753 1251 786 1249 771 l 1085 235 b 1104 192 1076 208 1085 192 b 1156 226 1135 192 1143 226 b 1174 189 1167 226 1174 207 b 935 -4 1174 101 1078 -4 b 710 190 771 -4 710 88 b 719 269 710 214 713 239 b 435 174 653 213 563 174 b 40 415 233 174 40 292 b 222 529 40 458 68 482 b 272 547 240 535 257 542 b 129 693 186 568 129 621 m 313 658 b 371 600 313 632 332 608 b 400 660 393 621 400 639 b 357 706 400 693 376 706 b 313 658 336 706 313 688 "},"દ":{"ha":689,"x_min":0,"x_max":0,"o":"m 156 629 b 444 878 156 779 278 878 b 653 736 579 878 646 811 b 583 647 657 683 629 647 b 571 674 574 647 572 653 b 536 714 568 701 557 714 b 489 644 504 714 489 688 b 618 514 489 551 618 549 b 501 464 618 496 571 482 b 375 365 428 447 375 421 b 486 281 375 308 419 281 b 647 313 589 281 628 313 b 668 261 660 313 668 297 b 356 0 668 133 536 0 b 28 283 146 0 28 131 b 200 517 28 396 90 476 b 156 629 171 546 156 585 "},"ધ":{"ha":1068,"x_min":0,"x_max":0,"o":"m 735 753 b 1014 867 758 832 910 867 b 1118 799 1106 867 1118 832 b 1110 753 1118 786 1115 771 l 953 235 b 971 192 943 208 953 192 b 1024 226 1000 192 1007 226 b 1040 189 1033 226 1040 207 b 799 -4 1040 101 943 -4 b 575 190 636 -4 575 88 b 585 269 575 214 578 239 b 301 176 510 211 414 176 b 46 436 107 176 4 307 b 219 589 67 501 126 564 b 151 782 143 650 131 717 b 467 1026 192 913 353 1026 b 667 869 563 1026 685 940 b 569 785 660 842 633 824 b 496 724 508 747 499 735 b 593 585 482 671 608 629 b 410 449 578 540 429 506 b 483 368 394 406 426 368 b 668 542 561 368 628 422 l 735 753 "},"ન":{"ha":1006,"x_min":0,"x_max":0,"o":"m 674 753 b 953 867 697 832 849 867 b 1057 799 1042 867 1057 832 b 1049 753 1057 786 1053 771 l 890 235 b 908 192 883 208 890 192 b 961 226 940 192 949 226 b 978 189 971 226 978 207 b 740 -4 978 101 883 -4 b 513 190 574 -4 513 88 b 557 388 513 239 528 296 l 592 496 b 479 522 554 513 517 522 b 371 426 418 522 371 488 b 414 372 371 385 394 372 b 467 407 442 372 450 407 b 483 363 476 407 483 383 b 264 174 483 257 382 174 b 22 399 129 174 24 258 b 354 683 19 569 164 683 b 625 600 451 683 543 653 l 674 753 "},"પ":{"ha":1064,"x_min":0,"x_max":0,"o":"m 88 689 b 336 879 88 776 171 879 b 553 690 482 879 553 797 b 524 558 553 642 543 603 l 489 467 b 479 421 483 450 479 435 b 536 371 479 392 496 371 b 644 479 576 371 622 414 l 729 753 b 1010 867 757 832 907 867 b 1115 799 1101 867 1115 832 b 1106 753 1115 786 1111 771 l 947 235 b 968 192 939 208 947 192 b 1017 226 997 192 1006 226 b 1036 189 1031 226 1036 207 b 796 -4 1036 101 939 -4 b 572 190 633 -4 572 88 b 581 264 572 213 575 236 b 340 174 519 210 442 174 b 104 381 179 174 104 258 b 133 518 104 425 118 472 l 172 642 b 175 658 174 647 175 654 b 157 685 175 676 169 685 b 103 650 125 685 117 650 b 88 689 93 650 88 668 "},"ફ":{"ha":724,"x_min":0,"x_max":0,"o":"m 496 539 b 578 563 538 558 560 563 b 682 468 622 563 685 504 b 613 428 682 449 671 428 l 511 428 b 707 208 629 378 707 304 b 397 -6 707 82 585 -6 b 265 8 349 -6 306 -1 b 407 -78 290 -53 351 -78 b 546 -37 497 -78 526 -37 b 599 -144 569 -37 599 -82 b 413 -333 599 -256 528 -333 b 172 39 246 -333 131 -183 b 25 285 51 94 -3 193 b 107 349 38 326 68 349 b 224 239 160 349 199 314 b 422 331 311 231 422 250 b 392 394 422 356 413 376 b 267 347 315 357 289 347 b 119 442 206 347 117 397 b 182 486 121 458 133 486 l 308 486 b 200 661 247 526 200 592 b 447 879 200 772 286 879 b 753 646 650 879 753 757 b 714 583 753 600 728 583 b 535 633 675 583 631 633 b 422 551 465 633 426 600 b 435 508 421 532 428 518 l 496 539 "},"બ":{"ha":1256,"x_min":0,"x_max":0,"o":"m 429 507 b 522 381 429 424 472 381 b 599 417 556 381 581 396 b 543 542 563 454 543 488 b 644 653 543 611 583 653 b 772 496 717 653 772 597 l 772 493 b 861 563 814 494 843 510 l 921 753 b 1201 867 946 832 1099 867 b 1306 799 1293 867 1306 832 b 1296 753 1306 786 1301 771 l 1140 235 b 1157 192 1132 208 1140 192 b 1210 226 1188 192 1197 226 b 1228 189 1222 226 1228 207 b 989 -4 1228 101 1133 -4 b 763 190 826 -4 763 88 b 792 343 763 231 772 276 b 738 358 774 347 756 351 b 396 174 679 247 550 174 b 68 471 213 174 68 279 b 447 879 68 717 229 879 b 679 768 599 879 679 810 b 654 749 679 757 672 749 b 429 507 538 749 429 663 "},"ભ":{"ha":1396,"x_min":0,"x_max":0,"o":"m 31 324 b 624 879 31 576 239 879 b 911 614 808 879 928 779 l 1019 614 l 1064 753 b 1344 867 1089 832 1240 867 b 1447 799 1432 867 1447 832 b 1439 753 1447 786 1443 771 l 1281 235 b 1299 192 1274 208 1281 192 b 1351 226 1331 192 1339 226 b 1368 189 1361 226 1368 207 b 1129 -4 1368 101 1274 -4 b 906 190 965 -4 906 88 b 947 388 906 239 918 296 l 979 489 l 878 489 b 697 347 838 385 782 347 b 439 561 567 347 418 464 b 515 614 446 590 474 614 l 542 614 l 564 683 b 540 764 578 728 589 764 b 335 463 458 764 335 629 b 619 242 335 315 449 242 b 793 288 739 242 771 288 b 806 257 800 288 806 276 b 439 -4 806 143 681 -4 b 31 324 190 -4 31 113 "},"મ":{"ha":1019,"x_min":0,"x_max":0,"o":"m 689 753 b 968 867 711 832 865 867 b 1074 799 1058 867 1074 832 b 1063 753 1074 786 1069 771 l 904 235 b 924 192 897 208 904 192 b 976 226 956 192 963 226 b 992 189 986 226 992 207 b 754 -4 992 101 897 -4 b 531 190 590 -4 531 88 b 565 368 531 235 542 288 l 465 368 b 269 174 422 226 365 174 b 31 442 143 174 -3 307 b 108 496 40 471 67 496 l 128 496 l 172 642 b 175 658 174 647 175 654 b 157 685 175 676 169 685 b 103 650 125 685 117 650 b 88 689 93 650 88 668 b 336 879 88 776 171 879 b 553 690 482 879 553 797 b 524 558 553 647 538 606 l 504 496 l 606 496 l 689 753 "},"ય":{"ha":1132,"x_min":0,"x_max":0,"o":"m 799 753 b 1078 867 824 832 975 867 b 1182 799 1167 867 1182 832 b 1175 753 1182 786 1179 771 l 1015 235 b 1035 192 1007 208 1015 192 b 1086 226 1065 192 1074 226 b 1104 189 1097 226 1104 207 b 865 -4 1104 101 1008 -4 b 640 190 701 -4 640 88 b 650 272 640 214 643 240 b 392 174 586 211 499 174 b 32 501 151 174 -4 356 b 113 575 40 535 58 553 l 254 632 b 315 686 296 649 315 665 b 289 715 315 704 306 715 b 258 704 278 715 268 711 b 235 768 233 685 213 706 b 422 879 253 815 311 879 b 654 590 594 879 690 742 b 442 407 633 501 565 456 l 385 385 b 457 342 344 369 385 342 b 714 486 569 342 675 388 l 799 753 "},"ર":{"ha":650,"x_min":0,"x_max":0,"o":"m 439 872 b 636 590 611 872 675 735 b 258 310 594 438 425 333 b 382 254 286 274 324 254 b 551 328 465 254 525 328 b 592 231 575 328 592 292 b 374 -4 592 118 526 -4 b 132 308 214 -4 122 142 b 6 465 40 325 -22 388 b 93 526 19 510 61 526 b 185 494 122 526 153 515 b 268 597 231 529 261 569 b 235 649 275 628 263 649 b 175 626 204 649 189 626 b 165 682 163 626 153 643 b 439 872 197 785 297 872 "},"લ":{"ha":1165,"x_min":0,"x_max":0,"o":"m 1049 235 b 1067 192 1040 208 1049 192 b 1119 226 1097 192 1107 226 b 1138 189 1132 226 1138 207 b 899 -4 1138 101 1043 -4 b 672 190 733 -4 672 88 b 715 388 672 239 686 296 l 760 522 b 597 414 676 436 643 414 b 504 513 542 414 504 450 b 600 658 504 586 568 658 b 656 615 626 658 622 615 b 1111 867 753 615 931 867 b 1214 799 1201 867 1214 832 b 1207 753 1214 786 1211 771 m 610 338 b 357 174 610 272 494 174 b 61 456 200 174 61 274 b 494 879 61 679 243 879 b 685 786 625 879 685 821 b 643 761 685 767 672 765 b 424 474 533 744 424 636 b 535 346 424 383 478 346 b 597 356 563 346 583 356 b 610 338 606 356 610 351 "},"વ":{"ha":1040,"x_min":0,"x_max":0,"o":"m 64 454 b 442 879 64 703 222 879 b 661 747 606 879 661 792 b 628 719 661 726 653 719 b 425 482 507 719 425 626 b 504 378 425 404 460 378 b 622 489 549 378 590 411 l 707 753 b 988 867 729 832 885 867 b 1092 799 1076 867 1092 832 b 1082 753 1092 786 1088 771 l 925 235 b 943 192 915 208 925 192 b 994 226 975 192 981 226 b 1013 189 1006 226 1013 207 b 774 -4 1013 101 917 -4 b 550 190 610 -4 550 88 b 558 269 550 214 553 239 b 343 174 499 208 426 174 b 64 454 176 174 64 283 "},"શ":{"ha":1264,"x_min":0,"x_max":0,"o":"m 303 589 b 363 496 297 544 326 513 b 396 576 381 519 393 546 b 353 646 400 625 381 646 b 303 589 331 646 306 629 m 172 643 b 479 872 185 763 286 872 b 749 497 653 872 826 744 b 383 190 704 357 567 232 b 900 19 526 79 708 19 b 1176 111 1096 19 1151 111 b 1206 15 1189 111 1206 71 b 844 -282 1206 -144 1078 -282 b 215 179 594 -282 372 -140 b 18 375 90 196 -11 288 b 96 432 29 407 56 431 b 217 385 133 433 174 418 b 299 436 243 400 272 417 b 172 643 217 482 163 551 m 899 753 b 1182 867 926 832 1079 867 b 1285 799 1274 867 1285 832 b 1275 753 1283 786 1281 771 l 1147 369 b 1164 326 1139 343 1146 326 b 1218 363 1196 326 1206 363 b 1233 324 1229 363 1233 342 b 988 131 1231 235 1132 131 b 771 325 822 131 767 222 b 818 522 772 375 788 431 l 899 753 "},"ષ":{"ha":1064,"x_min":0,"x_max":0,"o":"m 479 421 b 536 371 479 392 496 371 b 600 407 561 371 585 385 l 528 571 l 489 467 b 479 421 483 450 479 435 m 729 753 b 1010 867 757 832 907 867 b 1115 799 1101 867 1115 832 b 1106 753 1115 786 1111 771 l 947 235 b 968 192 939 208 947 192 b 1017 226 997 192 1006 226 b 1036 189 1031 226 1036 207 b 796 -4 1036 101 939 -4 b 572 190 633 -4 572 88 b 582 274 572 215 575 242 b 340 174 504 204 433 174 b 104 381 179 174 104 258 b 133 518 104 425 118 472 l 172 642 b 175 658 174 647 175 654 b 157 685 175 676 169 685 b 103 650 125 685 117 650 b 88 689 93 650 88 668 b 336 879 88 776 171 879 b 553 732 440 879 510 828 l 653 510 l 729 753 "},"સ":{"ha":1224,"x_min":0,"x_max":0,"o":"m 850 753 b 1133 867 878 832 1031 867 b 1236 799 1224 867 1238 832 b 1224 753 1236 786 1232 771 l 1099 369 b 1115 326 1090 343 1099 326 b 1171 363 1146 326 1157 363 b 1186 324 1179 363 1186 342 b 939 131 1183 235 1083 131 b 719 325 775 131 717 222 b 729 392 719 346 724 367 b 601 451 683 401 640 422 b 365 285 546 376 465 311 b 924 19 494 129 696 19 b 1175 111 1122 19 1147 111 b 1207 15 1188 111 1207 69 b 856 -282 1207 -144 1093 -282 b 240 272 569 -282 304 -124 b 40 465 118 283 14 381 b 128 526 54 510 96 526 b 219 494 157 526 188 515 b 303 597 265 529 296 569 b 269 649 310 628 297 649 b 210 626 239 649 224 626 b 200 682 197 626 188 643 b 474 872 232 785 332 872 b 674 597 646 872 708 736 b 656 543 669 579 663 561 b 807 624 733 535 775 558 l 850 753 "},"હ":{"ha":1122,"x_min":0,"x_max":0,"o":"m 1018 24 b 563 -285 963 -165 792 -285 b 40 179 271 -285 28 -114 b 342 654 51 429 257 654 b 476 413 436 654 281 413 b 572 485 535 413 569 442 b 482 597 576 544 481 557 b 600 832 483 628 576 786 b 690 904 615 864 646 904 b 986 776 775 904 986 838 b 885 632 986 735 965 713 l 771 521 b 850 364 825 481 854 429 b 556 144 842 238 718 144 b 261 394 371 144 260 238 b 219 258 233 354 219 306 b 556 28 219 138 313 28 b 922 279 757 28 869 119 b 961 346 939 328 943 346 b 1018 24 1018 346 1065 182 "},"ળ":{"ha":1328,"x_min":0,"x_max":0,"o":"m 72 490 b 438 879 72 718 217 879 b 664 751 588 879 664 792 b 624 719 664 729 653 721 b 431 474 496 713 431 600 b 504 378 431 410 460 378 b 611 485 546 378 575 410 l 688 643 b 1008 867 760 793 863 867 b 1286 489 1207 867 1358 733 l 1211 235 b 1229 192 1206 207 1211 192 b 1283 226 1261 192 1269 226 b 1299 189 1294 226 1299 207 b 1061 -4 1299 101 1206 -4 b 836 190 897 -4 836 88 b 878 388 836 239 847 294 l 929 542 b 888 661 958 626 931 661 b 793 576 854 661 829 647 l 703 382 b 401 174 636 242 550 174 b 72 490 229 174 72 278 "},"ં":{"ha":0,"x_min":0,"x_max":0,"o":"m -190 1067 b -39 1215 -190 1136 -131 1215 b 85 1094 32 1215 85 1163 b -68 942 85 1021 24 942 b -190 1067 -139 942 -190 997 "},"ઁ":{"ha":0,"x_min":0,"x_max":0,"o":"m 213 1078 b -54 915 185 988 81 915 b -335 1174 -271 915 -362 1094 b -306 1197 -329 1189 -318 1197 b -83 1069 -256 1197 -233 1069 b 181 1185 72 1069 132 1185 b 213 1078 208 1185 232 1142 m 74 1242 b -94 1125 56 1176 -19 1117 b -176 1244 -157 1132 -193 1186 b -7 1356 -160 1301 -89 1365 b 74 1242 54 1349 90 1299 "},"ઃ":{"ha":488,"x_min":0,"x_max":0,"o":"m 89 242 b 243 397 89 314 149 397 b 375 271 317 397 374 342 b 219 113 376 194 314 113 b 89 242 146 113 90 169 m 185 606 b 339 761 185 678 244 761 b 471 635 413 761 469 706 b 315 476 472 558 410 476 b 185 606 242 476 186 533 "},"્":{"ha":0,"x_min":0,"x_max":0,"o":"m -567 -144 b -469 -42 -569 -83 -528 -43 b -65 -283 -399 -39 -358 -60 b -51 -304 -56 -290 -51 -296 b -136 -337 -50 -322 -74 -333 b -567 -144 -432 -346 -564 -256 "},"઼":{"ha":0,"x_min":0,"x_max":0,"o":"m -469 -153 b -351 -36 -469 -100 -421 -36 b -258 -129 -299 -36 -258 -78 b -374 -243 -258 -186 -304 -243 b -469 -153 -426 -243 -469 -204 "},"ઽ":{"ha":676,"x_min":0,"x_max":0,"o":"m 28 679 b 340 868 68 808 171 868 b 635 607 564 868 675 740 b 540 542 619 563 590 542 l 431 542 b 367 508 385 542 371 525 b 488 147 340 428 546 338 b 258 -4 454 49 375 -4 b 58 186 110 -4 31 93 b 78 206 63 200 68 206 b 161 164 107 206 107 164 b 196 186 174 164 190 171 b 28 679 229 282 -43 457 "},"૦":{"ha":824,"x_min":0,"x_max":0,"o":"m 43 435 b 447 868 57 683 232 868 b 804 435 663 868 818 683 b 401 0 792 186 619 0 b 43 435 185 0 33 186 m 488 435 b 518 693 572 664 554 693 b 368 435 485 693 450 647 b 333 172 289 217 292 172 b 488 435 372 172 408 218 "},"૧":{"ha":658,"x_min":0,"x_max":0,"o":"m 51 604 b 375 875 51 742 181 875 b 613 540 610 875 664 715 l 518 235 b 539 192 511 208 518 192 b 590 226 569 192 576 226 b 607 189 600 226 607 207 b 368 -4 607 101 511 -4 b 144 190 204 -4 144 88 b 186 388 144 239 158 296 l 214 471 b 51 604 114 472 51 525 m 288 644 b 254 714 297 688 288 714 b 189 644 226 714 200 688 b 219 574 174 600 189 574 b 288 644 246 574 275 600 "},"૨":{"ha":688,"x_min":0,"x_max":0,"o":"m 203 640 b 467 879 194 753 296 879 b 685 679 589 879 685 806 b 310 313 685 456 479 343 b 457 254 347 274 396 254 b 606 357 568 254 575 357 b 686 217 633 357 686 306 b 449 -4 686 104 601 -4 b 179 306 254 -4 168 140 b 18 431 83 315 24 361 b 106 539 14 488 53 536 b 231 481 158 543 197 515 b 306 593 288 513 308 549 b 272 633 306 618 294 633 b 222 606 244 631 235 607 b 203 640 210 606 203 619 "},"૩":{"ha":735,"x_min":0,"x_max":0,"o":"m 235 647 b 503 868 246 790 367 868 b 714 621 685 868 746 729 b 572 475 697 565 656 510 b 671 185 667 415 711 315 b 372 0 646 93 554 0 b 31 340 119 0 -1 222 b 58 372 36 367 49 372 b 265 278 92 372 167 278 b 358 350 313 278 354 300 b 229 464 368 443 196 394 b 338 593 243 500 338 532 b 307 631 338 615 326 631 b 251 604 281 631 278 604 b 235 647 238 604 231 615 "},"૪":{"ha":946,"x_min":0,"x_max":0,"o":"m 539 854 b 724 968 539 901 615 968 b 965 729 867 968 965 864 b 703 419 965 586 869 500 l 586 364 b 714 201 661 338 714 274 b 456 0 714 85 607 0 b 164 257 288 0 164 104 b 306 508 164 338 194 408 l 253 524 b 69 729 153 553 69 621 b 174 868 69 819 114 871 b 258 804 211 867 233 846 l 389 578 b 599 793 564 713 599 761 b 539 854 599 844 539 821 m 536 249 b 501 314 536 278 522 299 b 435 235 451 288 435 263 b 482 192 435 208 451 192 b 536 249 511 192 536 218 "},"૫":{"ha":1064,"x_min":0,"x_max":0,"o":"m 88 689 b 336 879 88 776 171 879 b 553 690 482 879 553 797 b 524 558 553 642 543 603 l 489 467 b 479 421 483 450 479 435 b 536 371 479 392 496 371 b 644 479 576 371 622 414 l 729 753 b 1010 867 757 832 907 867 b 1115 799 1101 867 1115 832 b 1106 753 1115 786 1111 771 l 947 235 b 968 192 939 208 947 192 b 1017 226 997 192 1006 226 b 1036 189 1031 226 1036 207 b 796 -4 1036 101 939 -4 b 572 190 633 -4 572 88 b 581 264 572 213 575 236 b 340 174 519 210 442 174 b 104 381 179 174 104 258 b 133 518 104 425 118 472 l 172 642 b 175 658 174 647 175 654 b 157 685 175 676 169 685 b 103 650 125 685 117 650 b 88 689 93 650 88 668 "},"૬":{"ha":756,"x_min":0,"x_max":0,"o":"m 769 575 b 731 521 758 538 742 521 b 557 576 713 521 667 576 b 322 411 444 576 356 521 b 368 261 300 339 319 279 b 567 436 400 390 481 436 b 694 268 671 436 722 361 b 479 133 669 188 585 143 b 504 -71 517 68 526 1 b 301 -208 478 -158 406 -208 b 83 101 110 -208 28 -61 b 115 125 89 118 101 125 b 283 47 143 125 171 47 b 375 133 340 47 369 88 b 53 583 79 158 -8 381 b 482 878 115 788 306 878 b 769 575 689 878 819 744 "},"૭":{"ha":868,"x_min":0,"x_max":0,"o":"m 835 342 b 496 -10 808 121 679 -10 b 24 469 175 -10 -11 340 b 51 501 28 489 36 501 b 103 453 67 501 74 499 b 408 294 179 347 283 294 b 626 489 547 294 615 378 b 626 542 628 507 628 525 b 407 400 583 457 508 400 b 178 635 269 400 165 493 b 450 868 193 776 304 868 b 835 342 696 868 861 614 m 443 631 b 489 583 440 597 463 583 b 575 654 525 583 561 617 b 513 700 568 683 543 700 b 443 631 486 700 447 671 "},"૮":{"ha":838,"x_min":0,"x_max":0,"o":"m 263 358 b 174 290 215 346 185 317 b 231 211 161 239 192 211 b 288 288 278 211 300 251 b 367 338 272 322 294 338 b 554 132 515 338 585 235 b 333 0 528 51 443 0 b 39 381 99 0 -26 172 b 246 683 74 493 156 590 l 407 835 b 511 890 443 868 474 890 b 606 854 540 890 572 876 l 710 790 b 811 586 799 732 838 668 b 622 451 792 518 738 485 "},"૯":{"ha":990,"x_min":0,"x_max":0,"o":"m 75 503 b 546 868 146 729 361 868 b 632 821 600 868 643 851 b 363 532 615 768 419 722 b 564 242 319 396 368 242 b 821 307 703 242 778 307 b 844 239 849 307 856 282 b 442 -4 806 117 657 -4 b 75 503 140 -4 -15 215 m 451 440 b 485 501 451 457 458 482 l 726 721 b 869 736 776 768 818 763 l 946 704 b 1011 603 1003 679 1025 646 b 907 511 1001 571 983 543 l 656 413 b 536 381 603 392 576 381 b 451 440 488 382 451 407 "},"ૐ":{"ha":1510,"x_min":0,"x_max":0,"o":"m 1119 349 b 1186 397 1153 349 1175 360 b 1149 576 1215 492 1181 576 b 1074 415 1132 576 1121 569 b 1058 364 1068 397 1063 381 b 1119 349 1078 354 1099 349 m 794 525 b 1107 738 850 678 939 738 b 1463 326 1339 738 1524 528 b 1246 168 1433 231 1349 168 b 1021 264 1165 168 1083 199 b 867 133 978 164 936 133 b 715 211 814 133 761 158 b 708 185 714 203 711 193 b 410 0 683 93 592 0 b 68 340 157 0 36 222 b 96 372 74 367 86 372 b 303 278 129 372 204 278 b 396 350 350 278 392 300 b 267 464 406 443 233 394 b 375 593 281 500 375 532 b 344 631 375 615 364 631 b 289 604 318 631 315 604 b 272 647 275 604 268 615 b 540 868 283 790 404 868 b 751 621 722 868 783 729 b 610 475 735 565 693 510 b 672 421 635 460 656 442 b 713 396 683 407 697 396 b 794 525 735 396 757 414 m 1250 953 b 983 790 1222 863 1118 790 b 703 1049 767 790 675 969 b 732 1072 708 1064 719 1072 b 954 944 782 1072 804 944 b 1218 1060 1110 944 1169 1060 b 1250 953 1246 1060 1269 1017 m 1111 1117 b 943 1000 1093 1051 1018 992 b 861 1119 881 1007 844 1061 b 1031 1231 878 1176 949 1240 b 1111 1117 1092 1224 1128 1174 "},"૰":{"ha":590,"x_min":0,"x_max":0,"o":"m 572 472 b 300 229 574 333 457 229 b 68 428 169 229 71 315 b 339 663 68 563 183 663 b 572 472 469 663 569 581 m 289 436 b 293 339 271 364 275 339 b 354 458 317 339 335 374 b 347 553 371 532 368 553 b 289 436 325 553 311 526 "},"૱":{"ha":1238,"x_min":0,"x_max":0,"o":"m 221 647 b 489 868 232 790 353 868 b 700 621 671 868 732 729 b 544 469 682 563 638 503 b 658 204 658 410 692 315 b 344 0 625 97 510 0 b 247 11 310 0 278 4 b 365 -78 264 -53 308 -78 b 504 -37 456 -78 485 -37 b 547 -211 546 -37 572 -126 b 371 -333 525 -287 461 -333 b 158 43 243 -333 118 -208 b 26 293 51 100 -1 201 b 111 360 38 332 71 360 b 221 242 174 360 213 311 b 333 290 282 221 319 243 b 231 475 361 388 211 419 b 324 593 243 511 324 532 b 293 631 324 615 313 631 b 238 604 267 631 264 604 b 221 647 224 604 217 615 m 1219 472 b 947 229 1221 333 1104 229 b 715 428 817 229 718 315 b 986 663 715 563 831 663 b 1219 472 1117 663 1217 581 m 936 436 b 940 339 918 364 922 339 b 1001 458 964 339 982 374 b 994 553 1018 532 1015 553 b 936 436 972 553 958 526 "},"।":{"ha":547,"x_min":0,"x_max":0,"o":"m 221 764 b 333 860 243 840 268 860 l 514 860 b 571 767 571 860 592 839 l 383 96 b 269 0 361 19 339 0 l 93 0 b 31 93 36 0 10 21 "},"॥":{"ha":993,"x_min":0,"x_max":0,"o":"m 222 764 b 329 860 244 840 268 860 l 497 860 b 549 767 550 860 569 839 l 361 96 b 254 0 340 19 318 0 l 89 0 b 32 93 36 0 11 21 m 690 764 b 797 860 713 840 736 860 l 965 860 b 1017 767 1018 860 1038 839 l 829 96 b 722 0 808 19 786 0 l 557 0 b 500 93 504 0 479 21 "},"₹":{"ha":694,"x_min":0,"x_max":0,"o":"m 164 582 b 107 642 119 582 100 606 b 199 703 117 685 147 703 l 324 703 b 247 774 321 756 289 774 l 219 774 b 165 835 174 774 154 796 b 253 894 176 874 206 894 l 725 894 b 781 833 772 894 792 874 b 693 774 769 796 740 774 l 592 774 b 635 703 614 753 628 729 l 682 703 b 738 642 729 703 749 681 b 650 582 726 604 697 582 l 621 582 b 449 432 593 511 533 463 b 536 268 540 403 554 331 l 518 208 b 547 154 508 174 522 154 b 599 117 583 154 604 146 b 364 -12 589 60 517 -12 b 172 201 222 -12 138 61 l 193 283 b 133 388 213 361 190 388 l 107 388 b 53 453 61 388 42 414 b 142 508 64 494 96 508 l 181 508 b 296 582 226 508 268 526 l 164 582 "},"‌":{"ha":0,"x_min":0,"x_max":0,"o":"m 38 1103 l 38 -481 l -33 -481 l -33 1103 "},"‍":{"ha":0,"x_min":0,"x_max":0,"o":"m 128 738 l 25 840 l 25 -481 l -46 -481 l -46 839 l -149 738 l -207 792 l -62 924 l -207 1057 l -150 1110 l -10 972 l 129 1110 l 185 1057 l 40 924 l 185 792 "},"◌":{"ha":1108,"x_min":0,"x_max":0,"o":"m 310 718 b 371 779 310 753 335 779 b 432 718 407 779 432 753 b 371 656 432 682 407 656 b 310 718 335 656 310 682 m 196 565 b 260 626 196 600 224 626 b 321 565 293 626 321 600 b 260 504 321 531 293 504 b 196 565 224 504 196 531 m 178 390 b 239 453 178 426 204 453 b 300 390 275 453 300 426 b 239 331 300 356 275 331 b 178 390 204 331 178 356 m 250 229 b 311 290 250 264 275 290 b 372 229 346 290 372 264 b 311 168 372 193 346 168 b 250 229 275 168 250 193 m 390 125 b 453 186 390 158 417 186 b 514 125 488 186 514 158 b 453 61 514 89 488 61 b 390 125 417 61 390 89 m 567 103 b 628 164 567 139 592 164 b 690 103 664 164 690 139 b 628 42 690 67 664 42 b 567 103 592 42 567 67 m 735 176 b 796 238 735 211 761 238 b 858 176 831 238 858 211 b 796 115 858 140 831 115 b 735 176 761 115 735 140 m 836 313 b 899 375 836 349 863 375 b 958 313 932 375 958 349 b 899 251 958 278 932 251 b 836 313 863 251 836 278 m 850 499 b 911 560 850 535 875 560 b 972 499 946 560 972 535 b 911 438 972 463 946 438 b 850 499 875 438 850 463 m 781 663 b 842 725 781 699 807 725 b 903 663 878 725 903 699 b 842 601 903 628 878 601 b 781 663 807 601 781 628 m 649 757 b 711 819 649 793 675 819 b 771 757 746 819 771 793 b 711 696 771 724 746 696 b 649 757 675 696 649 724 m 474 778 b 535 839 474 814 499 839 b 596 778 571 839 596 814 b 535 717 596 742 571 717 b 474 778 499 717 474 742 "},"!":{"ha":501,"x_min":0,"x_max":0,"o":"m 196 825 b 406 1032 203 969 281 1032 b 524 767 554 1032 615 932 l 306 378 b 229 319 283 336 263 319 b 178 385 194 319 176 342 m 38 125 b 192 281 38 197 97 281 b 324 154 265 281 322 225 b 168 -4 325 78 263 -4 b 38 125 94 -4 39 53 "},"\"":{"ha":592,"x_min":0,"x_max":0,"o":"m 176 922 b 265 1006 186 982 206 1006 l 367 1006 b 431 957 407 1006 431 983 b 414 910 431 944 428 933 l 306 725 b 232 682 285 692 265 682 l 183 682 b 144 726 156 682 139 699 m 468 922 b 557 1006 478 982 497 1006 l 658 1006 b 722 957 699 1006 722 983 b 706 910 722 944 719 933 l 597 725 b 524 682 576 692 557 682 l 475 682 b 436 726 447 682 431 699 "},"#":{"ha":811,"x_min":0,"x_max":0,"o":"m 421 233 l 292 233 l 260 138 b 185 63 240 81 215 63 b 132 147 135 63 114 92 l 161 233 l 122 233 b 63 299 72 233 51 261 b 163 356 74 342 110 356 l 201 356 l 279 588 l 239 588 b 179 651 190 588 169 614 b 279 710 192 694 228 710 l 319 710 l 351 806 b 428 881 371 863 396 881 b 479 796 476 881 497 851 l 450 710 l 581 710 l 613 806 b 688 881 631 863 657 881 b 740 796 738 881 758 850 l 711 710 l 750 710 b 810 644 800 710 821 682 b 710 588 799 601 763 588 l 671 588 l 593 356 l 633 356 b 693 292 682 356 703 329 b 593 233 681 249 644 233 l 553 233 l 521 138 b 444 63 503 81 476 63 b 393 149 396 63 375 93 m 540 588 l 410 588 l 332 356 l 463 356 "},"$":{"ha":910,"x_min":0,"x_max":0,"o":"m 424 -89 b 339 -157 408 -143 382 -165 b 290 -61 296 -149 276 -115 l 313 25 b 203 92 289 35 249 56 l 153 50 b 46 0 107 13 83 0 b -18 86 -6 0 -36 32 l 50 293 b 131 360 65 342 92 360 b 256 257 175 360 203 331 b 351 161 297 199 329 172 l 399 335 b 178 721 282 407 108 494 b 504 933 217 849 350 933 l 563 931 l 585 1014 b 675 1082 600 1069 631 1083 b 721 986 719 1081 736 1039 l 696 897 b 782 856 710 896 743 879 l 814 882 b 918 928 857 917 881 928 b 986 847 969 928 1001 899 l 928 656 b 860 594 915 611 899 594 b 735 690 815 594 793 621 b 658 763 699 732 682 749 l 614 600 b 850 221 732 528 915 436 b 497 -6 804 67 660 -6 l 447 -6 l 424 -89 m 586 181 b 526 281 596 219 576 256 l 482 126 b 586 181 533 124 576 143 m 424 750 b 483 650 414 711 433 675 l 528 804 b 424 750 476 807 433 788 "},"%":{"ha":1828,"x_min":0,"x_max":0,"o":"m 1022 276 b 1433 557 1068 485 1214 557 b 1754 276 1654 557 1799 485 b 1342 -4 1710 68 1563 -4 b 1022 276 1121 -4 978 68 m 1460 276 b 1431 474 1492 439 1476 474 b 1317 276 1383 474 1349 439 b 1347 78 1286 113 1301 78 b 1460 276 1394 78 1431 113 m 1251 982 b 1336 1026 1274 1013 1299 1026 b 1374 940 1389 1026 1410 989 l 633 -57 b 549 -101 611 -87 586 -101 b 511 -15 496 -101 475 -64 m 133 656 b 544 936 179 864 325 936 b 865 656 765 936 910 864 b 453 375 821 447 674 375 b 133 656 232 375 89 447 m 571 656 b 542 853 603 818 588 853 b 428 656 494 853 460 818 b 458 457 397 492 413 457 b 571 656 506 457 542 492 "},"&":{"ha":1138,"x_min":0,"x_max":0,"o":"m 585 610 b 664 693 625 626 656 657 b 600 760 672 728 644 760 b 529 697 556 760 529 733 b 561 633 529 676 536 657 m 443 -56 b 489 -28 449 -37 474 -28 b 539 -31 499 -28 529 -31 b 626 43 585 -31 624 -4 b 579 133 626 68 608 101 l 568 124 b 256 -3 472 39 392 -3 b -22 258 33 -3 -68 115 b 301 444 25 404 175 446 l 263 488 b 214 625 225 531 213 583 b 592 878 218 774 350 878 b 835 681 763 878 860 792 b 667 526 819 614 758 560 l 744 449 l 842 535 b 1018 615 907 592 958 615 b 1174 442 1094 615 1204 564 b 1014 333 1151 353 1061 333 b 914 404 953 333 967 404 b 864 385 906 404 889 408 l 835 358 l 907 286 b 978 61 974 219 1000 135 b 657 -140 944 -61 815 -140 b 443 -56 563 -140 421 -117 m 383 188 b 492 231 415 188 451 203 l 392 343 b 311 271 346 326 318 297 b 383 188 299 221 325 188 "},"'":{"ha":360,"x_min":0,"x_max":0,"o":"m 221 922 b 310 1006 231 982 250 1006 l 411 1006 b 475 957 451 1006 475 983 b 458 910 475 944 472 933 l 350 725 b 276 682 329 692 310 682 l 228 682 b 189 726 200 682 183 699 "},"(":{"ha":657,"x_min":0,"x_max":0,"o":"m 856 1121 b 114 488 649 1121 200 918 b 544 -268 22 33 400 -268 b 590 -244 572 -268 585 -260 b 476 458 617 -171 358 -28 b 938 1063 594 947 913 981 b 856 1121 949 1099 914 1121 "},")":{"ha":718,"x_min":0,"x_max":0,"o":"m -133 -268 b 608 365 74 -268 522 -65 b 178 1121 700 819 322 1121 b 132 1097 150 1121 138 1113 b 246 394 106 1024 364 881 b -215 -210 128 -94 -190 -128 b -133 -268 -226 -246 -192 -268 "},"*":{"ha":575,"x_min":0,"x_max":0,"o":"m 599 946 b 660 853 654 946 674 896 b 490 779 644 804 578 779 b 574 658 549 757 592 722 b 486 593 560 611 522 593 b 393 732 429 593 396 653 b 251 593 356 639 300 593 b 193 685 211 593 176 632 b 313 779 208 736 264 763 b 176 886 200 779 160 832 b 264 946 189 928 226 946 b 364 881 307 946 336 924 b 360 990 360 904 347 947 b 451 1064 374 1033 406 1064 b 511 958 499 1064 531 1022 b 471 879 506 939 486 901 b 599 946 515 919 554 946 "},"+":{"ha":913,"x_min":0,"x_max":0,"o":"m 178 397 b 114 472 124 397 100 424 b 217 547 126 521 164 547 l 424 547 l 472 729 b 561 807 486 783 521 807 b 626 710 614 807 643 771 l 583 547 l 794 547 b 860 472 849 547 871 521 b 756 397 844 424 811 397 l 543 397 l 494 215 b 404 138 481 161 444 138 b 339 235 351 138 322 174 l 383 397 l 178 397 "},",":{"ha":404,"x_min":0,"x_max":0,"o":"m -8 125 b 133 281 -8 210 54 281 b 283 113 218 281 286 217 b -22 -214 279 -72 92 -214 b -68 -182 -50 -214 -68 -204 b 56 -26 -68 -126 56 -89 b -8 125 56 11 -8 40 "},"-":{"ha":790,"x_min":0,"x_max":0,"o":"m 246 404 b 174 489 185 404 158 435 b 289 574 188 543 229 574 l 613 574 b 686 489 674 574 699 543 b 569 404 669 435 632 404 l 246 404 "},".":{"ha":413,"x_min":0,"x_max":0,"o":"m 11 125 b 165 281 11 197 71 281 b 297 154 239 281 296 225 b 142 -4 299 78 236 -4 b 11 125 68 -4 13 53 "},"/":{"ha":625,"x_min":0,"x_max":0,"o":"m 700 1026 b 747 929 754 1026 776 972 l 106 -49 b 32 -101 81 -86 58 -101 b -18 -7 -25 -101 -47 -50 l 624 974 b 700 1026 647 1011 671 1026 "},":":{"ha":490,"x_min":0,"x_max":0,"o":"m 50 125 b 204 281 50 197 110 281 b 336 154 278 281 335 225 b 181 -4 338 78 275 -4 b 50 125 107 -4 51 53 m 193 576 b 347 733 192 650 253 733 b 478 607 421 733 476 678 b 322 449 479 531 417 449 b 193 576 249 449 194 504 "},";":{"ha":490,"x_min":0,"x_max":0,"o":"m 54 125 b 207 281 57 197 117 281 b 331 140 281 281 335 224 b 65 -156 325 -17 160 -156 b 36 -136 44 -156 36 -147 b 118 -19 36 -108 117 -57 b 54 125 118 11 51 31 m 193 576 b 347 733 192 650 253 733 b 478 607 421 733 476 678 b 322 449 479 531 417 449 b 193 576 249 449 194 504 "},"<":{"ha":958,"x_min":0,"x_max":0,"o":"m 131 371 b 82 453 92 388 72 417 b 160 525 90 490 113 508 l 813 761 b 942 681 913 797 953 732 b 833 585 929 631 901 608 l 393 436 l 754 296 b 832 175 818 271 846 228 b 697 136 818 125 772 106 l 131 371 "},"=":{"ha":972,"x_min":0,"x_max":0,"o":"m 219 513 b 147 597 158 513 132 543 b 263 682 161 651 203 682 l 878 682 b 951 597 939 682 964 651 b 835 513 935 543 897 513 l 219 513 m 142 207 b 69 292 81 207 54 238 b 185 376 83 346 125 376 l 800 376 b 874 292 861 376 886 346 b 757 207 857 238 819 207 l 142 207 "},">":{"ha":958,"x_min":0,"x_max":0,"o":"m 878 522 b 926 440 917 506 936 476 b 849 368 918 403 896 385 l 196 132 b 67 213 96 96 56 161 b 175 308 79 263 107 285 l 615 457 l 254 597 b 176 718 190 622 163 665 b 311 757 190 768 236 788 l 878 522 "},"?":{"ha":947,"x_min":0,"x_max":0,"o":"m 501 363 b 511 332 499 351 504 342 b 524 306 522 319 525 313 b 458 274 518 288 488 274 b 317 426 357 274 292 339 b 640 735 358 565 599 575 b 544 868 664 831 592 868 b 476 857 519 868 499 865 b 488 735 493 811 494 764 b 329 624 468 667 415 624 b 168 813 211 624 142 707 b 554 997 196 933 349 997 b 993 631 865 997 1038 810 b 599 403 961 496 865 449 b 501 363 529 390 508 382 m 244 107 b 400 242 243 169 306 242 b 531 133 474 242 531 194 b 375 -4 532 67 468 -4 b 244 107 300 -4 244 44 "},"@":{"ha":1479,"x_min":0,"x_max":0,"o":"m 856 533 b 832 556 860 547 851 556 b 690 272 732 556 675 342 b 733 240 696 253 714 240 b 778 281 754 240 768 250 l 856 533 m 88 436 b 861 899 179 735 486 899 b 1425 340 1317 899 1515 638 b 1026 65 1374 175 1224 65 b 799 160 929 65 836 101 b 579 65 742 97 658 65 b 335 249 456 65 353 129 b 821 665 303 481 518 665 b 1151 397 1096 665 1203 558 l 1101 236 b 1124 196 1093 208 1104 196 b 1286 365 1172 196 1251 254 b 847 774 1369 631 1144 774 b 217 374 538 774 285 640 b 557 -37 157 113 315 -37 b 760 -19 653 -37 722 -19 b 788 -53 782 -19 793 -33 b 504 -157 775 -97 667 -157 b 88 436 222 -157 -29 56 "},"A":{"ha":969,"x_min":0,"x_max":0,"o":"m 382 422 l 576 422 l 650 667 b 600 754 668 724 644 754 b 496 665 556 754 528 733 m -56 56 b 117 204 -40 110 69 106 l 364 717 b 701 943 438 871 528 943 b 985 636 932 943 1039 821 l 849 164 b 874 35 824 75 890 81 b 792 0 867 8 842 0 l 463 0 b 406 54 413 0 392 21 b 499 164 424 96 474 79 l 535 283 l 318 283 l 281 204 b 293 36 217 68 307 88 b 215 0 286 8 265 0 l 8 0 b -56 56 -42 0 -64 25 "},"B":{"ha":1057,"x_min":0,"x_max":0,"o":"m 788 925 b 1086 639 1015 925 1132 797 b 854 461 1056 533 967 483 b 988 213 961 431 1025 346 b 603 0 947 69 832 0 l 25 0 b -32 54 -25 0 -46 21 b 61 164 -14 96 38 81 l 231 763 b 208 892 254 846 192 844 b 290 925 215 917 240 925 m 469 125 b 624 263 546 125 593 154 b 547 399 654 371 610 399 l 478 399 l 399 125 l 469 125 m 578 540 b 725 671 651 540 696 568 b 653 800 754 774 711 800 l 590 800 l 517 540 l 578 540 "},"C":{"ha":961,"x_min":0,"x_max":0,"o":"m 876 251 b 483 -8 878 203 735 -8 b 100 546 204 -8 -8 183 b 569 939 192 847 399 939 b 822 847 681 939 757 904 l 860 876 b 981 928 910 915 938 928 b 1051 838 1038 928 1072 894 l 974 621 b 892 553 957 572 939 553 b 781 667 842 553 817 589 b 665 774 739 750 721 774 b 460 493 592 774 518 686 b 521 158 388 254 433 158 b 797 326 686 158 724 326 b 876 251 829 326 878 285 "},"D":{"ha":1072,"x_min":0,"x_max":0,"o":"m 665 925 b 1057 435 1018 925 1147 751 b 403 0 967 119 799 -1 l 25 1 b -32 56 -25 1 -46 24 b 61 165 -14 99 38 82 l 231 763 b 208 892 254 846 192 844 b 290 925 215 917 240 925 m 435 125 b 701 465 554 125 621 181 b 619 800 781 746 721 800 l 589 800 l 401 125 l 435 125 "},"E":{"ha":932,"x_min":0,"x_max":0,"o":"m 519 544 l 581 544 b 607 558 590 544 597 550 l 654 600 b 728 635 678 621 696 635 b 782 571 767 635 793 608 l 725 378 b 653 318 713 333 681 318 b 594 358 624 318 606 335 l 571 407 b 540 428 565 419 557 428 l 486 428 l 404 133 l 526 133 b 617 181 563 133 585 146 l 700 272 b 792 317 728 301 750 317 b 857 235 835 317 874 294 l 817 94 b 688 0 796 25 763 0 l 25 0 b -32 54 -25 0 -46 21 b 61 164 -14 96 38 81 l 232 763 b 208 892 256 846 192 844 b 290 925 217 917 242 925 l 907 925 b 1010 804 990 925 1032 881 l 974 675 b 892 608 960 624 936 608 b 811 671 847 608 824 625 l 789 750 b 735 792 781 782 772 792 l 589 792 "},"F":{"ha":876,"x_min":0,"x_max":0,"o":"m 33 0 b -33 50 -15 0 -40 18 b 60 164 -22 94 38 82 l 231 763 b 207 892 254 846 190 844 b 289 925 215 917 240 925 l 906 925 b 1008 804 989 925 1031 881 l 972 675 b 882 608 958 624 926 608 b 796 671 838 608 808 625 l 774 750 b 725 785 767 774 763 785 l 586 785 l 508 510 l 535 510 b 600 536 560 510 576 515 l 643 572 b 725 611 674 599 696 611 b 782 526 767 611 797 581 l 721 315 b 646 247 706 264 678 247 b 576 293 614 247 593 263 l 551 340 b 508 371 538 367 529 371 l 468 371 l 410 164 b 468 35 388 86 482 85 b 382 0 461 8 431 0 "},"G":{"ha":1051,"x_min":0,"x_max":0,"o":"m 661 108 b 411 -8 603 40 521 -8 b 107 533 183 -8 6 183 b 600 939 201 860 429 939 b 856 836 704 939 786 899 l 897 876 b 1015 928 944 917 972 928 b 1092 838 1072 928 1108 894 l 1042 663 b 958 582 1024 601 1000 582 b 840 658 915 582 885 600 b 688 765 783 733 743 765 b 471 492 614 765 531 703 b 553 176 411 282 456 176 b 660 269 613 176 640 200 l 669 304 b 643 381 685 361 671 369 l 594 399 b 564 460 563 411 558 439 b 629 494 571 482 586 494 l 1049 493 b 1092 447 1088 493 1101 476 b 1038 389 1085 418 1067 404 l 1001 368 b 971 333 982 357 975 349 l 897 76 b 824 0 878 11 853 0 l 765 0 b 675 68 725 0 694 11 l 661 108 "},"H":{"ha":1158,"x_min":0,"x_max":0,"o":"m 619 925 b 676 872 668 925 690 904 b 582 763 658 829 606 844 l 517 535 l 763 535 l 828 763 b 804 892 851 846 789 844 b 888 925 813 917 838 925 l 1214 925 b 1271 872 1263 925 1285 904 b 1176 763 1253 829 1200 844 l 1006 164 b 1031 35 982 79 1046 81 b 946 0 1021 8 996 0 l 619 0 b 563 54 571 0 550 21 b 657 164 582 96 633 81 l 724 396 l 478 396 l 411 164 b 436 35 388 79 451 81 b 351 0 426 8 401 0 l 25 0 b -32 54 -25 0 -44 21 b 63 164 -12 96 39 81 l 233 763 b 210 892 257 846 194 844 b 293 925 218 917 243 925 "},"I":{"ha":561,"x_min":0,"x_max":0,"o":"m 617 925 b 674 872 667 925 688 904 b 579 763 656 829 603 844 l 411 164 b 435 35 388 79 450 81 b 351 0 426 8 401 0 l 25 0 b -32 54 -25 0 -46 21 b 61 164 -14 96 38 81 l 231 763 b 208 892 254 846 192 844 b 290 925 215 917 240 925 "},"J":{"ha":819,"x_min":0,"x_max":0,"o":"m 247 117 b 336 228 286 117 317 158 l 488 750 b 407 892 513 835 393 838 b 481 925 413 918 435 925 l 875 925 b 932 872 924 925 946 904 b 838 763 914 829 861 844 l 701 282 b 300 -8 646 85 513 -8 b -22 282 42 -8 -64 140 b 138 408 3 371 71 408 b 258 217 246 408 286 314 b 196 131 247 179 229 151 b 247 117 211 121 226 117 "},"K":{"ha":1093,"x_min":0,"x_max":0,"o":"m 617 925 b 674 872 667 925 688 904 b 579 763 656 829 603 844 l 521 556 l 889 874 b 1017 931 936 914 972 931 b 1153 792 1093 931 1153 879 b 1007 631 1153 693 1083 631 b 888 689 956 631 921 647 l 768 589 l 903 190 b 992 35 938 86 1006 86 b 903 0 986 14 963 0 l 721 0 b 567 129 625 0 593 42 l 497 363 l 457 329 l 411 164 b 435 35 388 79 450 81 b 351 0 426 8 401 0 l 25 0 b -32 54 -25 0 -46 21 b 61 164 -14 96 38 81 l 231 763 b 208 892 254 846 192 844 b 290 925 215 917 240 925 "},"L":{"ha":904,"x_min":0,"x_max":0,"o":"m 686 300 b 796 358 719 340 749 358 b 871 269 858 358 886 325 l 825 107 b 678 0 801 28 763 0 l 25 0 b -32 54 -25 0 -44 21 b 63 164 -14 96 39 81 l 232 763 b 210 892 256 846 193 844 b 292 925 217 917 242 925 l 618 925 b 675 872 668 925 689 904 b 581 763 657 829 604 844 l 401 133 l 488 133 b 590 186 529 133 556 144 l 686 300 "},"M":{"ha":1438,"x_min":0,"x_max":0,"o":"m 254 35 b 171 0 246 8 221 0 l 56 0 b -1 54 6 0 -15 21 b 92 164 17 96 68 81 l 261 764 l 239 838 b 297 925 219 900 238 925 l 513 925 b 607 844 571 925 590 901 l 746 383 l 1122 851 b 1285 925 1172 914 1214 925 l 1492 925 b 1549 872 1542 925 1564 904 b 1456 763 1532 829 1479 844 l 1286 165 b 1310 36 1263 82 1325 82 b 1226 1 1301 11 1276 1 l 900 1 b 843 56 850 1 831 24 b 938 165 861 99 914 83 l 1043 540 l 683 94 b 550 0 626 24 597 0 b 464 94 504 0 483 29 l 333 524 l 231 164 b 254 35 207 79 269 81 "},"N":{"ha":1010,"x_min":0,"x_max":0,"o":"m 714 -6 b 553 128 635 -6 593 43 l 343 569 l 226 164 b 260 35 203 79 275 81 b 176 0 251 8 226 0 l 25 0 b -31 50 -22 0 -39 21 b 64 164 -17 97 40 81 l 240 788 l 218 833 b 260 925 188 899 213 925 l 465 925 b 582 833 528 925 550 897 l 785 426 l 881 761 b 847 890 904 846 832 844 b 931 925 856 917 881 925 l 1082 925 b 1138 875 1129 925 1146 904 b 1043 761 1124 828 1067 844 l 871 144 b 714 -6 839 32 797 -6 "},"O":{"ha":1018,"x_min":0,"x_max":0,"o":"m 79 467 b 676 946 161 782 394 946 b 1026 467 957 946 1108 782 b 426 -17 942 150 707 -17 b 79 467 146 -17 -6 150 m 660 457 b 651 810 735 721 733 810 b 440 457 568 810 515 721 b 449 107 365 199 365 107 b 660 457 531 107 583 199 "},"P":{"ha":949,"x_min":0,"x_max":0,"o":"m 553 457 b 713 629 626 457 674 493 b 653 800 751 765 711 800 l 590 800 l 492 457 l 553 457 m 749 925 b 1043 604 993 925 1094 783 b 600 332 989 414 825 332 l 457 332 l 410 164 b 468 35 388 86 481 79 b 382 0 461 8 431 0 l 33 0 b -33 50 -15 0 -40 18 b 60 164 -22 94 38 82 l 229 763 b 207 892 253 846 190 844 b 289 925 214 917 239 925 "},"Q":{"ha":1018,"x_min":0,"x_max":0,"o":"m 79 467 b 676 946 161 782 394 946 b 1026 467 957 946 1108 782 b 560 -3 956 201 779 42 b 681 -44 597 -32 636 -44 b 833 24 765 -44 804 24 b 856 -154 854 24 883 -58 b 647 -307 828 -249 756 -307 b 406 -97 543 -307 457 -251 l 378 -15 b 79 467 129 4 0 169 m 660 457 b 651 810 735 721 733 810 b 440 457 568 810 515 721 b 449 107 365 199 365 107 b 660 457 531 107 583 199 "},"R":{"ha":1054,"x_min":0,"x_max":0,"o":"m 754 925 b 1061 643 982 925 1103 796 b 824 461 1031 533 944 475 b 950 283 933 453 974 381 l 935 215 b 964 160 926 181 939 160 b 1015 121 1000 160 1021 151 b 781 -12 1006 63 933 -12 b 589 208 639 -12 551 64 l 611 297 b 526 394 629 369 603 394 l 474 394 l 410 164 b 468 35 389 89 481 79 b 382 0 461 8 431 0 l 33 0 b -33 50 -15 0 -40 18 b 60 164 -22 94 38 82 l 229 763 b 207 892 253 846 190 844 b 289 925 214 917 239 925 l 754 925 m 571 533 b 706 657 640 533 681 560 b 632 779 729 754 688 779 l 574 779 l 513 533 l 571 533 "},"S":{"ha":957,"x_min":0,"x_max":0,"o":"m 193 721 b 519 933 232 849 365 933 b 797 856 622 933 707 910 l 829 882 b 933 928 872 917 896 928 b 1001 847 985 928 1017 899 l 943 656 b 875 594 931 611 914 594 b 750 690 831 594 808 621 b 581 792 683 768 633 792 b 511 742 547 792 519 771 b 865 221 465 592 967 557 b 513 -6 819 67 675 -6 b 218 92 382 -6 306 24 l 168 50 b 61 0 122 13 99 0 b -3 86 10 0 -21 32 l 65 293 b 146 360 81 342 107 360 b 271 257 190 360 218 331 b 444 143 331 172 374 143 b 531 193 496 143 519 160 b 193 721 578 347 85 365 "},"T":{"ha":1054,"x_min":0,"x_max":0,"o":"m 839 786 l 663 165 b 688 36 640 83 703 82 b 603 1 678 11 653 1 l 276 1 b 219 56 228 1 207 24 b 314 165 239 99 290 85 l 489 786 l 457 786 b 365 740 417 786 394 775 l 319 683 b 193 608 279 636 242 608 b 129 701 139 608 114 644 l 165 828 b 303 925 186 901 208 925 l 1113 925 b 1181 814 1179 925 1203 892 l 1147 701 b 1046 608 1128 635 1103 608 b 957 683 996 608 976 636 l 933 740 b 871 786 919 775 907 786 "},"U":{"ha":1094,"x_min":0,"x_max":0,"o":"m 849 738 b 1056 931 882 856 936 931 b 1196 735 1164 931 1222 836 b 1057 619 1174 647 1111 619 b 979 632 1021 619 1003 625 l 897 331 b 465 -8 840 119 714 -8 b 142 389 210 -8 61 106 l 247 763 b 225 892 271 846 210 849 b 307 925 233 917 257 925 l 633 925 b 692 875 683 925 700 906 b 597 763 678 829 621 844 l 476 338 b 564 164 440 208 482 164 b 735 339 642 164 697 207 "},"V":{"ha":1018,"x_min":0,"x_max":0,"o":"m 457 0 b 351 119 401 0 367 33 l 235 761 b 165 874 222 829 165 838 b 226 925 161 906 178 925 l 574 925 b 638 876 617 925 639 906 b 592 764 638 836 582 826 l 644 440 l 829 768 b 1042 931 893 883 946 931 b 1182 794 1124 931 1179 881 b 1039 632 1183 688 1103 632 b 933 683 992 632 956 654 l 599 119 b 457 0 550 38 513 0 "},"W":{"ha":1589,"x_min":0,"x_max":0,"o":"m 1015 0 b 910 119 960 0 919 31 l 865 528 l 585 119 b 438 0 519 25 489 0 b 335 133 382 0 347 43 l 246 761 b 176 874 235 835 176 838 b 238 925 172 906 189 925 l 583 925 b 646 876 626 925 647 906 b 600 764 646 836 593 829 l 636 429 l 844 728 l 840 761 b 771 874 832 832 771 838 b 832 925 767 906 783 925 l 1179 925 b 1243 876 1222 925 1244 906 b 1197 764 1243 836 1193 829 l 1214 461 l 1401 789 b 1603 931 1461 893 1508 931 b 1743 794 1685 931 1740 881 b 1592 631 1744 688 1656 631 b 1494 683 1546 631 1506 658 l 1157 119 b 1015 0 1107 35 1071 0 "},"X":{"ha":1124,"x_min":0,"x_max":0,"o":"m 578 0 b 508 56 519 0 500 26 b 539 189 522 101 583 81 l 490 307 l 364 189 b 369 36 267 99 383 88 b 292 0 363 8 342 0 l 1 0 b -62 56 -49 0 -71 25 b 131 185 -47 110 15 86 l 433 444 l 308 747 b 204 889 267 847 190 831 b 275 925 210 913 229 925 l 649 925 b 718 869 707 925 726 899 b 688 736 704 824 643 843 l 726 643 l 826 736 b 821 889 925 826 807 838 b 899 925 828 917 849 925 l 1189 925 b 1253 869 1239 925 1261 900 b 1060 740 1238 815 1176 839 l 783 506 l 918 178 b 1022 36 960 78 1036 94 b 951 0 1017 13 997 0 "},"Y":{"ha":1096,"x_min":0,"x_max":0,"o":"m 319 0 b 254 50 272 0 247 18 b 347 164 265 94 324 83 l 411 381 l 283 744 b 179 896 243 857 169 846 b 235 925 183 914 201 925 l 606 925 b 692 888 671 925 690 915 b 647 774 692 844 632 833 l 711 529 l 888 781 b 1108 931 963 888 1025 931 b 1244 760 1199 931 1261 857 b 1097 629 1228 665 1164 629 b 989 678 1050 629 1018 643 l 760 379 l 696 164 b 756 35 674 88 768 79 b 669 0 747 8 718 0 "},"Z":{"ha":1019,"x_min":0,"x_max":0,"o":"m 132 0 b 13 86 51 0 14 35 b 68 194 11 122 29 154 l 633 792 l 504 792 b 414 744 468 792 446 779 l 331 653 b 239 608 303 624 281 608 b 174 690 196 608 157 631 l 214 831 b 343 925 235 900 268 925 l 982 925 b 1032 735 1085 925 1124 826 l 429 133 l 593 133 b 683 181 628 133 651 146 l 767 272 b 858 317 794 301 817 317 b 924 235 901 317 940 294 l 883 94 b 754 0 863 25 829 0 "},"[":{"ha":725,"x_min":0,"x_max":0,"o":"m 132 -235 b 49 -125 63 -235 29 -193 l 374 1028 b 483 1110 389 1083 426 1110 l 825 1110 b 872 1047 864 1110 883 1086 l 867 1026 b 806 979 858 993 838 979 l 757 979 b 694 932 725 979 703 964 l 419 -42 b 467 -104 408 -79 428 -104 l 482 -104 b 529 -167 521 -104 540 -128 l 524 -187 b 463 -235 514 -222 494 -235 "},"\\":{"ha":767,"x_min":0,"x_max":0,"o":"m 253 1026 b 319 976 289 1026 308 1010 l 636 -15 b 574 -101 651 -62 624 -101 b 501 -44 538 -101 514 -83 l 188 940 b 253 1026 172 988 203 1026 "},"]":{"ha":726,"x_min":0,"x_max":0,"o":"m 639 1110 b 722 1000 708 1110 742 1068 l 397 -153 b 288 -235 382 -208 344 -235 l -54 -235 b -101 -172 -93 -235 -112 -211 l -96 -151 b -35 -104 -87 -118 -67 -104 l 14 -104 b 76 -57 46 -104 68 -89 l 351 917 b 304 979 363 954 343 979 l 289 979 b 242 1042 250 979 231 1003 l 247 1063 b 308 1110 257 1097 276 1110 "},"^":{"ha":854,"x_min":0,"x_max":0,"o":"m 789 492 b 790 424 796 467 796 444 b 713 361 781 386 753 361 b 624 467 669 361 643 392 l 538 803 l 278 428 b 188 368 251 390 224 368 b 113 465 139 368 100 413 b 147 531 117 485 129 507 l 492 989 b 581 1049 524 1031 549 1049 b 672 942 621 1049 651 1024 "},"_":{"ha":1207,"x_min":0,"x_max":0,"o":"m 54 -199 b -18 -114 -7 -199 -33 -168 b 97 -29 -4 -60 38 -29 l 921 -29 b 994 -114 982 -29 1007 -60 b 878 -199 978 -168 940 -199 l 54 -199 "},"`":{"ha":358,"x_min":0,"x_max":0,"o":"m 279 1057 b 403 946 338 1057 376 1025 l 438 836 b 442 793 444 818 444 804 b 408 768 438 778 424 768 b 342 796 388 768 369 774 l 261 858 b 188 979 210 899 185 929 b 279 1057 190 1024 222 1057 "},"a":{"ha":908,"x_min":0,"x_max":0,"o":"m 181 572 b 496 735 179 656 268 735 b 831 392 733 735 901 636 l 774 200 b 790 164 768 178 775 164 b 835 193 817 164 825 193 b 851 161 844 193 851 176 b 633 -4 853 86 757 -4 b 439 100 539 -4 465 31 b 218 -4 383 35 306 -4 b 0 236 40 -4 -24 132 b 274 429 31 371 144 429 b 500 393 364 429 436 414 l 535 485 b 553 575 546 521 553 551 b 467 642 551 619 525 642 b 325 469 494 564 450 469 b 181 572 231 469 182 517 m 471 310 b 418 314 456 313 429 314 b 333 240 372 314 343 278 b 371 169 325 204 338 169 b 442 228 390 169 426 185 l 471 310 "},"b":{"ha":940,"x_min":0,"x_max":0,"o":"m 419 128 b 551 358 460 128 499 168 b 542 575 601 533 576 575 b 479 540 521 575 494 563 l 389 246 b 379 219 386 236 383 228 l 381 219 b 419 128 360 153 385 128 m 518 664 b 708 740 571 714 632 740 b 919 350 878 740 975 575 b 519 -12 857 101 697 -12 b 290 92 411 -12 335 26 l 240 49 b 119 0 204 18 171 0 l 58 0 b -10 86 1 0 -26 32 l 222 840 b 176 946 243 907 165 901 b 429 1026 189 990 318 1026 b 576 853 574 1026 606 946 "},"c":{"ha":753,"x_min":0,"x_max":0,"o":"m 33 394 b 504 742 86 633 282 742 b 788 560 675 742 786 663 b 646 429 789 486 736 429 b 513 614 535 429 482 504 b 349 435 440 594 371 539 b 501 207 315 283 376 207 b 683 254 603 207 654 254 b 697 236 694 254 697 250 b 361 -4 699 136 563 -4 b 33 394 128 -4 -21 151 "},"d":{"ha":910,"x_min":0,"x_max":0,"o":"m 776 200 b 793 164 769 178 778 164 b 838 193 819 164 826 193 b 853 161 847 193 853 176 b 636 -4 854 86 758 -4 b 444 92 543 -4 469 35 b 256 -4 393 26 326 -4 b 17 243 132 -4 19 93 b 394 740 13 496 165 740 b 574 685 478 740 531 719 l 621 840 b 575 947 642 907 564 901 b 828 1026 586 990 717 1026 b 975 853 972 1026 1004 949 m 544 590 b 496 610 531 603 515 610 b 332 253 410 610 329 388 b 382 176 332 203 347 176 b 436 239 407 176 422 194 "},"e":{"ha":778,"x_min":0,"x_max":0,"o":"m 458 626 b 347 414 431 626 376 557 b 481 588 442 401 482 504 b 458 626 479 614 471 626 m 33 397 b 471 742 81 632 256 742 b 800 493 765 742 826 611 b 338 331 761 322 501 307 b 489 200 336 228 403 200 b 683 244 571 200 654 244 b 699 226 693 244 699 240 b 374 -4 700 138 596 -4 b 33 397 149 -4 -22 126 "},"f":{"ha":578,"x_min":0,"x_max":0,"o":"m 196 858 b 567 1026 225 938 315 1026 b 861 849 797 1026 878 935 b 706 761 850 790 786 761 b 586 933 581 761 542 860 b 474 844 535 933 494 914 b 511 717 453 772 471 717 l 593 717 b 663 656 650 717 672 694 b 551 594 651 617 624 594 l 510 594 l 372 144 b 410 35 349 65 419 71 b 318 0 401 11 378 0 l 1 0 b -62 43 -49 0 -69 18 b 25 147 -50 82 -1 64 l 133 503 b 63 668 168 618 63 618 b 158 717 61 701 79 717 l 193 717 b 196 858 179 771 182 819 "},"g":{"ha":882,"x_min":0,"x_max":0,"o":"m 40 143 b 171 250 51 179 85 222 b 75 481 82 299 51 378 b 489 740 108 624 271 740 b 749 697 601 740 688 725 b 704 831 721 740 704 790 b 842 961 703 893 740 961 b 1025 821 931 961 1024 899 b 914 739 1025 767 988 739 b 824 760 867 739 847 749 b 846 621 813 732 825 669 b 868 456 876 576 882 521 b 457 196 835 311 675 196 b 306 207 400 196 350 200 b 286 172 294 197 289 186 b 357 121 281 149 292 121 l 565 121 b 783 -72 732 121 819 50 b 282 -278 753 -174 603 -278 b -131 -65 -31 -278 -164 -176 b 69 35 -117 -18 -76 24 b 40 143 39 64 29 101 m 289 -136 b 442 -74 365 -136 428 -115 b 397 -19 453 -43 438 -19 l 264 -19 b 193 -15 238 -19 215 -18 b 176 -71 181 -31 176 -49 b 289 -136 178 -117 214 -136 m 540 468 b 522 624 576 588 565 624 b 410 468 478 624 446 589 b 426 313 375 349 383 313 b 540 468 471 313 504 350 "},"h":{"ha":986,"x_min":0,"x_max":0,"o":"m 190 947 b 443 1026 201 990 332 1026 b 590 853 588 1026 619 949 l 515 608 b 761 735 593 710 676 735 b 936 465 903 735 983 618 l 851 192 b 867 154 843 169 851 154 b 911 183 893 154 901 183 b 926 153 921 183 926 168 b 690 -12 928 76 847 -12 b 489 143 568 -12 490 49 b 514 258 489 175 497 215 l 590 458 b 557 526 608 504 585 526 b 460 424 528 526 485 503 l 460 426 l 372 144 b 410 35 349 67 419 71 b 318 0 401 11 378 0 l 1 0 b -62 43 -49 0 -69 18 b 25 147 -50 82 0 64 l 236 840 b 190 947 257 908 179 901 "},"i":{"ha":508,"x_min":0,"x_max":0,"o":"m 108 654 b 361 735 119 699 250 735 b 507 560 506 735 536 656 l 379 144 b 417 35 356 67 426 71 b 325 0 408 11 385 0 l 8 0 b -56 43 -42 0 -62 18 b 32 147 -43 82 6 64 l 153 549 b 108 654 174 615 96 608 m 308 894 b 454 1042 308 963 365 1042 b 581 922 525 1042 579 989 b 433 771 582 849 522 771 b 308 894 363 771 310 825 "},"j":{"ha":465,"x_min":0,"x_max":0,"o":"m 126 549 b 82 654 146 615 69 608 b 335 735 93 699 224 735 b 481 560 479 735 510 656 l 310 -15 b -60 -264 253 -206 131 -264 b -199 -207 -132 -264 -210 -244 b -58 -61 -186 -165 -92 -171 m 304 890 b 458 1046 303 963 364 1046 b 589 919 532 1046 589 990 b 433 761 590 843 528 761 b 304 890 360 761 306 818 "},"k":{"ha":971,"x_min":0,"x_max":0,"o":"m 190 947 b 443 1026 201 990 332 1026 b 589 853 588 1026 618 949 l 468 458 l 514 458 b 586 524 553 458 574 482 b 824 735 629 651 694 735 b 997 561 943 735 1011 651 b 853 443 986 486 931 443 b 732 540 769 443 731 494 b 688 475 715 543 703 531 b 661 426 682 454 672 439 b 838 235 824 414 869 335 l 826 192 b 842 154 818 167 826 154 b 886 183 868 154 875 183 b 901 153 896 183 901 168 b 674 -12 903 76 829 -12 b 478 208 535 -12 433 79 l 504 278 b 463 349 521 329 510 349 l 435 349 l 372 144 b 410 35 349 67 419 71 b 318 0 401 11 378 0 l 1 0 b -62 43 -49 0 -69 18 b 25 147 -50 82 0 64 l 236 840 b 190 947 257 908 179 901 "},"l":{"ha":508,"x_min":0,"x_max":0,"o":"m 190 947 b 443 1026 201 990 332 1026 b 590 853 588 1026 619 949 l 372 144 b 410 35 349 67 419 71 b 318 0 401 11 378 0 l 1 0 b -62 43 -49 0 -69 18 b 25 147 -50 82 0 64 l 236 840 b 190 947 257 908 179 901 "},"m":{"ha":1456,"x_min":0,"x_max":0,"o":"m 364 735 b 510 594 456 735 514 683 b 767 735 592 707 678 735 b 954 567 875 735 947 667 b 1231 735 1040 703 1135 735 b 1406 465 1372 735 1453 618 l 1321 192 b 1336 154 1313 169 1321 154 b 1381 183 1363 154 1369 183 b 1396 153 1390 183 1396 168 b 1160 -12 1397 76 1317 -12 b 958 143 1038 -12 960 49 b 983 258 958 175 967 215 l 1060 458 b 1026 526 1078 504 1054 526 b 933 440 1000 526 960 506 l 857 192 b 872 154 849 169 857 154 b 917 183 899 154 907 183 b 932 153 926 183 932 168 b 696 -12 933 76 853 -12 b 494 143 574 -12 496 49 b 519 258 494 175 503 215 l 596 458 b 563 526 614 504 590 526 b 472 442 536 526 497 507 l 381 144 b 417 35 356 67 428 71 b 325 0 410 11 385 0 l 8 0 b -56 43 -42 0 -61 18 b 32 147 -43 82 6 64 l 156 549 b 111 654 175 615 99 608 b 364 735 122 699 253 735 "},"n":{"ha":994,"x_min":0,"x_max":0,"o":"m 769 735 b 944 465 911 735 992 618 l 860 192 b 875 154 851 169 860 154 b 919 183 901 154 910 183 b 935 153 929 183 935 168 b 699 -12 936 76 856 -12 b 497 143 576 -12 499 49 b 522 258 497 175 506 215 l 599 458 b 565 526 617 504 593 526 b 467 428 524 526 483 482 l 381 144 b 417 35 356 67 428 71 b 325 0 410 11 385 0 l 8 0 b -56 43 -42 0 -61 18 b 32 147 -43 82 6 64 l 156 549 b 111 654 175 615 99 608 b 364 735 122 699 253 735 b 510 590 456 735 515 682 b 769 735 592 707 679 735 "},"o":{"ha":911,"x_min":0,"x_max":0,"o":"m 25 365 b 538 735 78 585 290 735 b 894 365 854 735 940 558 b 392 -12 840 135 639 -12 b 25 365 71 -12 -22 161 m 525 364 b 533 611 594 582 568 611 b 394 363 500 611 460 572 b 386 108 324 133 351 108 b 525 364 419 106 457 143 "},"p":{"ha":960,"x_min":0,"x_max":0,"o":"m 424 114 b 565 328 464 114 511 136 b 564 546 621 526 599 546 b 493 493 553 546 522 538 l 383 131 b 424 114 394 119 408 114 m 368 735 b 514 619 450 735 506 692 b 726 740 579 703 653 740 b 938 339 910 740 996 575 b 518 -12 879 101 710 -12 b 351 28 461 -12 400 0 l 307 -121 b 342 -231 282 -196 353 -193 b 251 -264 335 -254 310 -264 l -67 -264 b -128 -222 -115 -264 -136 -246 b -43 -117 -117 -182 -67 -200 l 160 549 b 115 654 181 614 103 608 b 368 735 126 699 257 735 "},"q":{"ha":947,"x_min":0,"x_max":0,"o":"m 240 -4 b 31 386 89 -4 -33 131 b 433 735 90 625 265 735 b 672 639 546 735 615 703 l 713 672 b 832 721 749 704 781 721 l 894 721 b 961 636 951 721 978 689 l 768 0 b 796 -87 746 -74 758 -87 b 872 -78 828 -87 856 -78 b 889 -100 885 -78 889 -87 b 604 -264 890 -171 744 -264 b 407 -36 442 -264 364 -179 l 444 86 b 240 -4 394 33 329 -4 m 435 176 b 493 243 460 176 476 197 l 564 475 b 572 501 567 485 569 493 l 572 501 b 538 593 592 569 571 593 b 407 394 494 593 456 553 b 435 176 358 239 389 176 "},"r":{"ha":804,"x_min":0,"x_max":0,"o":"m 364 735 b 507 636 439 735 492 700 b 682 735 557 710 618 735 b 847 522 808 735 875 632 b 701 404 829 444 772 404 b 531 542 569 404 582 542 b 488 492 513 542 499 531 l 488 492 l 381 144 b 443 35 360 72 449 74 b 364 0 439 11 422 0 l 8 0 b -56 43 -42 0 -61 18 b 32 147 -43 82 6 64 l 156 549 b 111 654 175 615 99 608 b 364 735 122 699 253 735 "},"s":{"ha":824,"x_min":0,"x_max":0,"o":"m 92 494 b 457 747 89 643 215 747 b 831 586 690 747 826 679 b 686 474 832 521 781 474 b 526 631 582 474 499 540 b 482 638 511 635 496 638 b 403 574 438 638 401 615 b 772 196 404 443 828 436 b 382 -6 743 74 606 -6 b -17 222 107 -6 -56 79 b 110 303 0 278 49 303 b 274 113 210 303 299 225 b 338 104 296 107 313 104 b 421 178 383 104 421 131 b 92 494 418 288 94 300 "},"t":{"ha":597,"x_min":0,"x_max":0,"o":"m 301 804 b 485 886 358 861 400 886 b 567 781 560 886 586 847 l 547 717 l 621 717 b 674 656 665 717 683 694 b 590 594 663 617 635 594 l 510 594 l 406 251 b 451 164 383 178 414 164 b 536 174 488 164 517 174 b 556 151 549 174 556 164 b 240 -12 557 100 428 -12 b 43 215 89 -12 -1 78 l 132 490 b 56 679 168 604 40 615 b 136 717 63 701 82 717 l 214 717 l 301 804 "},"u":{"ha":953,"x_min":0,"x_max":0,"o":"m 388 271 b 422 203 372 225 392 203 b 499 269 461 203 481 225 l 583 549 b 540 654 604 615 526 608 b 792 735 550 699 681 735 b 938 560 938 735 968 656 l 825 192 b 840 154 818 169 825 154 b 885 183 867 154 875 183 b 901 153 894 183 901 168 b 674 -12 903 76 811 -12 b 481 108 560 -12 497 40 b 247 -4 413 32 329 -4 b 32 258 100 -4 -26 86 l 121 549 b 76 654 142 615 64 608 b 329 735 88 699 218 735 b 475 560 474 735 504 656 "},"v":{"ha":832,"x_min":0,"x_max":0,"o":"m 526 561 b 678 735 525 650 574 735 b 849 543 771 735 847 664 b 288 -12 853 288 546 -12 b 32 250 104 -12 -21 76 l 119 549 b 75 642 135 601 75 611 b 271 735 74 679 150 735 b 457 503 428 735 496 633 l 367 206 b 410 147 356 169 371 147 b 628 372 468 147 574 226 b 526 561 550 439 528 501 "},"w":{"ha":1288,"x_min":0,"x_max":0,"o":"m 982 561 b 1133 735 981 650 1029 735 b 1304 543 1226 735 1303 664 b 743 -12 1308 288 1003 -12 b 483 122 613 -12 511 33 b 239 -4 414 36 326 -4 b 42 276 92 -4 -15 83 l 119 549 b 75 642 135 601 75 611 b 271 735 74 679 150 735 b 457 503 428 735 496 633 l 386 267 b 419 203 372 225 389 203 b 496 276 453 203 474 225 l 575 549 b 531 642 590 601 531 611 b 726 735 529 679 606 735 b 913 503 883 735 953 633 l 822 206 b 867 147 811 169 828 147 b 1083 372 925 147 1029 226 b 982 561 1006 439 983 501 "},"x":{"ha":831,"x_min":0,"x_max":0,"o":"m 68 563 b 304 735 92 660 200 735 b 546 524 393 735 464 707 l 585 613 b 732 735 625 703 665 735 b 857 543 828 735 889 646 b 658 478 825 442 735 426 l 589 413 b 714 200 661 217 683 200 b 763 215 733 200 744 215 b 779 167 776 215 788 199 b 544 -4 757 71 647 -4 b 300 206 457 -4 386 13 l 265 128 b 118 -6 221 29 179 -6 b -12 186 17 -6 -44 83 b 186 251 19 288 110 303 l 256 317 b 133 531 188 514 164 531 b 86 515 114 531 104 515 b 68 563 71 515 61 532 "},"y":{"ha":861,"x_min":0,"x_max":0,"o":"m 604 622 b 736 735 628 700 679 735 b 844 393 851 735 907 600 b 128 -264 740 50 429 -264 b -96 -37 -49 -264 -128 -142 b 15 43 -79 17 -36 43 b 172 -121 101 43 157 -21 b 336 -44 236 -118 288 -92 b 185 114 243 -28 201 13 l 129 454 b 97 501 124 492 114 501 b 56 482 81 501 67 482 b 51 547 46 482 38 501 b 303 736 82 646 176 736 b 489 521 425 736 472 660 l 531 215 b 556 181 533 192 542 181 b 679 354 589 181 635 240 b 604 622 604 422 574 519 "},"z":{"ha":919,"x_min":0,"x_max":0,"o":"m 518 576 b 739 735 551 576 604 735 b 910 575 836 735 915 653 b 788 417 906 507 867 464 l 493 242 b 738 335 625 96 693 335 b 865 165 786 335 874 281 b 658 -4 858 74 779 -4 b 418 160 472 -4 447 160 b 194 -4 381 160 340 -4 b -22 165 65 -4 -28 75 b 79 297 -19 208 8 253 l 436 515 b 356 569 406 554 385 569 b 229 454 285 569 268 454 b 122 582 174 454 115 499 b 297 735 128 661 194 735 b 518 576 460 735 493 576 "},"{":{"ha":688,"x_min":0,"x_max":0,"o":"m 133 375 b 108 446 107 392 99 408 b 168 499 118 483 131 489 b 250 590 211 510 236 536 b 268 906 272 672 236 790 b 604 1126 303 1031 438 1126 b 881 983 801 1126 890 1025 b 840 958 876 965 864 958 b 738 978 811 958 776 978 b 618 872 694 978 642 956 b 601 574 592 776 624 654 b 465 449 586 515 536 471 b 461 417 431 438 431 433 b 514 264 508 392 538 346 b 393 21 488 174 418 111 b 476 -96 374 -47 404 -96 b 563 -83 511 -96 542 -83 b 588 -118 586 -83 592 -101 b 304 -253 569 -192 449 -253 b 39 14 61 -253 -1 -126 b 161 271 64 101 138 188 b 133 375 174 315 175 349 "},"|":{"ha":610,"x_min":0,"x_max":0,"o":"m 353 -82 b 281 -139 340 -124 322 -139 l 63 -139 b 7 -71 11 -139 -7 -119 l 314 1007 b 386 1064 326 1049 344 1064 l 604 1064 b 660 996 656 1064 674 1044 "},"}":{"ha":688,"x_min":0,"x_max":0,"o":"m 599 499 b 624 428 625 482 633 465 b 564 375 614 390 601 385 b 482 283 521 364 496 338 b 464 -32 460 201 496 83 b 128 -253 429 -157 294 -253 b -149 -110 -69 -253 -158 -151 b -108 -85 -144 -92 -132 -85 b -6 -104 -79 -85 -44 -104 b 114 1 38 -104 90 -82 b 131 300 140 97 108 219 b 267 425 146 358 196 403 b 271 457 301 436 301 440 b 218 610 224 482 194 528 b 339 853 244 700 314 763 b 256 969 358 921 328 969 b 169 957 221 969 190 957 b 144 992 146 957 140 975 b 428 1126 163 1065 283 1126 b 693 860 671 1126 733 1000 b 571 603 668 772 594 686 b 599 499 558 558 557 525 "},"~":{"ha":739,"x_min":0,"x_max":0,"o":"m 739 514 b 522 339 715 408 621 339 b 203 419 429 339 267 419 b 89 361 142 419 114 361 b 72 469 68 361 57 411 b 290 644 100 576 192 644 b 614 564 375 644 546 564 b 724 624 671 564 699 624 b 739 514 744 624 753 574 "}," ":{"ha":833,"x_min":0,"x_max":0,"o":""},"¡":{"ha":501,"x_min":0,"x_max":0,"o":"m 393 208 b 183 -12 399 57 308 -12 b 68 265 35 -12 -39 99 l 254 556 b 331 614 279 593 297 614 b 382 549 365 614 381 592 m 522 808 b 368 653 522 736 463 653 b 236 779 294 653 238 708 b 392 938 235 856 297 938 b 522 808 465 938 521 881 "},"¢":{"ha":764,"x_min":0,"x_max":0,"o":"m 33 394 b 468 740 83 621 261 729 l 486 807 b 568 876 501 861 532 876 b 625 793 617 876 639 842 l 607 731 b 788 560 718 706 786 640 b 646 429 789 486 736 429 b 513 614 535 429 482 504 b 349 435 440 594 371 539 b 501 207 315 283 376 207 b 683 254 603 207 654 254 b 697 236 694 254 697 250 b 408 -1 699 144 583 18 l 389 -71 b 308 -139 374 -125 343 -139 b 256 -43 257 -139 240 -97 l 268 4 b 33 394 90 42 -14 185 "},"£":{"ha":1110,"x_min":0,"x_max":0,"o":"m 575 240 b 567 214 572 231 569 222 b 626 207 588 210 608 207 b 919 364 835 207 878 364 b 1050 140 961 364 1085 279 b 776 -6 1028 51 932 -3 b 478 74 667 -7 564 21 b 247 -6 422 22 346 -6 b 1 229 51 -6 -26 114 b 188 364 21 306 85 364 b 322 326 236 364 272 349 l 349 419 l 251 419 b 197 483 206 419 186 443 b 285 547 208 524 239 547 l 356 547 b 336 732 324 599 317 665 b 760 926 372 851 513 926 b 1156 694 1071 926 1179 792 b 990 583 1139 626 1085 583 b 838 797 854 583 782 678 b 717 744 779 825 731 794 l 661 547 l 792 547 b 847 483 839 547 857 524 b 760 419 835 443 807 419 l 625 419 l 575 240 m 149 188 b 207 138 149 160 175 138 b 278 199 239 138 264 154 b 199 233 254 215 231 233 b 149 188 167 233 149 215 "},"¤":{"ha":993,"x_min":0,"x_max":0,"o":"m 904 481 b 804 296 885 408 851 346 l 831 272 b 838 165 874 232 872 199 b 728 171 804 132 771 131 l 686 208 b 446 157 618 175 536 157 b 232 208 354 157 282 175 l 147 157 b 56 165 106 131 72 132 b 99 260 40 199 56 232 l 158 297 b 156 481 139 347 138 408 b 254 664 174 553 208 614 l 214 700 b 221 794 185 728 186 761 b 318 803 254 828 289 829 l 372 751 b 615 803 442 785 524 803 b 828 751 706 803 778 785 l 911 803 b 1003 794 954 829 986 828 b 960 700 1018 761 1003 728 l 901 664 b 904 481 921 614 922 553 m 458 481 b 490 325 428 367 440 325 b 601 481 538 325 571 367 b 571 635 631 593 618 635 b 458 481 521 635 488 593 "},"¥":{"ha":1138,"x_min":0,"x_max":0,"o":"m 249 401 b 194 465 203 401 183 425 b 282 529 206 506 236 529 l 347 529 l 272 744 b 168 896 232 857 158 846 b 224 925 172 914 190 925 l 594 925 b 681 888 660 925 679 915 b 636 774 681 844 621 833 l 700 529 l 876 781 b 1097 931 951 888 1014 931 b 1233 760 1188 931 1250 857 b 1086 629 1217 665 1153 629 b 978 678 1039 629 1007 643 l 864 529 l 942 529 b 997 465 989 529 1007 506 b 910 401 985 425 957 401 l 765 401 l 749 379 l 731 321 l 900 321 b 956 257 947 321 965 297 b 868 193 943 217 915 193 l 693 193 l 685 164 b 744 35 663 88 757 79 b 658 0 736 8 707 0 l 308 0 b 243 50 261 0 236 18 b 336 164 254 94 313 83 l 344 193 l 207 193 b 153 257 161 193 142 217 b 240 321 164 297 194 321 l 382 321 l 400 381 l 393 401 l 249 401 "},"¦":{"ha":611,"x_min":0,"x_max":0,"o":"m 353 -81 b 281 -137 342 -121 322 -137 l 63 -137 b 7 -69 11 -137 -6 -115 l 117 314 b 189 371 128 354 147 371 l 407 371 b 463 303 458 371 475 349 m 551 613 b 479 556 540 572 521 556 l 261 556 b 206 624 210 556 193 578 l 315 1007 b 388 1064 326 1047 346 1064 l 606 1064 b 661 996 657 1064 674 1042 "},"§":{"ha":1003,"x_min":0,"x_max":0,"o":"m 933 804 b 811 721 918 749 864 721 b 764 799 761 721 743 749 b 704 876 782 851 751 876 b 644 839 669 876 651 863 b 658 763 638 817 642 792 l 842 463 b 908 135 904 360 944 264 b 374 -182 858 -42 618 -182 b 101 19 183 -182 74 -82 b 224 103 117 75 171 103 b 271 25 274 103 292 75 b 331 -53 253 -28 283 -53 b 390 -15 365 -53 383 -39 b 376 61 397 7 393 32 l 193 361 b 126 689 131 464 90 560 b 661 1006 176 865 417 1006 b 933 804 851 1006 961 906 m 581 -18 b 683 103 636 15 669 53 b 633 321 701 165 685 236 l 482 575 b 454 842 418 683 411 767 b 351 721 399 808 365 771 b 401 503 333 658 350 588 l 553 249 b 581 -18 617 140 624 57 "},"¨":{"ha":639,"x_min":0,"x_max":0,"o":"m 167 894 b 313 1042 167 963 224 1042 b 439 922 383 1042 438 989 b 292 771 440 849 381 771 b 167 894 221 771 168 825 m 478 894 b 624 1042 478 963 535 1042 b 750 922 694 1042 749 989 b 603 771 751 849 692 771 b 478 894 532 771 479 825 "},"©":{"ha":1090,"x_min":0,"x_max":0,"o":"m 767 318 b 525 158 767 289 679 158 b 290 499 354 158 224 276 b 578 740 346 683 474 740 b 733 683 646 740 693 718 l 756 701 b 831 733 786 725 804 733 b 874 678 865 733 886 713 l 826 546 b 775 503 817 515 804 503 b 708 572 744 503 731 525 b 636 639 682 624 671 639 b 511 465 592 639 546 585 b 549 261 467 321 494 261 b 718 364 649 261 672 364 b 767 318 736 364 767 339 m 1061 460 b 493 -17 1015 194 771 -17 b 88 472 206 -17 39 204 b 657 947 133 736 378 947 b 1061 460 943 947 1110 726 m 178 460 b 494 71 140 243 265 71 b 971 472 728 71 932 250 b 656 860 1008 688 883 860 b 178 460 421 860 217 681 "},"ª":{"ha":681,"x_min":0,"x_max":0,"o":"m 197 818 b 444 942 193 882 263 942 b 721 681 635 942 771 867 l 681 535 b 696 508 676 518 683 508 b 731 531 717 508 722 531 b 744 506 738 531 743 517 b 574 381 747 449 674 381 b 415 460 499 381 439 407 b 242 381 374 410 313 381 b 61 563 100 381 44 483 b 275 710 82 665 171 710 b 457 682 347 710 406 697 l 482 751 b 494 821 490 779 494 803 b 424 871 492 854 471 871 b 315 740 447 811 415 740 b 197 818 239 740 199 776 m 436 618 b 393 622 424 621 403 622 b 328 565 357 622 335 594 b 360 513 322 539 333 513 b 415 557 375 513 404 524 l 436 618 "},"«":{"ha":763,"x_min":0,"x_max":0,"o":"m 401 361 b 361 442 369 392 357 414 b 415 508 365 467 381 483 l 653 672 b 703 692 671 685 689 692 b 760 613 739 692 771 649 b 704 549 753 588 735 571 l 529 426 l 631 332 b 663 246 657 307 674 279 b 594 194 653 218 624 194 b 543 221 578 194 561 203 l 401 361 m 113 386 b 72 467 83 421 68 439 b 126 533 76 492 93 508 l 311 672 b 361 692 329 686 342 692 b 418 613 400 692 429 649 b 363 549 411 588 396 574 l 233 451 l 339 329 b 374 240 363 301 385 274 b 307 192 364 213 336 192 b 246 225 288 192 268 199 l 113 386 "},"¬":{"ha":957,"x_min":0,"x_max":0,"o":"m 872 668 b 946 583 933 668 961 638 l 875 335 b 774 247 858 275 819 247 b 700 357 714 247 682 289 l 739 499 l 158 499 b 86 583 97 499 71 529 b 201 668 100 638 142 668 "},"­":{"ha":833,"x_min":0,"x_max":0,"o":"m 246 404 b 174 489 185 404 158 435 b 289 574 188 543 229 574 l 613 574 b 686 489 674 574 699 543 b 569 404 669 435 632 404 l 246 404 "},"®":{"ha":718,"x_min":0,"x_max":0,"o":"m 507 826 b 604 739 579 826 617 786 b 529 683 593 704 567 686 b 568 626 564 679 576 657 l 564 606 b 572 588 561 594 565 588 b 589 576 585 588 592 586 b 515 535 586 558 564 535 b 457 604 472 535 444 558 l 463 632 b 436 661 469 654 461 661 l 421 661 l 400 590 b 418 550 393 565 422 563 b 392 539 415 540 407 539 l 283 539 b 261 554 268 539 260 544 b 290 590 265 568 283 564 l 344 776 b 338 817 351 803 332 801 b 363 826 339 825 347 826 l 507 826 m 450 704 b 493 743 472 704 485 713 b 469 782 500 775 488 782 l 451 782 l 432 704 l 450 704 m 743 671 b 390 403 715 522 563 403 b 139 678 213 403 108 528 b 492 944 167 825 319 944 b 743 671 669 944 774 819 m 203 671 b 393 461 181 554 256 461 b 679 678 533 461 656 557 b 490 886 701 794 626 886 b 203 671 349 886 226 790 "},"¯":{"ha":553,"x_min":0,"x_max":0,"o":"m 213 807 b 158 871 167 807 147 831 b 246 935 169 911 200 935 l 600 935 b 656 871 647 935 665 911 b 568 807 643 831 615 807 l 213 807 "},"°":{"ha":606,"x_min":0,"x_max":0,"o":"m 342 732 b 375 628 329 657 339 628 b 467 758 421 628 449 664 b 429 863 479 832 469 863 b 342 732 383 863 358 826 m 682 771 b 379 521 686 629 556 521 b 122 725 233 521 124 610 b 424 968 122 865 249 968 b 682 771 569 968 681 883 "},"±":{"ha":888,"x_min":0,"x_max":0,"o":"m 175 439 b 111 514 121 439 97 465 b 214 589 124 563 161 589 l 419 589 l 461 743 b 550 821 475 797 510 821 b 615 724 603 821 632 785 l 579 589 l 792 589 b 857 514 846 589 868 563 b 753 439 842 465 808 439 l 540 439 l 493 263 l 711 263 b 778 193 765 263 788 238 b 675 124 763 149 731 124 l 97 124 b 32 193 43 124 18 149 b 133 263 43 238 81 263 l 332 263 l 379 439 l 175 439 "},"²":{"ha":782,"x_min":0,"x_max":0,"o":"m 192 835 b 499 935 211 899 317 935 b 815 754 726 935 836 847 b 518 618 800 688 731 646 b 308 557 361 597 310 588 l 550 557 b 750 617 694 557 724 617 b 788 481 772 617 804 553 b 600 379 771 411 715 379 l 193 379 b 121 525 132 379 96 440 b 363 690 143 603 218 649 b 518 799 481 725 510 757 b 436 854 526 842 486 867 b 303 731 453 763 385 731 b 192 835 225 731 174 775 "},"³":{"ha":792,"x_min":0,"x_max":0,"o":"m 494 935 b 853 732 740 935 882 840 b 717 644 842 688 793 656 b 822 506 808 614 840 569 b 442 375 800 426 688 375 b 96 542 178 375 72 456 b 240 618 110 592 163 618 b 374 533 318 618 372 583 b 357 481 375 517 368 496 b 421 472 376 475 399 472 b 514 533 469 472 503 493 b 438 611 529 592 489 611 b 381 658 400 611 376 628 b 449 700 385 690 410 700 b 547 757 506 701 535 715 b 476 844 563 822 517 844 b 440 842 461 844 451 844 b 443 788 446 824 449 807 b 319 726 433 751 393 726 b 174 831 219 726 160 774 b 494 935 189 890 286 935 "},"´":{"ha":340,"x_min":0,"x_max":0,"o":"m 217 946 b 371 1057 260 1021 303 1057 b 463 951 435 1057 474 1014 b 346 839 454 906 418 874 l 225 781 b 181 769 208 774 193 769 b 157 844 147 769 129 796 "},"µ":{"ha":951,"x_min":0,"x_max":0,"o":"m 383 265 l 386 271 b 421 203 371 225 390 203 b 497 269 460 203 479 225 l 582 549 b 539 654 603 615 525 608 b 790 735 549 699 679 735 b 936 560 936 735 967 656 l 824 192 b 839 154 817 169 824 154 b 883 183 865 154 874 183 b 900 153 893 183 900 168 b 672 -12 901 76 810 -12 b 479 108 558 -12 496 40 b 303 1 428 49 365 14 l 276 -83 b 321 -189 256 -150 333 -143 b 68 -269 310 -233 179 -269 b -78 -94 -76 -269 -107 -190 l 119 549 b 75 654 140 615 63 608 b 328 735 86 699 217 735 b 474 560 472 735 503 656 "},"¶":{"ha":847,"x_min":0,"x_max":0,"o":"m 933 925 b 990 872 982 925 1004 904 b 896 763 972 829 919 846 l 664 -44 b 689 -174 639 -131 704 -128 b 604 -208 679 -200 654 -208 l 511 -208 b 481 -168 486 -208 474 -193 l 744 746 b 714 782 751 768 739 782 l 701 782 b 657 747 676 782 665 774 l 390 -178 b 350 -208 385 -197 371 -208 l 243 -208 b 186 -154 194 -208 174 -187 b 281 -44 206 -112 257 -126 l 371 271 l 308 271 b 108 625 131 271 49 415 b 499 925 168 835 319 925 "},"·":{"ha":413,"x_min":0,"x_max":0,"o":"m 90 443 b 244 599 90 515 150 599 b 376 472 318 599 375 543 b 221 314 378 396 315 314 b 90 443 147 314 92 371 "},"¸":{"ha":556,"x_min":0,"x_max":0,"o":"m 89 61 l 297 58 l 256 -60 b 383 -229 343 -60 417 -135 b 157 -347 357 -303 276 -347 b -104 -185 0 -347 -128 -251 b -85 -171 -100 -175 -93 -171 b 88 -225 -61 -171 -7 -225 b 169 -186 135 -225 161 -212 b 126 -137 179 -153 151 -137 b 54 -143 103 -137 76 -143 b 29 -106 29 -143 22 -124 "},"¹":{"ha":508,"x_min":0,"x_max":0,"o":"m 438 933 b 489 938 461 936 478 938 b 539 864 529 938 554 915 l 436 514 b 503 410 421 464 515 457 b 414 379 497 390 474 379 l 81 379 b 40 422 42 379 35 406 b 157 515 53 463 143 465 l 229 763 b 160 871 246 822 146 821 b 210 903 164 888 181 899 "},"º":{"ha":738,"x_min":0,"x_max":0,"o":"m 99 661 b 499 942 135 828 301 942 b 794 661 751 942 825 807 b 401 374 757 486 600 374 b 99 661 144 374 67 506 m 499 660 b 499 847 549 825 526 847 b 394 658 472 847 440 818 b 394 465 343 485 367 465 b 499 660 421 464 450 492 "},"»":{"ha":763,"x_min":0,"x_max":0,"o":"m 410 525 b 450 444 442 494 454 472 b 396 378 446 419 431 403 l 158 214 b 108 194 140 201 122 194 b 51 274 72 194 40 238 b 107 338 58 299 76 315 l 282 460 l 181 554 b 149 640 154 579 138 607 b 217 692 158 668 188 692 b 268 665 233 692 250 683 l 410 525 m 699 500 b 739 419 728 465 743 447 b 685 353 735 394 718 378 l 500 214 b 450 194 482 200 469 194 b 393 274 411 194 382 238 b 449 338 400 299 415 313 l 578 435 l 472 557 b 438 646 449 585 426 613 b 504 694 447 674 475 694 b 565 661 524 694 543 688 l 699 500 "},"¼":{"ha":1825,"x_min":0,"x_max":0,"o":"m 535 933 b 586 938 558 936 575 938 b 636 864 626 938 651 915 l 533 514 b 600 410 518 464 613 457 b 511 379 594 390 571 379 l 178 379 b 138 422 139 379 132 406 b 254 515 150 463 240 465 l 326 763 b 257 871 343 822 243 821 b 307 903 261 888 278 899 m 1133 982 b 1218 1026 1156 1013 1181 1026 b 1256 940 1271 1026 1292 989 l 515 -57 b 431 -101 493 -87 468 -101 b 393 -15 378 -101 357 -64 m 1036 503 b 1153 556 1051 538 1093 556 b 1367 357 1275 556 1401 461 b 1143 214 1342 285 1275 257 b 1386 235 1222 228 1294 233 l 1467 472 b 1564 524 1481 511 1506 524 l 1683 524 b 1742 467 1736 524 1756 501 l 1664 236 l 1715 236 b 1776 192 1760 236 1782 219 b 1697 150 1771 165 1750 150 l 1635 150 l 1617 99 b 1639 21 1600 47 1649 49 b 1574 0 1633 6 1613 0 l 1318 0 b 1264 31 1278 0 1260 13 b 1339 99 1274 58 1321 49 l 1356 149 b 1007 128 1190 143 1099 128 b 939 182 957 128 928 151 b 1101 321 957 235 1078 250 b 1036 503 1128 389 1013 443 "},"½":{"ha":1706,"x_min":0,"x_max":0,"o":"m 535 933 b 586 938 558 936 575 938 b 636 864 626 938 651 915 l 533 514 b 600 410 518 464 613 457 b 511 379 594 390 571 379 l 178 379 b 138 422 139 379 132 406 b 254 515 150 463 240 465 l 326 763 b 257 871 343 822 243 821 b 307 903 261 888 278 899 m 1133 982 b 1218 1026 1156 1013 1181 1026 b 1256 940 1271 1026 1292 989 l 515 -57 b 431 -101 493 -87 468 -101 b 393 -15 378 -101 357 -64 m 1032 456 b 1339 556 1051 519 1157 556 b 1656 375 1567 556 1676 468 b 1358 239 1640 308 1571 267 b 1149 178 1201 218 1150 208 l 1390 178 b 1590 238 1535 178 1564 238 b 1628 101 1613 238 1644 174 b 1440 0 1611 32 1556 0 l 1033 0 b 961 146 972 0 936 61 b 1203 311 983 224 1058 269 b 1358 419 1321 346 1350 378 b 1276 475 1367 463 1326 488 b 1143 351 1293 383 1225 351 b 1032 456 1065 351 1014 396 "},"¾":{"ha":1932,"x_min":0,"x_max":0,"o":"m 1240 982 b 1325 1026 1263 1013 1288 1026 b 1363 940 1378 1026 1399 989 l 622 -57 b 538 -101 600 -87 575 -101 b 500 -15 485 -101 464 -64 m 1143 503 b 1260 556 1158 538 1200 556 b 1474 357 1382 556 1508 461 b 1250 214 1449 285 1382 257 b 1493 235 1329 228 1401 233 l 1574 472 b 1671 524 1588 511 1613 524 l 1790 524 b 1849 467 1843 524 1863 501 l 1771 236 l 1822 236 b 1883 192 1867 236 1889 219 b 1804 150 1878 165 1857 150 l 1742 150 l 1724 99 b 1746 21 1707 47 1756 49 b 1681 0 1740 6 1719 0 l 1425 0 b 1371 31 1385 0 1367 13 b 1446 99 1381 58 1428 49 l 1463 149 b 1114 128 1297 143 1206 128 b 1046 182 1064 128 1035 151 b 1208 321 1064 235 1185 250 b 1143 503 1235 389 1119 443 m 494 935 b 853 732 740 935 882 840 b 717 644 842 688 793 656 b 822 506 808 614 840 569 b 442 375 800 426 688 375 b 96 542 178 375 72 456 b 240 618 110 592 163 618 b 374 533 318 618 372 583 b 357 481 375 517 368 496 b 421 472 376 475 399 472 b 514 533 469 472 503 493 b 438 611 529 592 489 611 b 381 658 400 611 376 628 b 449 700 385 690 410 700 b 547 757 506 701 535 715 b 476 844 563 822 517 844 b 440 842 461 844 451 844 b 443 788 446 824 449 807 b 319 726 433 751 393 726 b 174 831 219 726 160 774 b 494 935 189 890 286 935 "},"¿":{"ha":940,"x_min":0,"x_max":0,"o":"m 478 436 b 468 467 481 447 475 457 b 456 493 457 479 454 486 b 521 525 461 511 492 525 b 663 372 622 525 688 460 b 339 64 621 233 381 224 b 435 -69 315 -32 388 -69 b 503 -58 460 -69 481 -67 b 492 64 486 -12 485 35 b 650 175 511 132 564 175 b 811 -14 768 175 838 92 b 425 -199 783 -135 631 -199 b -14 168 114 -199 -58 -11 b 381 396 18 303 114 350 b 478 436 450 408 471 417 m 735 692 b 579 557 736 629 674 557 b 449 665 506 557 449 604 b 604 803 447 732 511 803 b 735 692 679 803 735 754 "},"À":{"ha":969,"x_min":0,"x_max":0,"o":"m 382 422 l 576 422 l 650 667 b 600 754 668 724 644 754 b 496 665 556 754 528 733 m -56 56 b 117 204 -40 110 69 106 l 364 717 b 701 943 438 871 528 943 b 985 636 932 943 1039 821 l 849 164 b 874 35 824 75 890 81 b 792 0 867 8 842 0 l 463 0 b 406 54 413 0 392 21 b 499 164 424 96 474 79 l 535 283 l 318 283 l 281 204 b 293 36 217 68 307 88 b 215 0 286 8 265 0 l 8 0 b -56 56 -42 0 -64 25 m 647 1267 b 771 1156 706 1267 744 1235 l 806 1046 b 810 1003 813 1028 813 1014 b 776 978 806 988 792 978 b 710 1006 756 978 738 983 l 629 1068 b 556 1189 578 1108 553 1139 b 647 1267 558 1233 590 1267 "},"Á":{"ha":969,"x_min":0,"x_max":0,"o":"m 382 422 l 576 422 l 650 667 b 600 754 668 724 644 754 b 496 665 556 754 528 733 m -56 56 b 117 204 -40 110 69 106 l 364 717 b 701 943 438 871 528 943 b 985 636 932 943 1039 821 l 849 164 b 874 35 824 75 890 81 b 792 0 867 8 842 0 l 463 0 b 406 54 413 0 392 21 b 499 164 424 96 474 79 l 535 283 l 318 283 l 281 204 b 293 36 217 68 307 88 b 215 0 286 8 265 0 l 8 0 b -56 56 -42 0 -64 25 m 814 1156 b 968 1267 857 1231 900 1267 b 1060 1161 1032 1267 1071 1224 b 943 1049 1051 1115 1015 1083 l 822 990 b 778 979 806 983 790 979 b 754 1054 744 979 726 1006 "},"Â":{"ha":969,"x_min":0,"x_max":0,"o":"m 382 422 l 576 422 l 650 667 b 600 754 668 724 644 754 b 496 665 556 754 528 733 m -56 56 b 117 204 -40 110 69 106 l 364 717 b 701 943 438 871 528 943 b 985 636 932 943 1039 821 l 849 164 b 874 35 824 75 890 81 b 792 0 867 8 842 0 l 463 0 b 406 54 413 0 392 21 b 499 164 424 96 474 79 l 535 283 l 318 283 l 281 204 b 293 36 217 68 307 88 b 215 0 286 8 265 0 l 8 0 b -56 56 -42 0 -64 25 m 986 1074 b 943 976 1014 1008 981 976 b 815 1074 897 976 858 1015 l 804 1088 l 743 1047 b 596 986 689 1013 633 986 b 590 1083 549 986 546 1040 l 732 1217 b 925 1211 797 1279 886 1300 "},"Ã":{"ha":969,"x_min":0,"x_max":0,"o":"m 382 422 l 576 422 l 650 667 b 600 754 668 724 644 754 b 496 665 556 754 528 733 m -56 56 b 117 204 -40 110 69 106 l 364 717 b 701 943 438 871 528 943 b 985 636 932 943 1039 821 l 849 164 b 874 35 824 75 890 81 b 792 0 867 8 842 0 l 463 0 b 406 54 413 0 392 21 b 499 164 424 96 474 79 l 535 283 l 318 283 l 281 204 b 293 36 217 68 307 88 b 215 0 286 8 265 0 l 8 0 b -56 56 -42 0 -64 25 m 1000 1136 b 821 992 979 1049 903 992 b 644 1058 746 992 693 1058 b 554 1010 597 1058 575 1010 b 540 1100 536 1010 528 1051 b 721 1244 563 1188 639 1244 b 897 1178 790 1244 849 1178 b 988 1226 944 1178 967 1226 b 1000 1136 1006 1226 1014 1185 "},"Ä":{"ha":969,"x_min":0,"x_max":0,"o":"m 382 422 l 576 422 l 650 667 b 600 754 668 724 644 754 b 496 665 556 754 528 733 m -56 56 b 117 204 -40 110 69 106 l 364 717 b 701 943 438 871 528 943 b 985 636 932 943 1039 821 l 849 164 b 874 35 824 75 890 81 b 792 0 867 8 842 0 l 463 0 b 406 54 413 0 392 21 b 499 164 424 96 474 79 l 535 283 l 318 283 l 281 204 b 293 36 217 68 307 88 b 215 0 286 8 265 0 l 8 0 b -56 56 -42 0 -64 25 m 501 1104 b 647 1251 501 1172 558 1251 b 774 1132 718 1251 772 1199 b 626 981 775 1058 715 981 b 501 1104 556 981 503 1035 m 813 1104 b 958 1251 813 1172 869 1251 b 1085 1132 1029 1251 1083 1199 b 938 981 1086 1058 1026 981 b 813 1104 867 981 814 1035 "},"Å":{"ha":969,"x_min":0,"x_max":0,"o":"m 382 422 l 576 422 l 650 667 b 600 754 668 724 644 754 b 496 665 556 754 528 733 m -56 56 b 117 204 -40 110 69 106 l 364 717 b 701 943 438 871 528 943 b 985 636 932 943 1039 821 l 849 164 b 874 35 824 75 890 81 b 792 0 867 8 842 0 l 463 0 b 406 54 413 0 392 21 b 499 164 424 96 474 79 l 535 283 l 318 283 l 281 204 b 293 36 217 68 307 88 b 215 0 286 8 265 0 l 8 0 b -56 56 -42 0 -64 25 m 985 1146 b 800 981 986 1051 907 981 b 643 1115 711 981 644 1039 b 826 1275 643 1207 721 1275 b 985 1146 915 1275 983 1219 m 782 1121 b 796 1056 772 1074 776 1056 b 847 1136 819 1056 835 1079 b 832 1200 857 1182 853 1200 b 782 1121 808 1200 793 1178 "},"Æ":{"ha":1369,"x_min":0,"x_max":0,"o":"m 383 422 l 576 422 l 646 656 b 596 743 663 713 640 743 b 492 654 551 743 524 722 m 1344 925 b 1447 804 1428 925 1469 881 l 1411 675 b 1329 608 1397 624 1374 608 b 1249 671 1285 608 1261 625 l 1226 750 b 1172 792 1218 782 1210 792 l 1028 792 l 957 544 l 1018 544 b 1044 558 1028 544 1035 550 l 1092 600 b 1165 635 1115 621 1133 635 b 1219 571 1204 635 1231 608 l 1163 378 b 1090 318 1150 333 1118 318 b 1032 358 1061 318 1043 335 l 1008 407 b 978 428 1003 419 994 428 l 924 428 l 840 133 l 964 133 b 1054 181 1000 133 1022 146 l 1138 272 b 1229 317 1165 301 1188 317 b 1294 235 1272 317 1311 294 l 1254 94 b 1125 0 1233 25 1200 0 l 463 0 b 406 54 413 0 392 21 b 499 164 424 96 474 79 l 535 283 l 318 283 l 281 204 b 293 36 217 67 307 88 b 215 0 286 8 265 0 l 8 0 b -56 56 -42 0 -64 25 b 117 204 -40 110 68 106 l 358 699 b 696 925 444 874 522 925 "},"Ç":{"ha":961,"x_min":0,"x_max":0,"o":"m 876 251 b 529 -6 878 206 751 17 l 510 -60 b 638 -229 597 -60 671 -135 b 411 -347 611 -303 531 -347 b 150 -185 254 -347 126 -251 b 169 -171 154 -175 161 -171 b 342 -225 193 -171 247 -225 b 424 -186 389 -225 415 -212 b 381 -137 433 -153 406 -137 b 308 -143 357 -137 331 -143 b 283 -106 283 -143 276 -124 l 326 14 b 100 546 132 75 14 256 b 569 939 192 847 399 939 b 822 847 681 939 757 904 l 860 876 b 981 928 910 915 938 928 b 1051 838 1038 928 1072 894 l 974 621 b 892 553 957 572 939 553 b 781 667 842 553 817 589 b 665 774 739 750 721 774 b 460 493 592 774 518 686 b 521 158 388 254 433 158 b 797 326 686 158 724 326 b 876 251 829 326 878 285 "},"È":{"ha":932,"x_min":0,"x_max":0,"o":"m 519 544 l 581 544 b 607 558 590 544 597 550 l 654 600 b 728 635 678 621 696 635 b 782 571 767 635 793 608 l 725 378 b 653 318 713 333 681 318 b 594 358 624 318 606 335 l 571 407 b 540 428 565 419 557 428 l 486 428 l 404 133 l 526 133 b 617 181 563 133 585 146 l 700 272 b 792 317 728 301 750 317 b 857 235 835 317 874 294 l 817 94 b 688 0 796 25 763 0 l 25 0 b -32 54 -25 0 -46 21 b 61 164 -14 96 38 81 l 232 763 b 208 892 256 846 192 844 b 290 925 217 917 242 925 l 907 925 b 1010 804 990 925 1032 881 l 974 675 b 892 608 960 624 936 608 b 811 671 847 608 824 625 l 789 750 b 735 792 781 782 772 792 l 589 792 m 514 1267 b 638 1156 572 1267 611 1235 l 672 1046 b 676 1003 679 1028 679 1014 b 643 978 672 988 658 978 b 576 1006 622 978 604 983 l 496 1068 b 422 1189 444 1108 419 1139 b 514 1267 425 1233 457 1267 "},"É":{"ha":932,"x_min":0,"x_max":0,"o":"m 519 544 l 581 544 b 607 558 590 544 597 550 l 654 600 b 728 635 678 621 696 635 b 782 571 767 635 793 608 l 725 378 b 653 318 713 333 681 318 b 594 358 624 318 606 335 l 571 407 b 540 428 565 419 557 428 l 486 428 l 404 133 l 526 133 b 617 181 563 133 585 146 l 700 272 b 792 317 728 301 750 317 b 857 235 835 317 874 294 l 817 94 b 688 0 796 25 763 0 l 25 0 b -32 54 -25 0 -46 21 b 61 164 -14 96 38 81 l 232 763 b 208 892 256 846 192 844 b 290 925 217 917 242 925 l 907 925 b 1010 804 990 925 1032 881 l 974 675 b 892 608 960 624 936 608 b 811 671 847 608 824 625 l 789 750 b 735 792 781 782 772 792 l 589 792 m 681 1156 b 835 1267 724 1231 767 1267 b 926 1161 899 1267 938 1224 b 810 1049 918 1115 882 1083 l 689 990 b 644 979 672 983 657 979 b 621 1054 611 979 593 1006 "},"Ê":{"ha":932,"x_min":0,"x_max":0,"o":"m 519 544 l 581 544 b 607 558 590 544 597 550 l 654 600 b 728 635 678 621 696 635 b 782 571 767 635 793 608 l 725 378 b 653 318 713 333 681 318 b 594 358 624 318 606 335 l 571 407 b 540 428 565 419 557 428 l 486 428 l 404 133 l 526 133 b 617 181 563 133 585 146 l 700 272 b 792 317 728 301 750 317 b 857 235 835 317 874 294 l 817 94 b 688 0 796 25 763 0 l 25 0 b -32 54 -25 0 -46 21 b 61 164 -14 96 38 81 l 232 763 b 208 892 256 846 192 844 b 290 925 217 917 242 925 l 907 925 b 1010 804 990 925 1032 881 l 974 675 b 892 608 960 624 936 608 b 811 671 847 608 824 625 l 789 750 b 735 792 781 782 772 792 l 589 792 m 853 1074 b 810 976 881 1008 847 976 b 682 1074 764 976 725 1015 l 671 1088 l 610 1047 b 463 986 556 1013 500 986 b 457 1083 415 986 413 1040 l 599 1217 b 792 1211 664 1279 753 1300 "},"Ë":{"ha":932,"x_min":0,"x_max":0,"o":"m 519 544 l 581 544 b 607 558 590 544 597 550 l 654 600 b 728 635 678 621 696 635 b 782 571 767 635 793 608 l 725 378 b 653 318 713 333 681 318 b 594 358 624 318 606 335 l 571 407 b 540 428 565 419 557 428 l 486 428 l 404 133 l 526 133 b 617 181 563 133 585 146 l 700 272 b 792 317 728 301 750 317 b 857 235 835 317 874 294 l 817 94 b 688 0 796 25 763 0 l 25 0 b -32 54 -25 0 -46 21 b 61 164 -14 96 38 81 l 232 763 b 208 892 256 846 192 844 b 290 925 217 917 242 925 l 907 925 b 1010 804 990 925 1032 881 l 974 675 b 892 608 960 624 936 608 b 811 671 847 608 824 625 l 789 750 b 735 792 781 782 772 792 l 589 792 m 368 1104 b 514 1251 368 1172 425 1251 b 640 1132 585 1251 639 1199 b 493 981 642 1058 582 981 b 368 1104 422 981 369 1035 m 679 1104 b 825 1251 679 1172 736 1251 b 951 1132 896 1251 950 1199 b 804 981 953 1058 893 981 b 679 1104 733 981 681 1035 "},"Ì":{"ha":561,"x_min":0,"x_max":0,"o":"m 617 925 b 674 872 667 925 688 904 b 579 763 656 829 603 844 l 411 164 b 435 35 388 79 450 81 b 351 0 426 8 401 0 l 25 0 b -32 54 -25 0 -46 21 b 61 164 -14 96 38 81 l 231 763 b 208 892 254 846 192 844 b 290 925 215 917 240 925 m 347 1267 b 471 1156 406 1267 444 1235 l 506 1046 b 510 1003 513 1028 513 1014 b 476 978 506 988 492 978 b 410 1006 456 978 438 983 l 329 1068 b 256 1189 278 1108 253 1139 b 347 1267 258 1233 290 1267 "},"Í":{"ha":561,"x_min":0,"x_max":0,"o":"m 617 925 b 674 872 667 925 688 904 b 579 763 656 829 603 844 l 411 164 b 435 35 388 79 450 81 b 351 0 426 8 401 0 l 25 0 b -32 54 -25 0 -46 21 b 61 164 -14 96 38 81 l 231 763 b 208 892 254 846 192 844 b 290 925 215 917 240 925 m 514 1156 b 668 1267 557 1231 600 1267 b 760 1161 732 1267 771 1224 b 643 1049 751 1115 715 1083 l 522 990 b 478 979 506 983 490 979 b 454 1054 444 979 426 1006 "},"Î":{"ha":561,"x_min":0,"x_max":0,"o":"m 617 925 b 674 872 667 925 688 904 b 579 763 656 829 603 844 l 411 164 b 435 35 388 79 450 81 b 351 0 426 8 401 0 l 25 0 b -32 54 -25 0 -46 21 b 61 164 -14 96 38 81 l 231 763 b 208 892 254 846 192 844 b 290 925 215 917 240 925 m 686 1074 b 643 976 714 1008 681 976 b 515 1074 597 976 558 1015 l 504 1088 l 443 1047 b 296 986 389 1013 333 986 b 290 1083 249 986 246 1040 l 432 1217 b 625 1211 497 1279 586 1300 "},"Ï":{"ha":561,"x_min":0,"x_max":0,"o":"m 617 925 b 674 872 667 925 688 904 b 579 763 656 829 603 844 l 411 164 b 435 35 388 79 450 81 b 351 0 426 8 401 0 l 25 0 b -32 54 -25 0 -46 21 b 61 164 -14 96 38 81 l 231 763 b 208 892 254 846 192 844 b 290 925 215 917 240 925 m 201 1104 b 347 1251 201 1172 258 1251 b 474 1132 418 1251 472 1199 b 326 981 475 1058 415 981 b 201 1104 256 981 203 1035 m 513 1104 b 658 1251 513 1172 569 1251 b 785 1132 729 1251 783 1199 b 638 981 786 1058 726 981 b 513 1104 567 981 514 1035 "},"Ð":{"ha":1056,"x_min":0,"x_max":0,"o":"m 649 925 b 1040 435 1001 925 1131 751 b 386 0 950 119 782 -1 l 8 1 b -49 56 -42 1 -62 24 b 44 165 -31 99 21 82 l 107 386 l 53 382 b -1 446 7 378 -12 406 b 86 510 10 486 40 506 l 143 515 l 214 763 b 192 892 238 846 175 844 b 274 925 199 917 224 925 m 418 125 b 685 465 538 125 604 181 b 603 800 764 746 704 800 l 572 800 l 501 546 l 576 553 b 632 489 624 557 642 529 b 544 425 619 449 592 429 l 467 418 l 385 125 l 418 125 "},"Ñ":{"ha":1010,"x_min":0,"x_max":0,"o":"m 714 -6 b 553 128 635 -6 593 43 l 343 569 l 226 164 b 260 35 203 79 275 81 b 176 0 251 8 226 0 l 25 0 b -31 50 -22 0 -39 21 b 64 164 -17 97 40 81 l 240 788 l 218 833 b 260 925 188 899 213 925 l 465 925 b 582 833 528 925 550 897 l 785 426 l 881 761 b 847 890 904 846 832 844 b 931 925 856 917 881 925 l 1082 925 b 1138 875 1129 925 1146 904 b 1043 761 1124 828 1067 844 l 871 144 b 714 -6 839 32 797 -6 m 924 1136 b 744 992 903 1049 826 992 b 568 1058 669 992 617 1058 b 478 1010 521 1058 499 1010 b 464 1100 460 1010 451 1051 b 644 1244 486 1188 563 1244 b 821 1178 714 1244 772 1178 b 911 1226 868 1178 890 1226 b 924 1136 929 1226 938 1185 "},"Ò":{"ha":1018,"x_min":0,"x_max":0,"o":"m 79 467 b 676 946 161 782 394 946 b 1026 467 957 946 1108 782 b 426 -17 942 150 707 -17 b 79 467 146 -17 -6 150 m 660 457 b 651 810 735 721 733 810 b 440 457 568 810 515 721 b 449 107 365 199 365 107 b 660 457 531 107 583 199 m 574 1267 b 697 1156 632 1267 671 1235 l 732 1046 b 736 1003 739 1028 739 1014 b 703 978 732 988 718 978 b 636 1006 682 978 664 983 l 556 1068 b 482 1189 504 1108 479 1139 b 574 1267 485 1233 517 1267 "},"Ó":{"ha":1018,"x_min":0,"x_max":0,"o":"m 79 467 b 676 946 161 782 394 946 b 1026 467 957 946 1108 782 b 426 -17 942 150 707 -17 b 79 467 146 -17 -6 150 m 660 457 b 651 810 735 721 733 810 b 440 457 568 810 515 721 b 449 107 365 199 365 107 b 660 457 531 107 583 199 m 740 1156 b 894 1267 783 1231 826 1267 b 986 1161 958 1267 997 1224 b 869 1049 978 1115 942 1083 l 749 990 b 704 979 732 983 717 979 b 681 1054 671 979 653 1006 "},"Ô":{"ha":1018,"x_min":0,"x_max":0,"o":"m 79 467 b 676 946 161 782 394 946 b 1026 467 957 946 1108 782 b 426 -17 942 150 707 -17 b 79 467 146 -17 -6 150 m 660 457 b 651 810 735 721 733 810 b 440 457 568 810 515 721 b 449 107 365 199 365 107 b 660 457 531 107 583 199 m 913 1074 b 869 976 940 1008 907 976 b 742 1074 824 976 785 1015 l 731 1088 l 669 1047 b 522 986 615 1013 560 986 b 517 1083 475 986 472 1040 l 658 1217 b 851 1211 724 1279 813 1300 "},"Õ":{"ha":1018,"x_min":0,"x_max":0,"o":"m 79 467 b 676 946 161 782 394 946 b 1026 467 957 946 1108 782 b 426 -17 942 150 707 -17 b 79 467 146 -17 -6 150 m 660 457 b 651 810 735 721 733 810 b 440 457 568 810 515 721 b 449 107 365 199 365 107 b 660 457 531 107 583 199 m 983 1136 b 804 992 963 1049 886 992 b 628 1058 729 992 676 1058 b 538 1010 581 1058 558 1010 b 524 1100 519 1010 511 1051 b 704 1244 546 1188 622 1244 b 881 1178 774 1244 832 1178 b 971 1226 928 1178 950 1226 b 983 1136 989 1226 997 1185 "},"Ö":{"ha":1018,"x_min":0,"x_max":0,"o":"m 79 467 b 676 946 161 782 394 946 b 1026 467 957 946 1108 782 b 426 -17 942 150 707 -17 b 79 467 146 -17 -6 150 m 660 457 b 651 810 735 721 733 810 b 440 457 568 810 515 721 b 449 107 365 199 365 107 b 660 457 531 107 583 199 m 428 1104 b 574 1251 428 1172 485 1251 b 700 1132 644 1251 699 1199 b 553 981 701 1058 642 981 b 428 1104 482 981 429 1035 m 739 1104 b 885 1251 739 1172 796 1251 b 1011 1132 956 1251 1010 1199 b 864 981 1013 1058 953 981 b 739 1104 793 981 740 1035 "},"×":{"ha":921,"x_min":0,"x_max":0,"o":"m 378 485 l 254 613 b 213 717 218 650 201 676 b 283 769 221 749 249 769 b 363 725 311 769 333 754 l 511 572 l 776 743 b 851 771 804 761 829 771 b 919 676 900 771 933 725 b 860 611 911 649 894 633 l 622 457 l 749 328 b 790 222 785 290 800 257 b 721 172 781 190 750 172 b 635 221 696 172 668 188 l 489 371 l 225 200 b 150 172 199 182 175 172 b 83 265 100 172 69 218 b 142 332 90 289 107 308 "},"Ø":{"ha":1061,"x_min":0,"x_max":0,"o":"m 64 -10 b 11 68 31 -10 4 35 b 56 133 15 92 26 110 l 97 168 b 96 467 65 244 63 344 b 693 946 178 782 411 946 b 960 869 804 946 894 919 l 1015 915 b 1068 939 1035 931 1050 939 b 1126 858 1113 939 1133 890 b 1085 800 1122 833 1108 819 l 1040 764 b 1043 467 1072 688 1075 589 b 443 -17 958 150 724 -17 b 178 60 333 -17 242 10 l 122 14 b 64 -10 104 0 88 -10 m 668 810 b 458 461 585 810 532 721 l 728 681 b 668 810 739 774 719 810 m 676 457 b 681 469 676 457 676 457 l 407 246 b 465 107 392 146 411 107 b 676 457 547 107 600 199 "},"Ù":{"ha":1094,"x_min":0,"x_max":0,"o":"m 849 738 b 1056 931 882 856 936 931 b 1196 735 1164 931 1222 836 b 1057 619 1174 647 1111 619 b 979 632 1021 619 1003 625 l 897 331 b 465 -8 840 119 714 -8 b 142 389 210 -8 61 106 l 247 763 b 225 892 271 846 210 849 b 307 925 233 917 257 925 l 633 925 b 692 875 683 925 700 906 b 597 763 678 829 621 844 l 476 338 b 564 164 440 208 482 164 b 735 339 642 164 697 207 m 651 1267 b 775 1156 710 1267 749 1235 l 810 1046 b 814 1003 817 1028 817 1014 b 781 978 810 988 796 978 b 714 1006 760 978 742 983 l 633 1068 b 560 1189 582 1108 557 1139 b 651 1267 563 1233 594 1267 "},"Ú":{"ha":1094,"x_min":0,"x_max":0,"o":"m 849 738 b 1056 931 882 856 936 931 b 1196 735 1164 931 1222 836 b 1057 619 1174 647 1111 619 b 979 632 1021 619 1003 625 l 897 331 b 465 -8 840 119 714 -8 b 142 389 210 -8 61 106 l 247 763 b 225 892 271 846 210 849 b 307 925 233 917 257 925 l 633 925 b 692 875 683 925 700 906 b 597 763 678 829 621 844 l 476 338 b 564 164 440 208 482 164 b 735 339 642 164 697 207 m 818 1156 b 972 1267 861 1231 904 1267 b 1064 1161 1036 1267 1075 1224 b 947 1049 1056 1115 1019 1083 l 826 990 b 782 979 810 983 794 979 b 758 1054 749 979 731 1006 "},"Û":{"ha":1094,"x_min":0,"x_max":0,"o":"m 849 738 b 1056 931 882 856 936 931 b 1196 735 1164 931 1222 836 b 1057 619 1174 647 1111 619 b 979 632 1021 619 1003 625 l 897 331 b 465 -8 840 119 714 -8 b 142 389 210 -8 61 106 l 247 763 b 225 892 271 846 210 849 b 307 925 233 917 257 925 l 633 925 b 692 875 683 925 700 906 b 597 763 678 829 621 844 l 476 338 b 564 164 440 208 482 164 b 735 339 642 164 697 207 m 990 1074 b 947 976 1018 1008 985 976 b 819 1074 901 976 863 1015 l 808 1088 l 747 1047 b 600 986 693 1013 638 986 b 594 1083 553 986 550 1040 l 736 1217 b 929 1211 801 1279 890 1300 "},"Ü":{"ha":1094,"x_min":0,"x_max":0,"o":"m 849 738 b 1056 931 882 856 936 931 b 1196 735 1164 931 1222 836 b 1057 619 1174 647 1111 619 b 979 632 1021 619 1003 625 l 897 331 b 465 -8 840 119 714 -8 b 142 389 210 -8 61 106 l 247 763 b 225 892 271 846 210 849 b 307 925 233 917 257 925 l 633 925 b 692 875 683 925 700 906 b 597 763 678 829 621 844 l 476 338 b 564 164 440 208 482 164 b 735 339 642 164 697 207 m 506 1104 b 651 1251 506 1172 563 1251 b 778 1132 722 1251 776 1199 b 631 981 779 1058 719 981 b 506 1104 560 981 507 1035 m 817 1104 b 963 1251 817 1172 874 1251 b 1089 1132 1033 1251 1088 1199 b 942 981 1090 1058 1031 981 b 817 1104 871 981 818 1035 "},"Ý":{"ha":1096,"x_min":0,"x_max":0,"o":"m 319 0 b 254 50 272 0 247 18 b 347 164 265 94 324 83 l 411 381 l 283 744 b 179 896 243 857 169 846 b 235 925 183 914 201 925 l 606 925 b 692 888 671 925 690 915 b 647 774 692 844 632 833 l 711 529 l 888 781 b 1108 931 963 888 1025 931 b 1244 760 1199 931 1261 857 b 1097 629 1228 665 1164 629 b 989 678 1050 629 1018 643 l 760 379 l 696 164 b 756 35 674 88 768 79 b 669 0 747 8 718 0 m 821 1156 b 975 1267 864 1231 907 1267 b 1067 1161 1039 1267 1078 1224 b 950 1049 1058 1115 1022 1083 l 829 990 b 785 979 813 983 797 979 b 761 1054 751 979 733 1006 "},"Þ":{"ha":963,"x_min":0,"x_max":0,"o":"m 532 594 l 463 349 l 536 349 b 674 472 606 349 650 389 b 606 594 697 556 675 594 m 617 925 b 674 872 667 925 688 904 b 579 763 656 829 603 844 l 567 719 l 744 719 b 1019 451 988 719 1064 611 b 604 224 975 292 847 224 l 428 224 l 411 164 b 435 35 388 79 450 81 b 351 0 426 8 401 0 l 25 0 b -32 54 -25 0 -46 21 b 61 164 -14 96 38 81 l 231 763 b 208 892 254 846 192 844 b 290 925 215 917 240 925 "},"ß":{"ha":1000,"x_min":0,"x_max":0,"o":"m 993 682 b 624 925 1032 803 904 925 b 178 654 382 925 240 861 l 24 147 b -64 43 -1 64 -51 82 b 0 0 -71 18 -50 0 l 317 0 b 408 35 376 0 400 11 b 371 144 418 71 347 67 l 546 714 b 635 815 569 792 599 815 b 669 715 667 815 690 783 b 556 525 638 613 569 575 b 622 269 539 467 665 408 b 522 188 606 215 564 188 b 465 200 489 188 474 200 b 444 174 457 200 450 190 b 658 -6 419 89 496 -6 b 961 211 807 -6 928 82 b 818 553 1017 426 807 515 b 993 682 826 582 965 594 "},"à":{"ha":908,"x_min":0,"x_max":0,"o":"m 181 572 b 496 735 179 656 268 735 b 831 392 733 735 901 636 l 774 200 b 790 164 768 178 775 164 b 835 193 817 164 825 193 b 851 161 844 193 851 176 b 633 -4 853 86 757 -4 b 439 100 539 -4 465 31 b 218 -4 383 35 306 -4 b 0 236 40 -4 -24 132 b 274 429 31 371 144 429 b 500 393 364 429 436 414 l 535 485 b 553 575 546 521 553 551 b 467 642 551 619 525 642 b 325 469 494 564 450 469 b 181 572 231 469 182 517 m 471 310 b 418 314 456 313 429 314 b 333 240 372 314 343 278 b 371 169 325 204 338 169 b 442 228 390 169 426 185 l 471 310 m 478 1057 b 601 946 536 1057 575 1025 l 636 836 b 640 793 643 818 643 804 b 607 768 636 778 622 768 b 540 796 586 768 568 774 l 460 858 b 386 979 408 899 383 929 b 478 1057 389 1024 421 1057 "},"á":{"ha":908,"x_min":0,"x_max":0,"o":"m 181 572 b 496 735 179 656 268 735 b 831 392 733 735 901 636 l 774 200 b 790 164 768 178 775 164 b 835 193 817 164 825 193 b 851 161 844 193 851 176 b 633 -4 853 86 757 -4 b 439 100 539 -4 465 31 b 218 -4 383 35 306 -4 b 0 236 40 -4 -24 132 b 274 429 31 371 144 429 b 500 393 364 429 436 414 l 535 485 b 553 575 546 521 553 551 b 467 642 551 619 525 642 b 325 469 494 564 450 469 b 181 572 231 469 182 517 m 471 310 b 418 314 456 313 429 314 b 333 240 372 314 343 278 b 371 169 325 204 338 169 b 442 228 390 169 426 185 l 471 310 m 644 946 b 799 1057 688 1021 731 1057 b 890 951 863 1057 901 1014 b 774 839 882 906 846 874 l 653 781 b 608 769 636 774 621 769 b 585 844 575 769 557 796 "},"â":{"ha":908,"x_min":0,"x_max":0,"o":"m 181 572 b 496 735 179 656 268 735 b 831 392 733 735 901 636 l 774 200 b 790 164 768 178 775 164 b 835 193 817 164 825 193 b 851 161 844 193 851 176 b 633 -4 853 86 757 -4 b 439 100 539 -4 465 31 b 218 -4 383 35 306 -4 b 0 236 40 -4 -24 132 b 274 429 31 371 144 429 b 500 393 364 429 436 414 l 535 485 b 553 575 546 521 553 551 b 467 642 551 619 525 642 b 325 469 494 564 450 469 b 181 572 231 469 182 517 m 471 310 b 418 314 456 313 429 314 b 333 240 372 314 343 278 b 371 169 325 204 338 169 b 442 228 390 169 426 185 l 471 310 m 817 864 b 774 767 844 799 811 767 b 646 864 728 767 689 806 l 635 878 l 574 838 b 426 776 519 803 464 776 b 421 874 379 776 376 831 l 563 1007 b 756 1001 628 1069 717 1090 "},"ã":{"ha":908,"x_min":0,"x_max":0,"o":"m 181 572 b 496 735 179 656 268 735 b 831 392 733 735 901 636 l 774 200 b 790 164 768 178 775 164 b 835 193 817 164 825 193 b 851 161 844 193 851 176 b 633 -4 853 86 757 -4 b 439 100 539 -4 465 31 b 218 -4 383 35 306 -4 b 0 236 40 -4 -24 132 b 274 429 31 371 144 429 b 500 393 364 429 436 414 l 535 485 b 553 575 546 521 553 551 b 467 642 551 619 525 642 b 325 469 494 564 450 469 b 181 572 231 469 182 517 m 471 310 b 418 314 456 313 429 314 b 333 240 372 314 343 278 b 371 169 325 204 338 169 b 442 228 390 169 426 185 l 471 310 m 831 926 b 651 782 810 839 733 782 b 475 849 576 782 524 849 b 385 800 428 849 406 800 b 371 890 367 800 358 842 b 551 1035 393 978 469 1035 b 728 968 621 1035 679 968 b 818 1017 775 968 797 1017 b 831 926 836 1017 844 975 "},"ä":{"ha":908,"x_min":0,"x_max":0,"o":"m 181 572 b 496 735 179 656 268 735 b 831 392 733 735 901 636 l 774 200 b 790 164 768 178 775 164 b 835 193 817 164 825 193 b 851 161 844 193 851 176 b 633 -4 853 86 757 -4 b 439 100 539 -4 465 31 b 218 -4 383 35 306 -4 b 0 236 40 -4 -24 132 b 274 429 31 371 144 429 b 500 393 364 429 436 414 l 535 485 b 553 575 546 521 553 551 b 467 642 551 619 525 642 b 325 469 494 564 450 469 b 181 572 231 469 182 517 m 471 310 b 418 314 456 313 429 314 b 333 240 372 314 343 278 b 371 169 325 204 338 169 b 442 228 390 169 426 185 l 471 310 m 332 894 b 478 1042 332 963 389 1042 b 604 922 549 1042 603 989 b 457 771 606 849 546 771 b 332 894 386 771 333 825 m 643 894 b 789 1042 643 963 700 1042 b 915 922 860 1042 914 989 b 768 771 917 849 857 771 b 643 894 697 771 644 825 "},"å":{"ha":908,"x_min":0,"x_max":0,"o":"m 181 572 b 496 735 179 656 268 735 b 831 392 733 735 901 636 l 774 200 b 790 164 768 178 775 164 b 835 193 817 164 825 193 b 851 161 844 193 851 176 b 633 -4 853 86 757 -4 b 439 100 539 -4 465 31 b 218 -4 383 35 306 -4 b 0 236 40 -4 -24 132 b 274 429 31 371 144 429 b 500 393 364 429 436 414 l 535 485 b 553 575 546 521 553 551 b 467 642 551 619 525 642 b 325 469 494 564 450 469 b 181 572 231 469 182 517 m 471 310 b 418 314 456 313 429 314 b 333 240 372 314 343 278 b 371 169 325 204 338 169 b 442 228 390 169 426 185 l 471 310 m 815 936 b 631 771 817 842 738 771 b 474 906 542 771 475 829 b 657 1065 474 997 551 1065 b 815 936 746 1065 814 1010 m 613 911 b 626 846 603 864 607 846 b 678 926 650 846 665 869 b 663 990 688 972 683 990 b 613 911 639 990 624 968 "},"æ":{"ha":1257,"x_min":0,"x_max":0,"o":"m 724 692 b 950 742 789 725 867 742 b 1279 493 1244 742 1306 611 b 817 331 1240 322 981 307 b 968 200 815 228 882 200 b 1163 244 1050 200 1133 244 b 1178 226 1172 244 1178 240 b 839 -4 1179 138 1075 -4 b 569 89 707 -4 618 31 b 288 -4 492 32 397 -4 b 0 236 40 -4 -24 132 b 274 429 31 371 144 429 b 500 393 369 429 444 413 l 531 472 b 553 575 546 514 553 551 b 467 642 551 619 525 642 b 325 469 494 564 450 469 b 181 572 231 469 182 517 b 496 735 179 656 268 735 b 724 692 585 735 663 721 m 938 626 b 826 414 910 626 856 557 b 960 588 921 401 961 504 b 938 626 958 614 950 626 m 331 233 b 367 132 311 174 325 132 b 425 182 392 132 411 149 l 468 306 b 418 314 454 311 435 314 b 331 233 376 314 349 289 "},"ç":{"ha":753,"x_min":0,"x_max":0,"o":"m 33 394 b 504 742 86 633 282 742 b 788 560 675 742 786 663 b 646 429 789 486 736 429 b 513 614 535 429 482 504 b 349 435 440 594 371 539 b 501 207 315 283 376 207 b 683 254 603 207 654 254 b 697 236 694 254 697 250 b 422 0 699 147 590 25 l 401 -60 b 529 -229 489 -60 563 -135 b 303 -347 503 -303 422 -347 b 42 -185 146 -347 18 -251 b 61 -171 46 -175 53 -171 b 233 -225 85 -171 139 -225 b 315 -186 281 -225 307 -212 b 272 -137 325 -153 297 -137 b 200 -143 249 -137 222 -143 b 175 -106 175 -143 168 -124 l 219 18 b 33 394 72 69 -8 206 "},"è":{"ha":778,"x_min":0,"x_max":0,"o":"m 458 626 b 347 414 431 626 376 557 b 481 588 442 401 482 504 b 458 626 479 614 471 626 m 33 397 b 471 742 81 632 256 742 b 800 493 765 742 826 611 b 338 331 761 322 501 307 b 489 200 336 228 403 200 b 683 244 571 200 654 244 b 699 226 693 244 699 240 b 374 -4 700 138 596 -4 b 33 397 149 -4 -22 126 m 397 1057 b 521 946 456 1057 494 1025 l 556 836 b 560 793 563 818 563 804 b 526 768 556 778 542 768 b 460 796 506 768 488 774 l 379 858 b 306 979 328 899 303 929 b 397 1057 308 1024 340 1057 "},"é":{"ha":778,"x_min":0,"x_max":0,"o":"m 458 626 b 347 414 431 626 376 557 b 481 588 442 401 482 504 b 458 626 479 614 471 626 m 33 397 b 471 742 81 632 256 742 b 800 493 765 742 826 611 b 338 331 761 322 501 307 b 489 200 336 228 403 200 b 683 244 571 200 654 244 b 699 226 693 244 699 240 b 374 -4 700 138 596 -4 b 33 397 149 -4 -22 126 m 564 946 b 718 1057 607 1021 650 1057 b 810 951 782 1057 821 1014 b 693 839 801 906 765 874 l 572 781 b 528 769 556 774 540 769 b 504 844 494 769 476 796 "},"ê":{"ha":778,"x_min":0,"x_max":0,"o":"m 458 626 b 347 414 431 626 376 557 b 481 588 442 401 482 504 b 458 626 479 614 471 626 m 33 397 b 471 742 81 632 256 742 b 800 493 765 742 826 611 b 338 331 761 322 501 307 b 489 200 336 228 403 200 b 683 244 571 200 654 244 b 699 226 693 244 699 240 b 374 -4 700 138 596 -4 b 33 397 149 -4 -22 126 m 736 864 b 693 767 764 799 731 767 b 565 864 647 767 608 806 l 554 878 l 493 838 b 346 776 439 803 383 776 b 340 874 299 776 296 831 l 482 1007 b 675 1001 547 1069 636 1090 "},"ë":{"ha":778,"x_min":0,"x_max":0,"o":"m 458 626 b 347 414 431 626 376 557 b 481 588 442 401 482 504 b 458 626 479 614 471 626 m 33 397 b 471 742 81 632 256 742 b 800 493 765 742 826 611 b 338 331 761 322 501 307 b 489 200 336 228 403 200 b 683 244 571 200 654 244 b 699 226 693 244 699 240 b 374 -4 700 138 596 -4 b 33 397 149 -4 -22 126 m 251 894 b 397 1042 251 963 308 1042 b 524 922 468 1042 522 989 b 376 771 525 849 465 771 b 251 894 306 771 253 825 m 563 894 b 708 1042 563 963 619 1042 b 835 922 779 1042 833 989 b 688 771 836 849 776 771 b 563 894 617 771 564 825 "},"ì":{"ha":508,"x_min":0,"x_max":0,"o":"m 108 654 b 361 735 119 699 250 735 b 507 560 506 735 536 656 l 379 144 b 417 35 356 67 426 71 b 325 0 408 11 385 0 l 8 0 b -56 43 -42 0 -62 18 b 32 147 -43 82 6 64 l 153 549 b 108 654 174 615 96 608 m 278 1057 b 401 946 336 1057 375 1025 l 436 836 b 440 793 443 818 443 804 b 407 768 436 778 422 768 b 340 796 386 768 368 774 l 260 858 b 186 979 208 899 183 929 b 278 1057 189 1024 221 1057 "},"í":{"ha":508,"x_min":0,"x_max":0,"o":"m 108 654 b 361 735 119 699 250 735 b 507 560 506 735 536 656 l 379 144 b 417 35 356 67 426 71 b 325 0 408 11 385 0 l 8 0 b -56 43 -42 0 -62 18 b 32 147 -43 82 6 64 l 153 549 b 108 654 174 615 96 608 m 444 946 b 599 1057 488 1021 531 1057 b 690 951 663 1057 701 1014 b 574 839 682 906 646 874 l 453 781 b 408 769 436 774 421 769 b 385 844 375 769 357 796 "},"î":{"ha":508,"x_min":0,"x_max":0,"o":"m 108 654 b 361 735 119 699 250 735 b 507 560 506 735 536 656 l 379 144 b 417 35 356 67 426 71 b 325 0 408 11 385 0 l 8 0 b -56 43 -42 0 -62 18 b 32 147 -43 82 6 64 l 153 549 b 108 654 174 615 96 608 m 617 864 b 574 767 644 799 611 767 b 446 864 528 767 489 806 l 435 878 l 374 838 b 226 776 319 803 264 776 b 221 874 179 776 176 831 l 363 1007 b 556 1001 428 1069 517 1090 "},"ï":{"ha":508,"x_min":0,"x_max":0,"o":"m 108 654 b 361 735 119 699 250 735 b 507 560 506 735 536 656 l 379 144 b 417 35 356 67 426 71 b 325 0 408 11 385 0 l 8 0 b -56 43 -42 0 -62 18 b 32 147 -43 82 6 64 l 153 549 b 108 654 174 615 96 608 m 132 894 b 278 1042 132 963 189 1042 b 404 922 349 1042 403 989 b 257 771 406 849 346 771 b 132 894 186 771 133 825 m 443 894 b 589 1042 443 963 500 1042 b 715 922 660 1042 714 989 b 568 771 717 849 657 771 b 443 894 497 771 444 825 "},"ð":{"ha":947,"x_min":0,"x_max":0,"o":"m 406 342 b 404 108 340 131 369 108 b 536 343 438 106 474 140 b 536 569 599 543 571 569 b 406 342 503 569 464 533 m 493 1003 b 539 1026 496 1018 511 1026 b 768 906 621 1026 703 979 l 846 915 b 949 868 908 924 942 906 b 869 800 956 829 926 807 l 844 797 b 910 357 915 668 947 506 b 410 -12 853 138 657 -12 b 43 365 89 -12 -4 161 b 489 690 89 556 258 690 b 660 654 554 690 611 678 b 640 771 660 697 653 736 l 529 757 b 425 806 457 749 428 771 b 506 871 422 846 446 863 l 581 881 b 493 1003 535 942 488 979 "},"ñ":{"ha":994,"x_min":0,"x_max":0,"o":"m 769 735 b 944 465 911 735 992 618 l 860 192 b 875 154 851 169 860 154 b 919 183 901 154 910 183 b 935 153 929 183 935 168 b 699 -12 936 76 856 -12 b 497 143 576 -12 499 49 b 522 258 497 175 506 215 l 599 458 b 565 526 617 504 593 526 b 467 428 524 526 483 482 l 381 144 b 417 35 356 67 428 71 b 325 0 410 11 385 0 l 8 0 b -56 43 -42 0 -61 18 b 32 147 -43 82 6 64 l 156 549 b 111 654 175 615 99 608 b 364 735 122 699 253 735 b 510 590 456 735 515 682 b 769 735 592 707 679 735 m 901 926 b 722 782 881 839 804 782 b 546 849 647 782 594 849 b 456 800 499 849 476 800 b 442 890 438 800 429 842 b 622 1035 464 978 540 1035 b 799 968 692 1035 750 968 b 889 1017 846 968 868 1017 b 901 926 907 1017 915 975 "},"ò":{"ha":911,"x_min":0,"x_max":0,"o":"m 25 365 b 538 735 78 585 290 735 b 894 365 854 735 940 558 b 392 -12 840 135 639 -12 b 25 365 71 -12 -22 161 m 525 364 b 533 611 594 582 568 611 b 394 363 500 611 460 572 b 386 108 324 133 351 108 b 525 364 419 106 457 143 m 494 1057 b 618 946 553 1057 592 1025 l 653 836 b 657 793 660 818 660 804 b 624 768 653 778 639 768 b 557 796 603 768 585 774 l 476 858 b 403 979 425 899 400 929 b 494 1057 406 1024 438 1057 "},"ó":{"ha":911,"x_min":0,"x_max":0,"o":"m 25 365 b 538 735 78 585 290 735 b 894 365 854 735 940 558 b 392 -12 840 135 639 -12 b 25 365 71 -12 -22 161 m 525 364 b 533 611 594 582 568 611 b 394 363 500 611 460 572 b 386 108 324 133 351 108 b 525 364 419 106 457 143 m 661 946 b 815 1057 704 1021 747 1057 b 907 951 879 1057 918 1014 b 790 839 899 906 863 874 l 669 781 b 625 769 653 774 638 769 b 601 844 592 769 574 796 "},"ô":{"ha":911,"x_min":0,"x_max":0,"o":"m 25 365 b 538 735 78 585 290 735 b 894 365 854 735 940 558 b 392 -12 840 135 639 -12 b 25 365 71 -12 -22 161 m 525 364 b 533 611 594 582 568 611 b 394 363 500 611 460 572 b 386 108 324 133 351 108 b 525 364 419 106 457 143 m 833 864 b 790 767 861 799 828 767 b 663 864 744 767 706 806 l 651 878 l 590 838 b 443 776 536 803 481 776 b 438 874 396 776 393 831 l 579 1007 b 772 1001 644 1069 733 1090 "},"õ":{"ha":911,"x_min":0,"x_max":0,"o":"m 25 365 b 538 735 78 585 290 735 b 894 365 854 735 940 558 b 392 -12 840 135 639 -12 b 25 365 71 -12 -22 161 m 525 364 b 533 611 594 582 568 611 b 394 363 500 611 460 572 b 386 108 324 133 351 108 b 525 364 419 106 457 143 m 883 926 b 704 782 863 839 786 782 b 528 849 629 782 576 849 b 438 800 481 849 458 800 b 424 890 419 800 411 842 b 604 1035 446 978 522 1035 b 781 968 674 1035 732 968 b 871 1017 828 968 850 1017 b 883 926 889 1017 897 975 "},"ö":{"ha":911,"x_min":0,"x_max":0,"o":"m 25 365 b 538 735 78 585 290 735 b 894 365 854 735 940 558 b 392 -12 840 135 639 -12 b 25 365 71 -12 -22 161 m 525 364 b 533 611 594 582 568 611 b 394 363 500 611 460 572 b 386 108 324 133 351 108 b 525 364 419 106 457 143 m 349 894 b 494 1042 349 963 406 1042 b 621 922 565 1042 619 989 b 474 771 622 849 563 771 b 349 894 403 771 350 825 m 660 894 b 806 1042 660 963 717 1042 b 932 922 876 1042 931 989 b 785 771 933 849 874 771 b 660 894 714 771 661 825 "},"÷":{"ha":832,"x_min":0,"x_max":0,"o":"m 121 401 b 49 486 60 401 33 432 b 164 571 63 540 104 571 l 779 571 b 853 486 840 571 865 540 b 736 401 836 432 799 401 l 121 401 m 285 219 b 401 339 285 276 331 339 b 501 243 457 339 500 297 b 382 124 503 186 456 124 b 285 219 328 124 286 167 m 403 729 b 519 849 403 786 449 849 b 619 753 575 849 618 807 b 500 633 621 696 574 633 b 403 729 446 633 404 676 "},"ø":{"ha":947,"x_min":0,"x_max":0,"o":"m 49 0 b 3 60 19 0 -3 35 b 42 110 7 78 17 92 l 68 129 b 43 365 29 194 22 276 b 556 735 96 585 308 735 b 819 669 674 735 760 710 l 868 704 b 914 722 885 715 899 722 b 964 660 953 722 971 685 b 928 617 961 642 949 631 l 892 590 b 913 365 928 526 932 447 b 410 -12 858 135 657 -12 b 144 51 292 -12 204 11 l 99 18 b 49 0 83 8 69 0 m 550 611 b 410 374 514 611 471 572 l 585 501 b 550 611 601 596 579 611 m 406 108 b 542 338 440 106 479 140 l 368 213 b 406 108 354 121 378 108 "},"ù":{"ha":953,"x_min":0,"x_max":0,"o":"m 388 271 b 422 203 372 225 392 203 b 499 269 461 203 481 225 l 583 549 b 540 654 604 615 526 608 b 792 735 550 699 681 735 b 938 560 938 735 968 656 l 825 192 b 840 154 818 169 825 154 b 885 183 867 154 875 183 b 901 153 894 183 901 168 b 674 -12 903 76 811 -12 b 481 108 560 -12 497 40 b 247 -4 413 32 329 -4 b 32 258 100 -4 -26 86 l 121 549 b 76 654 142 615 64 608 b 329 735 88 699 218 735 b 475 560 474 735 504 656 m 449 1057 b 572 946 507 1057 546 1025 l 607 836 b 611 793 614 818 614 804 b 578 768 607 778 593 768 b 511 796 557 768 539 774 l 431 858 b 357 979 379 899 354 929 b 449 1057 360 1024 392 1057 "},"ú":{"ha":953,"x_min":0,"x_max":0,"o":"m 388 271 b 422 203 372 225 392 203 b 499 269 461 203 481 225 l 583 549 b 540 654 604 615 526 608 b 792 735 550 699 681 735 b 938 560 938 735 968 656 l 825 192 b 840 154 818 169 825 154 b 885 183 867 154 875 183 b 901 153 894 183 901 168 b 674 -12 903 76 811 -12 b 481 108 560 -12 497 40 b 247 -4 413 32 329 -4 b 32 258 100 -4 -26 86 l 121 549 b 76 654 142 615 64 608 b 329 735 88 699 218 735 b 475 560 474 735 504 656 m 615 946 b 769 1057 658 1021 701 1057 b 861 951 833 1057 872 1014 b 744 839 853 906 817 874 l 624 781 b 579 769 607 774 592 769 b 556 844 546 769 528 796 "},"û":{"ha":953,"x_min":0,"x_max":0,"o":"m 388 271 b 422 203 372 225 392 203 b 499 269 461 203 481 225 l 583 549 b 540 654 604 615 526 608 b 792 735 550 699 681 735 b 938 560 938 735 968 656 l 825 192 b 840 154 818 169 825 154 b 885 183 867 154 875 183 b 901 153 894 183 901 168 b 674 -12 903 76 811 -12 b 481 108 560 -12 497 40 b 247 -4 413 32 329 -4 b 32 258 100 -4 -26 86 l 121 549 b 76 654 142 615 64 608 b 329 735 88 699 218 735 b 475 560 474 735 504 656 m 788 864 b 744 767 815 799 782 767 b 617 864 699 767 660 806 l 606 878 l 544 838 b 397 776 490 803 435 776 b 392 874 350 776 347 831 l 533 1007 b 726 1001 599 1069 688 1090 "},"ü":{"ha":953,"x_min":0,"x_max":0,"o":"m 388 271 b 422 203 372 225 392 203 b 499 269 461 203 481 225 l 583 549 b 540 654 604 615 526 608 b 792 735 550 699 681 735 b 938 560 938 735 968 656 l 825 192 b 840 154 818 169 825 154 b 885 183 867 154 875 183 b 901 153 894 183 901 168 b 674 -12 903 76 811 -12 b 481 108 560 -12 497 40 b 247 -4 413 32 329 -4 b 32 258 100 -4 -26 86 l 121 549 b 76 654 142 615 64 608 b 329 735 88 699 218 735 b 475 560 474 735 504 656 m 303 894 b 449 1042 303 963 360 1042 b 575 922 519 1042 574 989 b 428 771 576 849 517 771 b 303 894 357 771 304 825 m 614 894 b 760 1042 614 963 671 1042 b 886 922 831 1042 885 989 b 739 771 888 849 828 771 b 614 894 668 771 615 825 "},"ý":{"ha":861,"x_min":0,"x_max":0,"o":"m 604 622 b 736 735 628 700 679 735 b 844 393 851 735 907 600 b 128 -264 740 50 429 -264 b -96 -37 -49 -264 -128 -142 b 15 43 -79 17 -36 43 b 172 -121 101 43 157 -21 b 336 -44 236 -118 288 -92 b 185 114 243 -28 201 13 l 129 454 b 97 501 124 492 114 501 b 56 482 81 501 67 482 b 51 547 46 482 38 501 b 303 736 82 646 176 736 b 489 521 425 736 472 660 l 531 215 b 556 181 533 192 542 181 b 679 354 589 181 635 240 b 604 622 604 422 574 519 m 538 946 b 692 1057 581 1021 624 1057 b 783 951 756 1057 794 1014 b 667 839 775 906 739 874 l 546 781 b 501 769 529 774 514 769 b 478 844 468 769 450 796 "},"þ":{"ha":972,"x_min":0,"x_max":0,"o":"m 417 114 b 563 343 457 114 504 136 b 556 575 615 533 590 575 b 497 544 538 575 515 565 l 371 135 b 417 114 385 121 400 114 m 535 667 b 722 740 586 714 647 740 b 931 339 892 740 989 575 b 511 -12 872 101 703 -12 b 339 31 453 -12 389 0 l 293 -121 b 328 -231 268 -196 339 -193 b 238 -264 321 -254 296 -264 l -81 -264 b -142 -222 -129 -264 -150 -246 b -57 -117 -131 -182 -81 -200 l 238 840 b 192 946 258 907 181 901 b 444 1026 204 990 333 1026 b 592 853 589 1026 621 946 "},"ÿ":{"ha":861,"x_min":0,"x_max":0,"o":"m 604 622 b 736 735 628 700 679 735 b 844 393 851 735 907 600 b 128 -264 740 50 429 -264 b -96 -37 -49 -264 -128 -142 b 15 43 -79 17 -36 43 b 172 -121 101 43 157 -21 b 336 -44 236 -118 288 -92 b 185 114 243 -28 201 13 l 129 454 b 97 501 124 492 114 501 b 56 482 81 501 67 482 b 51 547 46 482 38 501 b 303 736 82 646 176 736 b 489 521 425 736 472 660 l 531 215 b 556 181 533 192 542 181 b 679 354 589 181 635 240 b 604 622 604 422 574 519 m 225 894 b 371 1042 225 963 282 1042 b 497 922 442 1042 496 989 b 350 771 499 849 439 771 b 225 894 279 771 226 825 m 536 894 b 682 1042 536 963 593 1042 b 808 922 753 1042 807 989 b 661 771 810 849 750 771 b 536 894 590 771 538 825 "},"Ā":{"ha":969,"x_min":0,"x_max":0,"o":"m 382 422 l 576 422 l 650 667 b 600 754 668 724 644 754 b 496 665 556 754 528 733 m -56 56 b 117 204 -40 110 69 106 l 364 717 b 701 943 438 871 528 943 b 985 636 932 943 1039 821 l 849 164 b 874 35 824 75 890 81 b 792 0 867 8 842 0 l 463 0 b 406 54 413 0 392 21 b 499 164 424 96 474 79 l 535 283 l 318 283 l 281 204 b 293 36 217 68 307 88 b 215 0 286 8 265 0 l 8 0 b -56 56 -42 0 -64 25 m 590 1017 b 536 1081 544 1017 525 1040 b 624 1144 547 1121 578 1144 l 978 1144 b 1033 1081 1025 1144 1043 1121 b 946 1017 1021 1040 993 1017 l 590 1017 "},"ā":{"ha":908,"x_min":0,"x_max":0,"o":"m 181 572 b 496 735 179 656 268 735 b 831 392 733 735 901 636 l 774 200 b 790 164 768 178 775 164 b 835 193 817 164 825 193 b 851 161 844 193 851 176 b 633 -4 853 86 757 -4 b 439 100 539 -4 465 31 b 218 -4 383 35 306 -4 b 0 236 40 -4 -24 132 b 274 429 31 371 144 429 b 500 393 364 429 436 414 l 535 485 b 553 575 546 521 553 551 b 467 642 551 619 525 642 b 325 469 494 564 450 469 b 181 572 231 469 182 517 m 471 310 b 418 314 456 313 429 314 b 333 240 372 314 343 278 b 371 169 325 204 338 169 b 442 228 390 169 426 185 l 471 310 m 421 807 b 367 871 375 807 356 831 b 454 935 378 911 408 935 l 808 935 b 864 871 856 935 874 911 b 776 807 851 831 824 807 l 421 807 "},"Ă":{"ha":969,"x_min":0,"x_max":0,"o":"m 382 422 l 576 422 l 650 667 b 600 754 668 724 644 754 b 496 665 556 754 528 733 m -56 56 b 117 204 -40 110 69 106 l 364 717 b 701 943 438 871 528 943 b 985 636 932 943 1039 821 l 849 164 b 874 35 824 75 890 81 b 792 0 867 8 842 0 l 463 0 b 406 54 413 0 392 21 b 499 164 424 96 474 79 l 535 283 l 318 283 l 281 204 b 293 36 217 68 307 88 b 215 0 286 8 265 0 l 8 0 b -56 56 -42 0 -64 25 m 1018 1117 b 788 979 985 1029 899 979 b 656 1206 633 979 600 1108 b 710 1250 679 1244 700 1250 b 813 1153 751 1250 688 1153 b 993 1250 943 1153 956 1250 b 1018 1117 1028 1250 1044 1185 "},"ă":{"ha":908,"x_min":0,"x_max":0,"o":"m 181 572 b 496 735 179 656 268 735 b 831 392 733 735 901 636 l 774 200 b 790 164 768 178 775 164 b 835 193 817 164 825 193 b 851 161 844 193 851 176 b 633 -4 853 86 757 -4 b 439 100 539 -4 465 31 b 218 -4 383 35 306 -4 b 0 236 40 -4 -24 132 b 274 429 31 371 144 429 b 500 393 364 429 436 414 l 535 485 b 553 575 546 521 553 551 b 467 642 551 619 525 642 b 325 469 494 564 450 469 b 181 572 231 469 182 517 m 471 310 b 418 314 456 313 429 314 b 333 240 372 314 343 278 b 371 169 325 204 338 169 b 442 228 390 169 426 185 l 471 310 m 849 907 b 618 769 815 819 729 769 b 486 996 464 769 431 899 b 540 1040 510 1035 531 1040 b 643 943 582 1040 518 943 b 824 1040 774 943 786 1040 b 849 907 858 1040 875 975 "},"Ą":{"ha":969,"x_min":0,"x_max":0,"o":"m -56 56 b 117 204 -40 110 69 106 l 364 717 b 701 943 438 871 528 943 b 985 636 932 943 1039 821 l 849 164 b 874 35 824 75 890 81 b 792 0 867 8 842 0 l 686 0 b 553 -71 651 -11 568 -21 b 597 -131 542 -106 563 -131 b 649 -101 625 -131 643 -118 b 646 -61 654 -83 643 -69 b 683 -51 649 -56 658 -51 b 810 -204 779 -51 832 -131 b 603 -319 789 -275 708 -319 b 397 -94 438 -319 361 -212 b 464 0 410 -54 435 -24 l 463 0 b 406 54 413 0 392 21 b 499 164 424 96 474 79 l 535 283 l 318 283 l 281 204 b 293 36 217 68 307 88 b 215 0 286 8 265 0 l 8 0 b -56 56 -42 0 -64 25 m 382 422 l 576 422 l 650 667 b 600 754 668 724 644 754 b 496 665 556 754 528 733 "},"ą":{"ha":908,"x_min":0,"x_max":0,"o":"m 181 572 b 496 735 179 656 268 735 b 831 392 733 735 901 636 l 774 200 b 790 164 768 178 775 164 b 835 193 817 164 825 193 b 851 161 844 193 851 176 b 633 -4 853 86 757 -4 l 626 -4 b 508 -71 588 -14 522 -26 b 553 -131 497 -106 518 -131 b 604 -101 581 -131 599 -118 b 601 -61 610 -83 599 -69 b 639 -51 604 -56 614 -51 b 765 -204 735 -51 788 -131 b 558 -319 744 -275 664 -319 b 353 -94 393 -319 317 -212 b 486 38 374 -26 431 17 b 439 100 465 54 449 75 b 218 -4 383 35 306 -4 b 0 236 40 -4 -24 132 b 274 429 31 371 144 429 b 500 393 364 429 436 414 l 535 485 b 553 575 546 521 553 551 b 467 642 551 619 525 642 b 325 469 494 564 450 469 b 181 572 231 469 182 517 m 471 310 b 418 314 456 313 429 314 b 333 240 372 314 343 278 b 371 169 325 204 338 169 b 442 228 390 169 426 185 l 471 310 "},"Ć":{"ha":961,"x_min":0,"x_max":0,"o":"m 876 251 b 483 -8 878 203 735 -8 b 100 546 204 -8 -8 183 b 569 939 192 847 399 939 b 822 847 681 939 757 904 l 860 876 b 981 928 910 915 938 928 b 1051 838 1038 928 1072 894 l 974 621 b 892 553 957 572 939 553 b 781 667 842 553 817 589 b 665 774 739 750 721 774 b 460 493 592 774 518 686 b 521 158 388 254 433 158 b 797 326 686 158 724 326 b 876 251 829 326 878 285 m 767 1156 b 921 1267 810 1231 853 1267 b 1013 1161 985 1267 1024 1224 b 896 1049 1004 1115 968 1083 l 775 990 b 731 979 758 983 743 979 b 707 1054 697 979 679 1006 "},"ć":{"ha":753,"x_min":0,"x_max":0,"o":"m 33 394 b 504 742 86 633 282 742 b 788 560 675 742 786 663 b 646 429 789 486 736 429 b 513 614 535 429 482 504 b 349 435 440 594 371 539 b 501 207 315 283 376 207 b 683 254 603 207 654 254 b 697 236 694 254 697 250 b 361 -4 699 136 563 -4 b 33 394 128 -4 -21 151 m 583 946 b 738 1057 626 1021 669 1057 b 829 951 801 1057 840 1014 b 713 839 821 906 785 874 l 592 781 b 547 769 575 774 560 769 b 524 844 514 769 496 796 "},"Č":{"ha":961,"x_min":0,"x_max":0,"o":"m 876 251 b 483 -8 878 203 735 -8 b 100 546 204 -8 -8 183 b 569 939 192 847 399 939 b 822 847 681 939 757 904 l 860 876 b 981 928 910 915 938 928 b 1051 838 1038 928 1072 894 l 974 621 b 892 553 957 572 939 553 b 781 667 842 553 817 589 b 665 774 739 750 721 774 b 460 493 592 774 518 686 b 521 158 388 254 433 158 b 797 326 686 158 724 326 b 876 251 829 326 878 285 m 599 1072 b 665 1261 517 1144 551 1261 b 771 1171 721 1261 758 1231 l 783 1113 l 857 1200 b 979 1261 896 1247 932 1261 b 1072 1174 1036 1261 1079 1229 b 953 1071 1065 1128 1032 1104 l 750 983 b 722 976 740 979 732 976 b 686 993 711 976 699 982 "},"č":{"ha":753,"x_min":0,"x_max":0,"o":"m 33 394 b 504 742 86 633 282 742 b 788 560 675 742 786 663 b 646 429 789 486 736 429 b 513 614 535 429 482 504 b 349 435 440 594 371 539 b 501 207 315 283 376 207 b 683 254 603 207 654 254 b 697 236 694 254 697 250 b 361 -4 699 136 563 -4 b 33 394 128 -4 -21 151 m 415 863 b 482 1051 333 935 368 1051 b 588 961 538 1051 575 1021 l 600 903 l 674 990 b 796 1051 713 1038 749 1051 b 889 964 853 1051 896 1019 b 769 861 882 918 849 894 l 567 774 b 539 767 557 769 549 767 b 503 783 528 767 515 772 "},"Ď":{"ha":1072,"x_min":0,"x_max":0,"o":"m 665 925 b 1057 435 1018 925 1147 751 b 403 0 967 119 799 -1 l 25 1 b -32 56 -25 1 -46 24 b 61 165 -14 99 38 82 l 231 763 b 208 892 254 846 192 844 b 290 925 215 917 240 925 m 435 125 b 701 465 554 125 621 181 b 619 800 781 746 721 800 l 589 800 l 401 125 l 435 125 m 554 1072 b 621 1261 472 1144 507 1261 b 726 1171 676 1261 714 1231 l 739 1113 l 813 1200 b 935 1261 851 1247 888 1261 b 1028 1174 992 1261 1035 1229 b 908 1071 1021 1128 988 1104 l 706 983 b 678 976 696 979 688 976 b 642 993 667 976 654 982 "},"ď":{"ha":1118,"x_min":0,"x_max":0,"o":"m 776 200 b 793 164 769 178 778 164 b 838 193 819 164 826 193 b 853 161 847 193 853 176 b 636 -4 854 86 758 -4 b 444 92 543 -4 469 35 b 256 -4 393 26 326 -4 b 17 243 132 -4 19 93 b 394 740 13 496 165 740 b 574 685 478 740 531 719 l 621 840 b 575 947 642 907 564 901 b 828 1026 586 990 717 1026 b 975 853 972 1026 1004 949 m 544 590 b 496 610 531 603 515 610 b 332 253 410 610 329 388 b 382 176 332 203 347 176 b 436 239 407 176 422 194 m 1047 950 b 1150 1026 1058 996 1099 1026 b 1264 842 1243 1026 1289 946 b 1038 653 1238 732 1129 653 b 994 694 1007 653 989 668 b 1085 806 1003 733 1069 750 b 1047 950 1099 858 1032 886 "},"Đ":{"ha":1058,"x_min":0,"x_max":0,"o":"m 649 925 b 1040 435 1001 925 1131 751 b 386 0 950 119 782 -1 l 8 1 b -49 56 -42 1 -62 24 b 44 165 -31 99 21 82 l 107 386 l 53 382 b -1 446 7 378 -12 406 b 86 510 10 486 40 506 l 143 515 l 214 763 b 192 892 238 846 175 844 b 274 925 199 917 224 925 m 418 125 b 685 465 538 125 604 181 b 603 800 764 746 704 800 l 572 800 l 501 546 l 576 553 b 632 489 624 557 642 529 b 544 425 619 449 592 429 l 467 418 l 385 125 l 418 125 "},"đ":{"ha":981,"x_min":0,"x_max":0,"o":"m 585 778 b 531 835 539 776 519 800 b 618 893 542 872 568 892 l 688 894 b 889 1026 718 986 768 1026 b 1039 904 1013 1026 1054 978 l 1071 906 b 1131 849 1122 907 1140 883 b 1043 790 1118 811 1090 792 l 1006 789 l 826 200 b 843 164 819 178 828 164 b 888 193 869 164 876 193 b 903 161 897 193 903 176 b 686 -4 904 86 808 -4 b 494 92 593 -4 519 35 b 306 -4 443 26 376 -4 b 67 243 182 -4 69 93 b 444 740 63 496 215 740 b 624 685 528 740 581 719 l 653 779 l 585 778 m 594 590 b 546 610 581 603 565 610 b 382 253 460 610 379 388 b 432 176 382 203 397 176 b 486 239 457 176 472 194 "},"Ē":{"ha":932,"x_min":0,"x_max":0,"o":"m 519 544 l 581 544 b 607 558 590 544 597 550 l 654 600 b 728 635 678 621 696 635 b 782 571 767 635 793 608 l 725 378 b 653 318 713 333 681 318 b 594 358 624 318 606 335 l 571 407 b 540 428 565 419 557 428 l 486 428 l 404 133 l 526 133 b 617 181 563 133 585 146 l 700 272 b 792 317 728 301 750 317 b 857 235 835 317 874 294 l 817 94 b 688 0 796 25 763 0 l 25 0 b -32 54 -25 0 -46 21 b 61 164 -14 96 38 81 l 232 763 b 208 892 256 846 192 844 b 290 925 217 917 242 925 l 907 925 b 1010 804 990 925 1032 881 l 974 675 b 892 608 960 624 936 608 b 811 671 847 608 824 625 l 789 750 b 735 792 781 782 772 792 l 589 792 m 457 1017 b 403 1081 411 1017 392 1040 b 490 1144 414 1121 444 1144 l 844 1144 b 900 1081 892 1144 910 1121 b 813 1017 888 1040 860 1017 l 457 1017 "},"ē":{"ha":778,"x_min":0,"x_max":0,"o":"m 458 626 b 347 414 431 626 376 557 b 481 588 442 401 482 504 b 458 626 479 614 471 626 m 33 397 b 471 742 81 632 256 742 b 800 493 765 742 826 611 b 338 331 761 322 501 307 b 489 200 336 228 403 200 b 683 244 571 200 654 244 b 699 226 693 244 699 240 b 374 -4 700 138 596 -4 b 33 397 149 -4 -22 126 m 340 807 b 286 871 294 807 275 831 b 374 935 297 911 328 935 l 728 935 b 783 871 775 935 793 911 b 696 807 771 831 743 807 l 340 807 "},"Ė":{"ha":932,"x_min":0,"x_max":0,"o":"m 519 544 l 581 544 b 607 558 590 544 597 550 l 654 600 b 728 635 678 621 696 635 b 782 571 767 635 793 608 l 725 378 b 653 318 713 333 681 318 b 594 358 624 318 606 335 l 571 407 b 540 428 565 419 557 428 l 486 428 l 404 133 l 526 133 b 617 181 563 133 585 146 l 700 272 b 792 317 728 301 750 317 b 857 235 835 317 874 294 l 817 94 b 688 0 796 25 763 0 l 25 0 b -32 54 -25 0 -46 21 b 61 164 -14 96 38 81 l 232 763 b 208 892 256 846 192 844 b 290 925 217 917 242 925 l 907 925 b 1010 804 990 925 1032 881 l 974 675 b 892 608 960 624 936 608 b 811 671 847 608 824 625 l 789 750 b 735 792 781 782 772 792 l 589 792 m 544 1104 b 690 1251 544 1172 601 1251 b 817 1132 761 1251 815 1199 b 669 981 818 1058 758 981 b 544 1104 599 981 546 1035 "},"ė":{"ha":778,"x_min":0,"x_max":0,"o":"m 458 626 b 347 414 431 626 376 557 b 481 588 442 401 482 504 b 458 626 479 614 471 626 m 33 397 b 471 742 81 632 256 742 b 800 493 765 742 826 611 b 338 331 761 322 501 307 b 489 200 336 228 403 200 b 683 244 571 200 654 244 b 699 226 693 244 699 240 b 374 -4 700 138 596 -4 b 33 397 149 -4 -22 126 m 428 894 b 574 1042 428 963 485 1042 b 700 922 644 1042 699 989 b 553 771 701 849 642 771 b 428 894 482 771 429 825 "},"Ę":{"ha":932,"x_min":0,"x_max":0,"o":"m 519 544 l 581 544 b 607 558 590 544 597 550 l 654 600 b 728 635 678 621 696 635 b 782 571 767 635 793 608 l 725 378 b 653 318 713 333 681 318 b 594 358 624 318 606 335 l 571 407 b 540 428 565 419 557 428 l 486 428 l 404 133 l 526 133 b 617 181 563 133 585 146 l 700 272 b 792 317 728 301 750 317 b 857 235 835 317 874 294 l 817 94 b 688 0 796 25 763 0 l 615 0 b 482 -71 581 -11 497 -21 b 526 -131 471 -106 492 -131 b 578 -101 554 -131 572 -118 b 575 -61 583 -83 572 -69 b 613 -51 578 -56 588 -51 b 739 -204 708 -51 761 -131 b 532 -319 718 -275 638 -319 b 326 -94 367 -319 290 -212 b 393 0 339 -54 364 -24 l 25 0 b -32 54 -25 0 -46 21 b 61 164 -14 96 38 81 l 232 763 b 208 892 256 846 192 844 b 290 925 217 917 242 925 l 907 925 b 1010 804 990 925 1032 881 l 974 675 b 892 608 960 624 936 608 b 811 671 847 608 824 625 l 789 750 b 735 792 781 782 772 792 l 589 792 "},"ę":{"ha":778,"x_min":0,"x_max":0,"o":"m 458 626 b 347 414 431 626 376 557 b 481 588 442 401 482 504 b 458 626 479 614 471 626 m 33 397 b 471 742 81 632 256 742 b 800 493 765 742 826 611 b 338 331 761 322 501 307 b 489 200 336 228 403 200 b 683 244 571 200 654 244 b 699 226 693 244 699 240 b 446 1 700 147 618 28 b 308 -71 414 -10 325 -18 b 353 -131 297 -106 318 -131 b 404 -101 381 -131 399 -118 b 401 -61 410 -83 399 -69 b 439 -51 404 -56 414 -51 b 565 -204 535 -51 588 -131 b 358 -319 544 -275 464 -319 b 153 -94 193 -319 117 -212 b 239 14 168 -46 200 -10 b 33 397 86 58 -10 185 "},"Ě":{"ha":932,"x_min":0,"x_max":0,"o":"m 519 544 l 581 544 b 607 558 590 544 597 550 l 654 600 b 728 635 678 621 696 635 b 782 571 767 635 793 608 l 725 378 b 653 318 713 333 681 318 b 594 358 624 318 606 335 l 571 407 b 540 428 565 419 557 428 l 486 428 l 404 133 l 526 133 b 617 181 563 133 585 146 l 700 272 b 792 317 728 301 750 317 b 857 235 835 317 874 294 l 817 94 b 688 0 796 25 763 0 l 25 0 b -32 54 -25 0 -46 21 b 61 164 -14 96 38 81 l 232 763 b 208 892 256 846 192 844 b 290 925 217 917 242 925 l 907 925 b 1010 804 990 925 1032 881 l 974 675 b 892 608 960 624 936 608 b 811 671 847 608 824 625 l 789 750 b 735 792 781 782 772 792 l 589 792 m 513 1072 b 579 1261 431 1144 465 1261 b 685 1171 635 1261 672 1231 l 697 1113 l 771 1200 b 893 1261 810 1247 846 1261 b 986 1174 950 1261 993 1229 b 867 1071 979 1128 946 1104 l 664 983 b 636 976 654 979 646 976 b 600 993 625 976 613 982 "},"ě":{"ha":778,"x_min":0,"x_max":0,"o":"m 458 626 b 347 414 431 626 376 557 b 481 588 442 401 482 504 b 458 626 479 614 471 626 m 33 397 b 471 742 81 632 256 742 b 800 493 765 742 826 611 b 338 331 761 322 501 307 b 489 200 336 228 403 200 b 683 244 571 200 654 244 b 699 226 693 244 699 240 b 374 -4 700 138 596 -4 b 33 397 149 -4 -22 126 m 396 863 b 463 1051 314 935 349 1051 b 568 961 518 1051 556 1021 l 581 903 l 654 990 b 776 1051 693 1038 729 1051 b 869 964 833 1051 876 1019 b 750 861 863 918 829 894 l 547 774 b 519 767 538 769 529 767 b 483 783 508 767 496 772 "},"Ğ":{"ha":1051,"x_min":0,"x_max":0,"o":"m 661 108 b 411 -8 603 40 521 -8 b 107 533 183 -8 6 183 b 600 939 201 860 429 939 b 856 836 704 939 786 899 l 897 876 b 1015 928 944 917 972 928 b 1092 838 1072 928 1108 894 l 1042 663 b 958 582 1024 601 1000 582 b 840 658 915 582 885 600 b 688 765 783 733 743 765 b 471 492 614 765 531 703 b 553 176 411 282 456 176 b 660 269 613 176 640 200 l 669 304 b 643 381 685 361 671 369 l 594 399 b 564 460 563 411 558 439 b 629 494 571 482 586 494 l 1049 493 b 1092 447 1088 493 1101 476 b 1038 389 1085 418 1067 404 l 1001 368 b 971 333 982 357 975 349 l 897 76 b 824 0 878 11 853 0 l 765 0 b 675 68 725 0 694 11 l 661 108 m 876 1117 b 646 979 843 1029 757 979 b 514 1206 492 979 458 1108 b 568 1250 538 1244 558 1250 b 671 1153 610 1250 546 1153 b 851 1250 801 1153 814 1250 b 876 1117 886 1250 903 1185 "},"ğ":{"ha":854,"x_min":0,"x_max":0,"o":"m 40 143 b 171 250 51 179 85 222 b 75 481 82 299 51 378 b 489 740 108 624 271 740 b 749 697 601 740 688 725 b 704 831 721 740 704 790 b 842 961 703 893 740 961 b 1025 821 931 961 1024 899 b 914 739 1025 767 988 739 b 824 760 867 739 847 749 b 846 621 813 732 825 669 b 868 456 876 576 882 521 b 457 196 835 311 675 196 b 306 207 400 196 350 200 b 286 172 294 197 289 186 b 357 121 281 149 292 121 l 565 121 b 783 -72 732 121 819 50 b 282 -278 753 -174 603 -278 b -131 -65 -31 -278 -164 -176 b 69 35 -117 -18 -76 24 b 40 143 39 64 29 101 m 289 -136 b 442 -74 365 -136 428 -115 b 397 -19 453 -43 438 -19 l 264 -19 b 193 -15 238 -19 215 -18 b 176 -71 181 -31 176 -49 b 289 -136 178 -117 214 -136 m 540 468 b 522 624 576 588 565 624 b 410 468 478 624 446 589 b 426 313 375 349 383 313 b 540 468 471 313 504 350 m 658 917 b 428 779 625 829 539 779 b 296 1006 274 779 240 908 b 350 1050 319 1044 340 1050 b 453 953 392 1050 328 953 b 633 1050 583 953 596 1050 b 658 917 668 1050 685 985 "},"Ģ":{"ha":1051,"x_min":0,"x_max":0,"o":"m 661 108 b 411 -8 603 40 521 -8 b 107 533 183 -8 6 183 b 600 939 201 860 429 939 b 856 836 704 939 786 899 l 897 876 b 1015 928 944 917 972 928 b 1092 838 1072 928 1108 894 l 1042 663 b 958 582 1024 601 1000 582 b 840 658 915 582 885 600 b 688 765 783 733 743 765 b 471 492 614 765 531 703 b 553 176 411 282 456 176 b 660 269 613 176 640 200 l 669 304 b 643 381 685 361 671 369 l 594 399 b 564 460 563 411 558 439 b 629 494 571 482 586 494 l 1049 493 b 1092 447 1088 493 1101 476 b 1038 389 1085 418 1067 404 l 1001 368 b 971 333 982 357 975 349 l 897 76 b 824 0 878 11 853 0 l 765 0 b 675 68 725 0 694 11 l 661 108 m 107 -125 b 228 -50 121 -76 169 -50 b 369 -249 336 -50 397 -147 b 132 -411 339 -358 238 -411 b 54 -354 74 -411 46 -385 b 181 -271 67 -310 168 -312 b 107 -125 196 -219 79 -222 "},"ģ":{"ha":882,"x_min":0,"x_max":0,"o":"m 40 143 b 171 250 51 179 85 222 b 75 481 82 299 51 378 b 489 740 108 624 271 740 b 749 697 601 740 688 725 b 707 799 728 729 714 765 b 621 988 635 825 599 906 b 858 1150 651 1097 753 1150 b 936 1093 917 1150 944 1124 b 810 1010 924 1049 822 1051 b 842 961 803 988 821 975 l 842 961 b 1025 821 931 961 1024 899 b 914 739 1025 767 988 739 b 824 760 867 739 847 749 b 846 621 813 732 825 669 b 868 456 876 576 882 521 b 457 196 835 311 675 196 b 306 207 400 196 350 200 b 286 172 294 197 289 186 b 357 121 281 149 292 121 l 565 121 b 783 -72 732 121 819 50 b 282 -278 753 -174 603 -278 b -131 -65 -31 -278 -164 -176 b 69 35 -117 -18 -76 24 b 40 143 39 64 29 101 m 289 -136 b 442 -74 365 -136 428 -115 b 397 -19 453 -43 438 -19 l 264 -19 b 193 -15 238 -19 215 -18 b 176 -71 181 -31 176 -49 b 289 -136 178 -117 214 -136 m 540 468 b 522 624 576 588 565 624 b 410 468 478 624 446 589 b 426 313 375 349 383 313 b 540 468 471 313 504 350 "},"Ī":{"ha":561,"x_min":0,"x_max":0,"o":"m 617 925 b 674 872 667 925 688 904 b 579 763 656 829 603 844 l 411 164 b 435 35 388 79 450 81 b 351 0 426 8 401 0 l 25 0 b -32 54 -25 0 -46 21 b 61 164 -14 96 38 81 l 231 763 b 208 892 254 846 192 844 b 290 925 215 917 240 925 m 290 1017 b 236 1081 244 1017 225 1040 b 324 1144 247 1121 278 1144 l 678 1144 b 733 1081 725 1144 743 1121 b 646 1017 721 1040 693 1017 l 290 1017 "},"ī":{"ha":508,"x_min":0,"x_max":0,"o":"m 108 654 b 361 735 119 699 250 735 b 507 560 506 735 536 656 l 379 144 b 417 35 356 67 426 71 b 325 0 408 11 385 0 l 8 0 b -56 43 -42 0 -62 18 b 32 147 -43 82 6 64 l 153 549 b 108 654 174 615 96 608 m 221 807 b 167 871 175 807 156 831 b 254 935 178 911 208 935 l 608 935 b 664 871 656 935 674 911 b 576 807 651 831 624 807 l 221 807 "},"Į":{"ha":561,"x_min":0,"x_max":0,"o":"m 617 925 b 674 872 667 925 688 904 b 579 763 656 829 603 844 l 411 164 b 435 35 388 79 450 81 b 351 0 426 8 401 0 l 263 0 b 129 -71 228 -11 144 -21 b 174 -131 118 -106 139 -131 b 225 -101 201 -131 219 -118 b 222 -61 231 -83 219 -69 b 260 -51 225 -56 235 -51 b 386 -204 356 -51 408 -131 b 179 -319 365 -275 285 -319 b -26 -94 14 -319 -62 -212 b 40 0 -14 -54 11 -24 l 25 0 b -32 54 -25 0 -46 21 b 61 164 -14 96 38 81 l 231 763 b 208 892 254 846 192 844 b 290 925 215 917 240 925 "},"į":{"ha":508,"x_min":0,"x_max":0,"o":"m 108 654 b 361 735 119 699 250 735 b 507 560 506 735 536 656 l 379 144 b 417 35 356 67 426 71 b 325 0 408 11 385 0 l 271 0 b 138 -71 236 -11 153 -21 b 182 -131 126 -106 147 -131 b 233 -101 210 -131 228 -118 b 231 -61 239 -83 228 -69 b 268 -51 233 -56 243 -51 b 394 -204 364 -51 417 -131 b 188 -319 374 -275 293 -319 b -18 -94 22 -319 -54 -212 b 49 0 -6 -54 19 -24 l 8 0 b -56 43 -42 0 -62 18 b 32 147 -43 82 6 64 l 153 549 b 108 654 174 615 96 608 m 308 894 b 454 1042 308 963 365 1042 b 581 922 525 1042 579 989 b 433 771 582 849 522 771 b 308 894 363 771 310 825 "},"İ":{"ha":561,"x_min":0,"x_max":0,"o":"m 617 925 b 674 872 667 925 688 904 b 579 763 656 829 603 844 l 411 164 b 435 35 388 79 450 81 b 351 0 426 8 401 0 l 25 0 b -32 54 -25 0 -46 21 b 61 164 -14 96 38 81 l 231 763 b 208 892 254 846 192 844 b 290 925 215 917 240 925 m 378 1104 b 524 1251 378 1172 435 1251 b 650 1132 594 1251 649 1199 b 503 981 651 1058 592 981 b 378 1104 432 981 379 1035 "},"ı":{"ha":508,"x_min":0,"x_max":0,"o":"m 108 654 b 361 735 119 699 250 735 b 507 560 506 735 536 656 l 379 144 b 417 35 356 67 426 71 b 325 0 408 11 385 0 l 8 0 b -56 43 -42 0 -62 18 b 32 147 -43 82 6 64 l 153 549 b 108 654 174 615 96 608 "},"Ķ":{"ha":1093,"x_min":0,"x_max":0,"o":"m 617 925 b 674 872 667 925 688 904 b 579 763 656 829 603 844 l 521 556 l 889 874 b 1017 931 936 914 972 931 b 1153 792 1093 931 1153 879 b 1007 631 1153 693 1083 631 b 888 689 956 631 921 647 l 768 589 l 903 190 b 992 35 938 86 1006 86 b 903 0 986 14 963 0 l 721 0 b 567 129 625 0 593 42 l 497 363 l 457 329 l 411 164 b 435 35 388 79 450 81 b 351 0 426 8 401 0 l 25 0 b -32 54 -25 0 -46 21 b 61 164 -14 96 38 81 l 231 763 b 208 892 254 846 192 844 b 290 925 215 917 240 925 m 133 -125 b 254 -50 147 -76 196 -50 b 396 -249 363 -50 424 -147 b 158 -411 365 -358 264 -411 b 81 -354 100 -411 72 -385 b 207 -271 93 -310 194 -312 b 133 -125 222 -219 106 -222 "},"ķ":{"ha":971,"x_min":0,"x_max":0,"o":"m 190 947 b 443 1026 201 990 332 1026 b 589 853 588 1026 618 949 l 468 458 l 514 458 b 586 524 553 458 574 482 b 824 735 629 651 694 735 b 997 561 943 735 1011 651 b 853 443 986 486 931 443 b 732 540 769 443 731 494 b 688 475 715 543 703 531 b 661 426 682 454 672 439 b 838 235 824 414 869 335 l 826 192 b 842 154 818 167 826 154 b 886 183 868 154 875 183 b 901 153 896 183 901 168 b 674 -12 903 76 829 -12 b 478 208 535 -12 433 79 l 504 278 b 463 349 521 329 510 349 l 435 349 l 372 144 b 410 35 349 67 419 71 b 318 0 401 11 378 0 l 1 0 b -62 43 -49 0 -69 18 b 25 147 -50 82 0 64 l 236 840 b 190 947 257 908 179 901 m 14 -125 b 135 -50 28 -76 76 -50 b 276 -249 243 -50 304 -147 b 39 -411 246 -358 144 -411 b -39 -354 -19 -411 -47 -385 b 88 -271 -26 -310 75 -312 b 14 -125 103 -219 -14 -222 "},"Ĺ":{"ha":904,"x_min":0,"x_max":0,"o":"m 686 300 b 796 358 719 340 749 358 b 871 269 858 358 886 325 l 825 107 b 678 0 801 28 763 0 l 25 0 b -32 54 -25 0 -44 21 b 63 164 -14 96 39 81 l 232 763 b 210 892 256 846 193 844 b 292 925 217 917 242 925 l 618 925 b 675 872 668 925 689 904 b 581 763 657 829 604 844 l 401 133 l 488 133 b 590 186 529 133 556 144 l 686 300 m 519 1156 b 674 1267 563 1231 606 1267 b 765 1161 738 1267 776 1224 b 649 1049 757 1115 721 1083 l 528 990 b 483 979 511 983 496 979 b 460 1054 450 979 432 1006 "},"ĺ":{"ha":508,"x_min":0,"x_max":0,"o":"m 190 947 b 443 1026 201 990 332 1026 b 590 853 588 1026 619 949 l 372 144 b 410 35 349 67 419 71 b 318 0 401 11 378 0 l 1 0 b -62 43 -49 0 -69 18 b 25 147 -50 82 0 64 l 236 840 b 190 947 257 908 179 901 m 535 1231 b 689 1342 578 1306 621 1342 b 781 1236 753 1342 792 1299 b 664 1124 772 1190 736 1158 l 543 1065 b 499 1054 526 1058 511 1054 b 475 1129 465 1054 447 1081 "},"Ļ":{"ha":904,"x_min":0,"x_max":0,"o":"m 686 300 b 796 358 719 340 749 358 b 871 269 858 358 886 325 l 825 107 b 678 0 801 28 763 0 l 25 0 b -32 54 -25 0 -44 21 b 63 164 -14 96 39 81 l 232 763 b 210 892 256 846 193 844 b 292 925 217 917 242 925 l 618 925 b 675 872 668 925 689 904 b 581 763 657 829 604 844 l 401 133 l 488 133 b 590 186 529 133 556 144 l 686 300 m 13 -125 b 133 -50 26 -76 75 -50 b 275 -249 242 -50 303 -147 b 38 -411 244 -358 143 -411 b -40 -354 -21 -411 -49 -385 b 86 -271 -28 -310 74 -312 b 13 -125 101 -219 -15 -222 "},"ļ":{"ha":571,"x_min":0,"x_max":0,"o":"m -197 -125 b -76 -50 -183 -76 -135 -50 b 65 -249 32 -50 93 -147 b -172 -411 35 -358 -67 -411 b -250 -354 -231 -411 -258 -385 b -124 -271 -237 -310 -136 -312 b -197 -125 -108 -219 -225 -222 m 190 947 b 443 1026 201 990 332 1026 b 590 853 588 1026 619 949 l 372 144 b 410 35 349 67 419 71 b 318 0 401 11 378 0 l 1 0 b -62 43 -49 0 -69 18 b 25 147 -50 82 0 64 l 236 840 b 190 947 257 908 179 901 "},"Ľ":{"ha":904,"x_min":0,"x_max":0,"o":"m 686 300 b 796 358 719 340 749 358 b 871 269 858 358 886 325 l 825 107 b 678 0 801 28 763 0 l 25 0 b -32 54 -25 0 -44 21 b 63 164 -14 96 39 81 l 232 763 b 210 892 256 846 193 844 b 292 925 217 917 242 925 l 618 925 b 675 872 668 925 689 904 b 581 763 657 829 604 844 l 401 133 l 488 133 b 590 186 529 133 556 144 l 686 300 m 721 849 b 824 925 732 894 772 925 b 938 740 917 925 963 844 b 711 551 911 631 803 551 b 668 593 681 551 663 567 b 758 704 676 632 743 649 b 721 849 772 757 706 785 "},"ľ":{"ha":761,"x_min":0,"x_max":0,"o":"m 190 947 b 443 1026 201 990 332 1026 b 590 853 588 1026 619 949 l 372 144 b 410 35 349 67 419 71 b 318 0 401 11 378 0 l 1 0 b -62 43 -49 0 -69 18 b 25 147 -50 82 0 64 l 236 840 b 190 947 257 908 179 901 m 661 950 b 764 1026 672 996 713 1026 b 878 842 857 1026 903 946 b 651 653 851 732 743 653 b 608 694 621 653 603 668 b 699 806 617 733 683 750 b 661 950 713 858 646 886 "},"Ł":{"ha":888,"x_min":0,"x_max":0,"o":"m 61 382 b 7 446 15 378 -4 406 b 94 510 18 486 49 506 l 158 517 l 228 763 b 206 892 251 846 189 844 b 288 925 213 917 238 925 l 614 925 b 671 872 664 925 685 904 b 576 763 653 829 600 844 l 517 554 l 579 561 b 635 497 626 567 644 538 b 547 433 622 457 594 439 l 481 426 l 397 133 l 483 133 b 586 186 525 133 551 144 l 682 300 b 792 358 715 340 744 358 b 867 269 854 358 882 325 l 821 107 b 674 0 797 28 758 0 l 21 0 b -36 54 -29 0 -49 21 b 58 164 -18 96 35 81 l 122 389 l 61 382 "},"ł":{"ha":567,"x_min":0,"x_max":0,"o":"m 67 419 b 13 483 21 415 1 443 b 100 547 24 524 54 543 l 171 554 l 258 840 b 213 947 279 908 201 901 b 465 1026 224 990 354 1026 b 613 853 610 1026 642 949 l 532 593 l 585 599 b 640 535 632 604 650 575 b 553 471 628 494 600 476 l 493 464 l 394 144 b 432 35 371 67 442 71 b 340 0 424 11 400 0 l 24 0 b -40 43 -26 0 -47 18 b 47 147 -28 82 22 64 l 132 426 l 67 419 "},"Ń":{"ha":1010,"x_min":0,"x_max":0,"o":"m 714 -6 b 553 128 635 -6 593 43 l 343 569 l 226 164 b 260 35 203 79 275 81 b 176 0 251 8 226 0 l 25 0 b -31 50 -22 0 -39 21 b 64 164 -17 97 40 81 l 240 788 l 218 833 b 260 925 188 899 213 925 l 465 925 b 582 833 528 925 550 897 l 785 426 l 881 761 b 847 890 904 846 832 844 b 931 925 856 917 881 925 l 1082 925 b 1138 875 1129 925 1146 904 b 1043 761 1124 828 1067 844 l 871 144 b 714 -6 839 32 797 -6 m 724 1156 b 878 1267 767 1231 810 1267 b 969 1161 942 1267 981 1224 b 853 1049 961 1115 925 1083 l 732 990 b 688 979 715 983 700 979 b 664 1054 654 979 636 1006 "},"ń":{"ha":994,"x_min":0,"x_max":0,"o":"m 769 735 b 944 465 911 735 992 618 l 860 192 b 875 154 851 169 860 154 b 919 183 901 154 910 183 b 935 153 929 183 935 168 b 699 -12 936 76 856 -12 b 497 143 576 -12 499 49 b 522 258 497 175 506 215 l 599 458 b 565 526 617 504 593 526 b 467 428 524 526 483 482 l 381 144 b 417 35 356 67 428 71 b 325 0 410 11 385 0 l 8 0 b -56 43 -42 0 -61 18 b 32 147 -43 82 6 64 l 156 549 b 111 654 175 615 99 608 b 364 735 122 699 253 735 b 510 590 456 735 515 682 b 769 735 592 707 679 735 m 626 946 b 781 1057 669 1021 713 1057 b 872 951 844 1057 883 1014 b 756 839 864 906 828 874 l 635 781 b 590 769 618 774 603 769 b 567 844 557 769 539 796 "},"Ņ":{"ha":1010,"x_min":0,"x_max":0,"o":"m 714 -6 b 553 128 635 -6 593 43 l 343 569 l 226 164 b 260 35 203 79 275 81 b 176 0 251 8 226 0 l 25 0 b -31 50 -22 0 -39 21 b 64 164 -17 97 40 81 l 240 788 l 218 833 b 260 925 188 899 213 925 l 465 925 b 582 833 528 925 550 897 l 785 426 l 881 761 b 847 890 904 846 832 844 b 931 925 856 917 881 925 l 1082 925 b 1138 875 1129 925 1146 904 b 1043 761 1124 828 1067 844 l 871 144 b 714 -6 839 32 797 -6 m 58 -125 b 179 -50 72 -76 121 -50 b 321 -249 288 -50 349 -147 b 83 -411 290 -358 189 -411 b 6 -354 25 -411 -3 -385 b 132 -271 18 -310 119 -312 b 58 -125 147 -219 31 -222 "},"ņ":{"ha":994,"x_min":0,"x_max":0,"o":"m 769 735 b 944 465 911 735 992 618 l 860 192 b 875 154 851 169 860 154 b 919 183 901 154 910 183 b 935 153 929 183 935 168 b 699 -12 936 76 856 -12 b 497 143 576 -12 499 49 b 522 258 497 175 506 215 l 599 458 b 565 526 617 504 593 526 b 467 428 524 526 483 482 l 381 144 b 417 35 356 67 428 71 b 325 0 410 11 385 0 l 8 0 b -56 43 -42 0 -61 18 b 32 147 -43 82 6 64 l 156 549 b 111 654 175 615 99 608 b 364 735 122 699 253 735 b 510 590 456 735 515 682 b 769 735 592 707 679 735 m 79 -125 b 200 -50 93 -76 142 -50 b 342 -249 308 -50 369 -147 b 104 -411 311 -358 210 -411 b 26 -354 46 -411 18 -385 b 153 -271 39 -310 140 -312 b 79 -125 168 -219 51 -222 "},"Ň":{"ha":1010,"x_min":0,"x_max":0,"o":"m 714 -6 b 553 128 635 -6 593 43 l 343 569 l 226 164 b 260 35 203 79 275 81 b 176 0 251 8 226 0 l 25 0 b -31 50 -22 0 -39 21 b 64 164 -17 97 40 81 l 240 788 l 218 833 b 260 925 188 899 213 925 l 465 925 b 582 833 528 925 550 897 l 785 426 l 881 761 b 847 890 904 846 832 844 b 931 925 856 917 881 925 l 1082 925 b 1138 875 1129 925 1146 904 b 1043 761 1124 828 1067 844 l 871 144 b 714 -6 839 32 797 -6 m 556 1072 b 622 1261 474 1144 508 1261 b 728 1171 678 1261 715 1231 l 740 1113 l 814 1200 b 936 1261 853 1247 889 1261 b 1029 1174 993 1261 1036 1229 b 910 1071 1022 1128 989 1104 l 707 983 b 679 976 697 979 689 976 b 643 993 668 976 656 982 "},"ň":{"ha":994,"x_min":0,"x_max":0,"o":"m 769 735 b 944 465 911 735 992 618 l 860 192 b 875 154 851 169 860 154 b 919 183 901 154 910 183 b 935 153 929 183 935 168 b 699 -12 936 76 856 -12 b 497 143 576 -12 499 49 b 522 258 497 175 506 215 l 599 458 b 565 526 617 504 593 526 b 467 428 524 526 483 482 l 381 144 b 417 35 356 67 428 71 b 325 0 410 11 385 0 l 8 0 b -56 43 -42 0 -61 18 b 32 147 -43 82 6 64 l 156 549 b 111 654 175 615 99 608 b 364 735 122 699 253 735 b 510 590 456 735 515 682 b 769 735 592 707 679 735 m 458 863 b 525 1051 376 935 411 1051 b 631 961 581 1051 618 1021 l 643 903 l 717 990 b 839 1051 756 1038 792 1051 b 932 964 896 1051 939 1019 b 813 861 925 918 892 894 l 610 774 b 582 767 600 769 592 767 b 546 783 571 767 558 772 "},"Ō":{"ha":1018,"x_min":0,"x_max":0,"o":"m 79 467 b 676 946 161 782 394 946 b 1026 467 957 946 1108 782 b 426 -17 942 150 707 -17 b 79 467 146 -17 -6 150 m 660 457 b 651 810 735 721 733 810 b 440 457 568 810 515 721 b 449 107 365 199 365 107 b 660 457 531 107 583 199 m 517 1017 b 463 1081 471 1017 451 1040 b 550 1144 474 1121 504 1144 l 904 1144 b 960 1081 951 1144 969 1121 b 872 1017 947 1040 919 1017 l 517 1017 "},"ō":{"ha":911,"x_min":0,"x_max":0,"o":"m 25 365 b 538 735 78 585 290 735 b 894 365 854 735 940 558 b 392 -12 840 135 639 -12 b 25 365 71 -12 -22 161 m 525 364 b 533 611 594 582 568 611 b 394 363 500 611 460 572 b 386 108 324 133 351 108 b 525 364 419 106 457 143 m 438 807 b 383 871 392 807 372 831 b 471 935 394 911 425 935 l 825 935 b 881 871 872 935 890 911 b 793 807 868 831 840 807 l 438 807 "},"Ő":{"ha":1018,"x_min":0,"x_max":0,"o":"m 79 467 b 676 946 161 782 394 946 b 1026 467 957 946 1108 782 b 426 -17 942 150 707 -17 b 79 467 146 -17 -6 150 m 660 457 b 651 810 735 721 733 810 b 440 457 568 810 515 721 b 449 107 365 199 365 107 b 660 457 531 107 583 199 m 599 1147 b 733 1267 631 1228 674 1267 b 824 1193 785 1267 822 1238 b 735 1075 824 1153 796 1118 l 632 1000 b 583 979 618 989 599 979 b 557 1035 556 979 543 999 m 860 1147 b 1008 1267 900 1228 947 1267 b 1096 1193 1063 1267 1099 1236 b 992 1075 1092 1153 1068 1125 l 876 1000 b 824 979 861 989 843 979 b 806 1040 803 979 785 999 "},"ő":{"ha":911,"x_min":0,"x_max":0,"o":"m 25 365 b 538 735 78 585 290 735 b 894 365 854 735 940 558 b 392 -12 840 135 639 -12 b 25 365 71 -12 -22 161 m 525 364 b 533 611 594 582 568 611 b 394 363 500 611 460 572 b 386 108 324 133 351 108 b 525 364 419 106 457 143 m 519 938 b 654 1057 551 1018 594 1057 b 744 983 706 1057 743 1028 b 656 865 744 943 717 908 l 553 790 b 504 769 539 779 519 769 b 478 825 476 769 464 789 m 781 938 b 929 1057 821 1018 868 1057 b 1017 983 983 1057 1019 1026 b 913 865 1013 943 989 915 l 797 790 b 744 769 782 779 764 769 b 726 831 724 769 706 789 "},"Œ":{"ha":1449,"x_min":0,"x_max":0,"o":"m 660 457 b 651 810 735 721 733 810 b 440 457 568 810 515 721 b 449 107 365 199 365 107 b 660 457 531 107 583 199 m 1424 925 b 1526 804 1507 925 1549 881 l 1490 675 b 1408 608 1476 624 1453 608 b 1328 671 1364 608 1340 625 l 1306 750 b 1251 792 1297 782 1289 792 l 1106 792 l 1036 544 l 1097 544 b 1124 558 1107 544 1114 550 l 1171 600 b 1244 635 1194 621 1213 635 b 1299 571 1283 635 1310 608 l 1242 378 b 1169 318 1229 333 1197 318 b 1111 358 1140 318 1122 335 l 1088 407 b 1057 428 1082 419 1074 428 l 1003 428 l 921 133 l 1043 133 b 1133 181 1079 133 1101 146 l 1217 272 b 1308 317 1244 301 1267 317 b 1374 235 1351 317 1390 294 l 1333 94 b 1204 0 1313 25 1279 0 l 574 0 b 426 -17 526 -11 478 -17 b 79 467 146 -17 -6 150 b 676 946 161 782 394 946 b 831 925 735 946 786 939 "},"œ":{"ha":1317,"x_min":0,"x_max":0,"o":"m 525 364 b 533 611 594 582 568 611 b 394 363 500 611 460 572 b 386 108 324 133 351 108 b 525 364 419 106 457 143 m 996 619 b 885 406 968 619 914 550 b 1018 581 971 406 1019 501 b 996 619 1017 607 1008 619 m 775 681 b 1008 735 842 717 922 735 b 1338 486 1303 735 1364 604 b 875 322 1300 319 1040 300 b 1026 193 876 219 943 193 b 1221 238 1108 193 1192 238 b 1236 219 1231 238 1236 233 b 911 -12 1238 131 1133 -12 b 663 63 814 -12 726 13 b 392 -12 589 14 497 -12 b 25 365 71 -12 -22 161 b 538 735 78 585 290 735 b 775 681 644 735 721 715 "},"Ŕ":{"ha":1054,"x_min":0,"x_max":0,"o":"m 754 925 b 1061 643 982 925 1103 796 b 824 461 1031 533 944 475 b 950 283 933 453 974 381 l 935 215 b 964 160 926 181 939 160 b 1015 121 1000 160 1021 151 b 781 -12 1006 63 933 -12 b 589 208 639 -12 551 64 l 611 297 b 526 394 629 369 603 394 l 474 394 l 410 164 b 468 35 389 89 481 79 b 382 0 461 8 431 0 l 33 0 b -33 50 -15 0 -40 18 b 60 164 -22 94 38 82 l 229 763 b 207 892 253 846 190 844 b 289 925 214 917 239 925 l 754 925 m 571 533 b 706 657 640 533 681 560 b 632 779 729 754 688 779 l 574 779 l 513 533 l 571 533 m 722 1156 b 876 1267 765 1231 808 1267 b 968 1161 940 1267 979 1224 b 851 1049 960 1115 924 1083 l 731 990 b 686 979 714 983 699 979 b 663 1054 653 979 635 1006 "},"ŕ":{"ha":804,"x_min":0,"x_max":0,"o":"m 364 735 b 507 636 439 735 492 700 b 682 735 557 710 618 735 b 847 522 808 735 875 632 b 701 404 829 444 772 404 b 531 542 569 404 582 542 b 488 492 513 542 499 531 l 488 492 l 381 144 b 443 35 360 72 449 74 b 364 0 439 11 422 0 l 8 0 b -56 43 -42 0 -61 18 b 32 147 -43 82 6 64 l 156 549 b 111 654 175 615 99 608 b 364 735 122 699 253 735 m 571 946 b 725 1057 614 1021 657 1057 b 817 951 789 1057 828 1014 b 700 839 808 906 772 874 l 579 781 b 535 769 563 774 547 769 b 511 844 501 769 483 796 "},"Ŗ":{"ha":1054,"x_min":0,"x_max":0,"o":"m 754 925 b 1061 643 982 925 1103 796 b 824 461 1031 533 944 475 b 950 283 933 453 974 381 l 935 215 b 964 160 926 181 939 160 b 1015 121 1000 160 1021 151 b 781 -12 1006 63 933 -12 b 589 208 639 -12 551 64 l 611 297 b 526 394 629 369 603 394 l 474 394 l 410 164 b 468 35 389 89 481 79 b 382 0 461 8 431 0 l 33 0 b -33 50 -15 0 -40 18 b 60 164 -22 94 38 82 l 229 763 b 207 892 253 846 190 844 b 289 925 214 917 239 925 l 754 925 m 571 533 b 706 657 640 533 681 560 b 632 779 729 754 688 779 l 574 779 l 513 533 l 571 533 m 146 -125 b 267 -50 160 -76 208 -50 b 408 -249 375 -50 436 -147 b 171 -411 378 -358 276 -411 b 93 -354 113 -411 85 -385 b 219 -271 106 -310 207 -312 b 146 -125 235 -219 118 -222 "},"ŗ":{"ha":804,"x_min":0,"x_max":0,"o":"m 364 735 b 507 636 439 735 492 700 b 682 735 557 710 618 735 b 847 522 808 735 875 632 b 701 404 829 444 772 404 b 531 542 569 404 582 542 b 488 492 513 542 499 531 l 488 492 l 381 144 b 443 35 360 72 449 74 b 364 0 439 11 422 0 l 8 0 b -56 43 -42 0 -61 18 b 32 147 -43 82 6 64 l 156 549 b 111 654 175 615 99 608 b 364 735 122 699 253 735 m -212 -125 b -92 -50 -199 -76 -150 -50 b 50 -249 17 -50 78 -147 b -187 -411 19 -358 -82 -411 b -265 -354 -246 -411 -274 -385 b -139 -271 -253 -310 -151 -312 b -212 -125 -124 -219 -240 -222 "},"Ř":{"ha":1054,"x_min":0,"x_max":0,"o":"m 754 925 b 1061 643 982 925 1103 796 b 824 461 1031 533 944 475 b 950 283 933 453 974 381 l 935 215 b 964 160 926 181 939 160 b 1015 121 1000 160 1021 151 b 781 -12 1006 63 933 -12 b 589 208 639 -12 551 64 l 611 297 b 526 394 629 369 603 394 l 474 394 l 410 164 b 468 35 389 89 481 79 b 382 0 461 8 431 0 l 33 0 b -33 50 -15 0 -40 18 b 60 164 -22 94 38 82 l 229 763 b 207 892 253 846 190 844 b 289 925 214 917 239 925 l 754 925 m 571 533 b 706 657 640 533 681 560 b 632 779 729 754 688 779 l 574 779 l 513 533 l 571 533 m 554 1072 b 621 1261 472 1144 507 1261 b 726 1171 676 1261 714 1231 l 739 1113 l 813 1200 b 935 1261 851 1247 888 1261 b 1028 1174 992 1261 1035 1229 b 908 1071 1021 1128 988 1104 l 706 983 b 678 976 696 979 688 976 b 642 993 667 976 654 982 "},"ř":{"ha":804,"x_min":0,"x_max":0,"o":"m 364 735 b 507 636 439 735 492 700 b 682 735 557 710 618 735 b 847 522 808 735 875 632 b 701 404 829 444 772 404 b 531 542 569 404 582 542 b 488 492 513 542 499 531 l 488 492 l 381 144 b 443 35 360 72 449 74 b 364 0 439 11 422 0 l 8 0 b -56 43 -42 0 -61 18 b 32 147 -43 82 6 64 l 156 549 b 111 654 175 615 99 608 b 364 735 122 699 253 735 m 403 863 b 469 1051 321 935 356 1051 b 575 961 525 1051 563 1021 l 588 903 l 661 990 b 783 1051 700 1038 736 1051 b 876 964 840 1051 883 1019 b 757 861 869 918 836 894 l 554 774 b 526 767 544 769 536 767 b 490 783 515 767 503 772 "},"Ś":{"ha":957,"x_min":0,"x_max":0,"o":"m 193 721 b 519 933 232 849 365 933 b 797 856 622 933 707 910 l 829 882 b 933 928 872 917 896 928 b 1001 847 985 928 1017 899 l 943 656 b 875 594 931 611 914 594 b 750 690 831 594 808 621 b 581 792 683 768 633 792 b 511 742 547 792 519 771 b 865 221 465 592 967 557 b 513 -6 819 67 675 -6 b 218 92 382 -6 306 24 l 168 50 b 61 0 122 13 99 0 b -3 86 10 0 -21 32 l 65 293 b 146 360 81 342 107 360 b 271 257 190 360 218 331 b 444 143 331 172 374 143 b 531 193 496 143 519 160 b 193 721 578 347 85 365 m 700 1156 b 854 1267 743 1231 786 1267 b 946 1161 918 1267 957 1224 b 829 1049 938 1115 901 1083 l 708 990 b 664 979 692 983 676 979 b 640 1054 631 979 613 1006 "},"ś":{"ha":824,"x_min":0,"x_max":0,"o":"m 92 494 b 457 747 89 643 215 747 b 831 586 690 747 826 679 b 686 474 832 521 781 474 b 526 631 582 474 499 540 b 482 638 511 635 496 638 b 403 574 438 638 401 615 b 772 196 404 443 828 436 b 382 -6 743 74 606 -6 b -17 222 107 -6 -56 79 b 110 303 0 278 49 303 b 274 113 210 303 299 225 b 338 104 296 107 313 104 b 421 178 383 104 421 131 b 92 494 418 288 94 300 m 563 946 b 717 1057 606 1021 649 1057 b 808 951 781 1057 819 1014 b 692 839 800 906 764 874 l 571 781 b 526 769 554 774 539 769 b 503 844 493 769 475 796 "},"Ş":{"ha":957,"x_min":0,"x_max":0,"o":"m 193 721 b 519 933 232 849 365 933 b 797 856 622 933 707 910 l 829 882 b 933 928 872 917 896 928 b 1001 847 985 928 1017 899 l 943 656 b 875 594 931 611 914 594 b 750 690 831 594 808 621 b 581 792 683 768 633 792 b 511 742 547 792 519 771 b 865 221 465 592 967 557 b 513 -6 819 67 675 -6 b 510 -6 511 -6 511 -6 l 490 -60 b 618 -229 578 -60 651 -135 b 392 -347 592 -303 511 -347 b 131 -185 235 -347 107 -251 b 150 -171 135 -175 142 -171 b 322 -225 174 -171 228 -225 b 404 -186 369 -225 396 -212 b 361 -137 414 -153 386 -137 b 289 -143 338 -137 311 -143 b 264 -106 264 -143 257 -124 l 313 32 b 218 92 281 47 250 67 l 168 50 b 61 0 122 13 99 0 b -3 86 10 0 -21 32 l 65 293 b 146 360 81 342 107 360 b 271 257 190 360 218 331 b 444 143 331 172 374 143 b 531 193 496 143 519 160 b 193 721 578 347 85 365 "},"ş":{"ha":824,"x_min":0,"x_max":0,"o":"m 92 494 b 457 747 89 643 215 747 b 831 586 690 747 826 679 b 686 474 832 521 781 474 b 526 631 582 474 499 540 b 482 638 511 635 496 638 b 403 574 438 638 401 615 b 772 196 404 443 828 436 b 440 -4 746 85 629 10 l 421 -60 b 549 -229 508 -60 582 -135 b 322 -347 522 -303 442 -347 b 61 -185 165 -347 38 -251 b 81 -171 65 -175 72 -171 b 253 -225 104 -171 158 -225 b 335 -186 300 -225 326 -212 b 292 -137 344 -153 317 -137 b 219 -143 268 -137 242 -143 b 194 -106 194 -143 188 -124 l 233 4 b -17 222 51 31 -49 107 b 110 303 0 278 49 303 b 274 113 210 303 299 225 b 338 104 296 107 313 104 b 421 178 383 104 421 131 b 92 494 418 288 94 300 "},"Š":{"ha":957,"x_min":0,"x_max":0,"o":"m 193 721 b 519 933 232 849 365 933 b 797 856 622 933 707 910 l 829 882 b 933 928 872 917 896 928 b 1001 847 985 928 1017 899 l 943 656 b 875 594 931 611 914 594 b 750 690 831 594 808 621 b 581 792 683 768 633 792 b 511 742 547 792 519 771 b 865 221 465 592 967 557 b 513 -6 819 67 675 -6 b 218 92 382 -6 306 24 l 168 50 b 61 0 122 13 99 0 b -3 86 10 0 -21 32 l 65 293 b 146 360 81 342 107 360 b 271 257 190 360 218 331 b 444 143 331 172 374 143 b 531 193 496 143 519 160 b 193 721 578 347 85 365 m 532 1072 b 599 1261 450 1144 485 1261 b 704 1171 654 1261 692 1231 l 717 1113 l 790 1200 b 913 1261 829 1247 865 1261 b 1006 1174 969 1261 1013 1229 b 886 1071 999 1128 965 1104 l 683 983 b 656 976 674 979 665 976 b 619 993 644 976 632 982 "},"š":{"ha":824,"x_min":0,"x_max":0,"o":"m 92 494 b 457 747 89 643 215 747 b 831 586 690 747 826 679 b 686 474 832 521 781 474 b 526 631 582 474 499 540 b 482 638 511 635 496 638 b 403 574 438 638 401 615 b 772 196 404 443 828 436 b 382 -6 743 74 606 -6 b -17 222 107 -6 -56 79 b 110 303 0 278 49 303 b 274 113 210 303 299 225 b 338 104 296 107 313 104 b 421 178 383 104 421 131 b 92 494 418 288 94 300 m 394 863 b 461 1051 313 935 347 1051 b 567 961 517 1051 554 1021 l 579 903 l 653 990 b 775 1051 692 1038 728 1051 b 868 964 832 1051 875 1019 b 749 861 861 918 828 894 l 546 774 b 518 767 536 769 528 767 b 482 783 507 767 494 772 "},"Ţ":{"ha":1054,"x_min":0,"x_max":0,"o":"m 839 786 l 663 165 b 688 36 640 83 703 82 b 603 1 678 11 653 1 l 519 1 l 497 -60 b 625 -229 585 -60 658 -135 b 399 -347 599 -303 518 -347 b 138 -185 242 -347 114 -251 b 157 -171 142 -175 149 -171 b 329 -225 181 -171 235 -225 b 411 -186 376 -225 403 -212 b 368 -137 421 -153 393 -137 b 296 -143 344 -137 318 -143 b 271 -106 271 -143 264 -124 l 310 1 l 276 1 b 219 56 228 1 207 24 b 314 165 239 99 290 85 l 489 786 l 457 786 b 365 740 417 786 394 775 l 319 683 b 193 608 279 636 242 608 b 129 701 139 608 114 644 l 165 828 b 303 925 186 901 208 925 l 1113 925 b 1181 814 1179 925 1203 892 l 1147 701 b 1046 608 1128 635 1103 608 b 957 683 996 608 976 636 l 933 740 b 871 786 919 775 907 786 "},"ţ":{"ha":597,"x_min":0,"x_max":0,"o":"m 301 804 b 485 886 358 861 400 886 b 567 781 560 886 586 847 l 547 717 l 621 717 b 674 656 665 717 683 694 b 590 594 663 617 635 594 l 510 594 l 406 251 b 451 164 383 178 414 164 b 536 174 488 164 517 174 b 556 151 549 174 556 164 b 319 -6 557 107 463 19 l 300 -60 b 428 -229 388 -60 461 -135 b 201 -347 401 -303 321 -347 b -60 -185 44 -347 -83 -251 b -40 -171 -56 -175 -49 -171 b 132 -225 -17 -171 38 -225 b 214 -186 179 -225 206 -212 b 171 -137 224 -153 196 -137 b 99 -143 147 -137 121 -143 b 74 -106 74 -143 67 -124 l 117 14 b 43 215 44 50 13 122 l 132 490 b 56 679 168 604 40 615 b 136 717 63 701 82 717 l 214 717 l 301 804 "},"Ť":{"ha":1054,"x_min":0,"x_max":0,"o":"m 839 786 l 663 165 b 688 36 640 83 703 82 b 603 1 678 11 653 1 l 276 1 b 219 56 228 1 207 24 b 314 165 239 99 290 85 l 489 786 l 457 786 b 365 740 417 786 394 775 l 319 683 b 193 608 279 636 242 608 b 129 701 139 608 114 644 l 165 828 b 303 925 186 901 208 925 l 1113 925 b 1181 814 1179 925 1203 892 l 1147 701 b 1046 608 1128 635 1103 608 b 957 683 996 608 976 636 l 933 740 b 871 786 919 775 907 786 m 596 1072 b 663 1261 514 1144 549 1261 b 768 1171 718 1261 756 1231 l 781 1113 l 854 1200 b 976 1261 893 1247 929 1261 b 1069 1174 1033 1261 1076 1229 b 950 1071 1063 1128 1029 1104 l 747 983 b 719 976 738 979 729 976 b 683 993 708 976 696 982 "},"ť":{"ha":722,"x_min":0,"x_max":0,"o":"m 301 804 b 485 886 358 861 400 886 b 567 781 560 886 586 847 l 547 717 l 621 717 b 674 656 665 717 683 694 b 590 594 663 617 635 594 l 510 594 l 406 251 b 451 164 383 178 414 164 b 536 174 488 164 517 174 b 556 151 549 174 556 164 b 240 -12 557 100 428 -12 b 43 215 89 -12 -1 78 l 132 490 b 56 679 168 604 40 615 b 136 717 63 701 82 717 l 214 717 l 301 804 m 654 994 b 751 1056 664 1033 704 1056 b 867 896 839 1056 886 982 b 676 768 846 807 764 768 b 611 810 628 768 604 785 b 699 878 621 846 688 843 b 654 994 711 919 638 931 "},"Ū":{"ha":1094,"x_min":0,"x_max":0,"o":"m 849 738 b 1056 931 882 856 936 931 b 1196 735 1164 931 1222 836 b 1057 619 1174 647 1111 619 b 979 632 1021 619 1003 625 l 897 331 b 465 -8 840 119 714 -8 b 142 389 210 -8 61 106 l 247 763 b 225 892 271 846 210 849 b 307 925 233 917 257 925 l 633 925 b 692 875 683 925 700 906 b 597 763 678 829 621 844 l 476 338 b 564 164 440 208 482 164 b 735 339 642 164 697 207 m 594 1017 b 540 1081 549 1017 529 1040 b 628 1144 551 1121 582 1144 l 982 1144 b 1038 1081 1029 1144 1047 1121 b 950 1017 1025 1040 997 1017 l 594 1017 "},"ū":{"ha":953,"x_min":0,"x_max":0,"o":"m 388 271 b 422 203 372 225 392 203 b 499 269 461 203 481 225 l 583 549 b 540 654 604 615 526 608 b 792 735 550 699 681 735 b 938 560 938 735 968 656 l 825 192 b 840 154 818 169 825 154 b 885 183 867 154 875 183 b 901 153 894 183 901 168 b 674 -12 903 76 811 -12 b 481 108 560 -12 497 40 b 247 -4 413 32 329 -4 b 32 258 100 -4 -26 86 l 121 549 b 76 654 142 615 64 608 b 329 735 88 699 218 735 b 475 560 474 735 504 656 m 392 807 b 338 871 346 807 326 831 b 425 935 349 911 379 935 l 779 935 b 835 871 826 935 844 911 b 747 807 822 831 794 807 l 392 807 "},"Ů":{"ha":1094,"x_min":0,"x_max":0,"o":"m 849 738 b 1056 931 882 856 936 931 b 1196 735 1164 931 1222 836 b 1057 619 1174 647 1111 619 b 979 632 1021 619 1003 625 l 897 331 b 465 -8 840 119 714 -8 b 142 389 210 -8 61 106 l 247 763 b 225 892 271 846 210 849 b 307 925 233 917 257 925 l 633 925 b 692 875 683 925 700 906 b 597 763 678 829 621 844 l 476 338 b 564 164 440 208 482 164 b 735 339 642 164 697 207 m 989 1146 b 804 981 990 1051 911 981 b 647 1115 715 981 649 1039 b 831 1275 647 1207 725 1275 b 989 1146 919 1275 988 1219 m 786 1121 b 800 1056 776 1074 781 1056 b 851 1136 824 1056 839 1079 b 836 1200 861 1182 857 1200 b 786 1121 813 1200 797 1178 "},"ů":{"ha":953,"x_min":0,"x_max":0,"o":"m 388 271 b 422 203 372 225 392 203 b 499 269 461 203 481 225 l 583 549 b 540 654 604 615 526 608 b 792 735 550 699 681 735 b 938 560 938 735 968 656 l 825 192 b 840 154 818 169 825 154 b 885 183 867 154 875 183 b 901 153 894 183 901 168 b 674 -12 903 76 811 -12 b 481 108 560 -12 497 40 b 247 -4 413 32 329 -4 b 32 258 100 -4 -26 86 l 121 549 b 76 654 142 615 64 608 b 329 735 88 699 218 735 b 475 560 474 735 504 656 m 786 936 b 601 771 788 842 708 771 b 444 906 513 771 446 829 b 628 1065 444 997 522 1065 b 786 936 717 1065 785 1010 m 583 911 b 597 846 574 864 578 846 b 649 926 621 846 636 869 b 633 990 658 972 654 990 b 583 911 610 990 594 968 "},"Ű":{"ha":1094,"x_min":0,"x_max":0,"o":"m 849 738 b 1056 931 882 856 936 931 b 1196 735 1164 931 1222 836 b 1057 619 1174 647 1111 619 b 979 632 1021 619 1003 625 l 897 331 b 465 -8 840 119 714 -8 b 142 389 210 -8 61 106 l 247 763 b 225 892 271 846 210 849 b 307 925 233 917 257 925 l 633 925 b 692 875 683 925 700 906 b 597 763 678 829 621 844 l 476 338 b 564 164 440 208 482 164 b 735 339 642 164 697 207 m 676 1147 b 811 1267 708 1228 751 1267 b 901 1193 863 1267 900 1238 b 813 1075 901 1153 874 1118 l 710 1000 b 661 979 696 989 676 979 b 635 1035 633 979 621 999 m 938 1147 b 1086 1267 978 1228 1025 1267 b 1174 1193 1140 1267 1176 1236 b 1069 1075 1169 1153 1146 1125 l 954 1000 b 901 979 939 989 921 979 b 883 1040 881 979 863 999 "},"ű":{"ha":953,"x_min":0,"x_max":0,"o":"m 388 271 b 422 203 372 225 392 203 b 499 269 461 203 481 225 l 583 549 b 540 654 604 615 526 608 b 792 735 550 699 681 735 b 938 560 938 735 968 656 l 825 192 b 840 154 818 169 825 154 b 885 183 867 154 875 183 b 901 153 894 183 901 168 b 674 -12 903 76 811 -12 b 481 108 560 -12 497 40 b 247 -4 413 32 329 -4 b 32 258 100 -4 -26 86 l 121 549 b 76 654 142 615 64 608 b 329 735 88 699 218 735 b 475 560 474 735 504 656 m 474 938 b 608 1057 506 1018 549 1057 b 699 983 660 1057 697 1028 b 610 865 699 943 671 908 l 507 790 b 458 769 493 779 474 769 b 432 825 431 769 418 789 m 735 938 b 883 1057 775 1018 822 1057 b 971 983 938 1057 974 1026 b 867 865 967 943 943 915 l 751 790 b 699 769 736 779 718 769 b 681 831 678 769 660 789 "},"Ų":{"ha":1094,"x_min":0,"x_max":0,"o":"m 849 738 b 1056 931 882 856 936 931 b 1196 735 1164 931 1222 836 b 1057 619 1174 647 1111 619 b 979 632 1021 619 1003 625 l 897 331 b 569 0 849 151 750 32 b 435 -71 535 -11 450 -21 b 479 -131 424 -106 444 -131 b 531 -101 507 -131 525 -118 b 528 -61 536 -83 525 -69 b 565 -51 531 -56 540 -51 b 692 -204 661 -51 714 -131 b 485 -319 671 -275 590 -319 b 279 -94 319 -319 243 -212 b 347 1 292 -54 317 -22 b 142 389 167 35 75 153 l 247 763 b 225 892 271 846 210 849 b 307 925 233 917 257 925 l 633 925 b 692 875 683 925 700 906 b 597 763 678 829 621 844 l 476 338 b 564 164 440 208 482 164 b 735 339 642 164 697 207 "},"ų":{"ha":953,"x_min":0,"x_max":0,"o":"m 388 271 b 422 203 372 225 392 203 b 499 269 461 203 481 225 l 583 549 b 540 654 604 615 526 608 b 792 735 550 699 681 735 b 938 560 938 735 968 656 l 825 192 b 840 154 818 169 825 154 b 885 183 867 154 875 183 b 901 153 894 183 901 168 b 674 -12 903 76 811 -12 b 647 -11 664 -12 656 -12 b 558 -71 611 -21 569 -36 b 603 -131 547 -106 568 -131 b 654 -101 631 -131 649 -118 b 651 -61 660 -83 649 -69 b 689 -51 654 -56 664 -51 b 815 -204 785 -51 838 -131 b 608 -319 794 -275 714 -319 b 403 -94 443 -319 367 -212 b 526 33 422 -31 474 11 b 481 108 503 54 488 79 b 247 -4 413 32 329 -4 b 32 258 100 -4 -26 86 l 121 549 b 76 654 142 615 64 608 b 329 735 88 699 218 735 b 475 560 474 735 504 656 "},"Ÿ":{"ha":1096,"x_min":0,"x_max":0,"o":"m 319 0 b 254 50 272 0 247 18 b 347 164 265 94 324 83 l 411 381 l 283 744 b 179 896 243 857 169 846 b 235 925 183 914 201 925 l 606 925 b 692 888 671 925 690 915 b 647 774 692 844 632 833 l 711 529 l 888 781 b 1108 931 963 888 1025 931 b 1244 760 1199 931 1261 857 b 1097 629 1228 665 1164 629 b 989 678 1050 629 1018 643 l 760 379 l 696 164 b 756 35 674 88 768 79 b 669 0 747 8 718 0 m 508 1104 b 654 1251 508 1172 565 1251 b 781 1132 725 1251 779 1199 b 633 981 782 1058 722 981 b 508 1104 563 981 510 1035 m 819 1104 b 965 1251 819 1172 876 1251 b 1092 1132 1036 1251 1090 1199 b 944 981 1093 1058 1033 981 b 819 1104 874 981 821 1035 "},"Ź":{"ha":1019,"x_min":0,"x_max":0,"o":"m 132 0 b 13 86 51 0 14 35 b 68 194 11 122 29 154 l 633 792 l 504 792 b 414 744 468 792 446 779 l 331 653 b 239 608 303 624 281 608 b 174 690 196 608 157 631 l 214 831 b 343 925 235 900 268 925 l 982 925 b 1032 735 1085 925 1124 826 l 429 133 l 593 133 b 683 181 628 133 651 146 l 767 272 b 858 317 794 301 817 317 b 924 235 901 317 940 294 l 883 94 b 754 0 863 25 829 0 m 744 1156 b 899 1267 788 1231 831 1267 b 990 1161 963 1267 1001 1224 b 874 1049 982 1115 946 1083 l 753 990 b 708 979 736 983 721 979 b 685 1054 675 979 657 1006 "},"ź":{"ha":919,"x_min":0,"x_max":0,"o":"m 518 576 b 739 735 551 576 604 735 b 910 575 836 735 915 653 b 788 417 906 507 867 464 l 493 242 b 738 335 625 96 693 335 b 865 165 786 335 874 281 b 658 -4 858 74 779 -4 b 418 160 472 -4 447 160 b 194 -4 381 160 340 -4 b -22 165 65 -4 -28 75 b 79 297 -19 208 8 253 l 436 515 b 356 569 406 554 385 569 b 229 454 285 569 268 454 b 122 582 174 454 115 499 b 297 735 128 661 194 735 b 518 576 460 735 493 576 m 615 946 b 769 1057 658 1021 701 1057 b 861 951 833 1057 872 1014 b 744 839 853 906 817 874 l 624 781 b 579 769 607 774 592 769 b 556 844 546 769 528 796 "},"Ż":{"ha":1019,"x_min":0,"x_max":0,"o":"m 132 0 b 13 86 51 0 14 35 b 68 194 11 122 29 154 l 633 792 l 504 792 b 414 744 468 792 446 779 l 331 653 b 239 608 303 624 281 608 b 174 690 196 608 157 631 l 214 831 b 343 925 235 900 268 925 l 982 925 b 1032 735 1085 925 1124 826 l 429 133 l 593 133 b 683 181 628 133 651 146 l 767 272 b 858 317 794 301 817 317 b 924 235 901 317 940 294 l 883 94 b 754 0 863 25 829 0 m 608 1104 b 754 1251 608 1172 665 1251 b 881 1132 825 1251 879 1199 b 733 981 882 1058 822 981 b 608 1104 663 981 610 1035 "},"ż":{"ha":919,"x_min":0,"x_max":0,"o":"m 518 576 b 739 735 551 576 604 735 b 910 575 836 735 915 653 b 788 417 906 507 867 464 l 493 242 b 738 335 625 96 693 335 b 865 165 786 335 874 281 b 658 -4 858 74 779 -4 b 418 160 472 -4 447 160 b 194 -4 381 160 340 -4 b -22 165 65 -4 -28 75 b 79 297 -19 208 8 253 l 436 515 b 356 569 406 554 385 569 b 229 454 285 569 268 454 b 122 582 174 454 115 499 b 297 735 128 661 194 735 b 518 576 460 735 493 576 m 479 894 b 625 1042 479 963 536 1042 b 751 922 696 1042 750 989 b 604 771 753 849 693 771 b 479 894 533 771 481 825 "},"Ž":{"ha":1019,"x_min":0,"x_max":0,"o":"m 132 0 b 13 86 51 0 14 35 b 68 194 11 122 29 154 l 633 792 l 504 792 b 414 744 468 792 446 779 l 331 653 b 239 608 303 624 281 608 b 174 690 196 608 157 631 l 214 831 b 343 925 235 900 268 925 l 982 925 b 1032 735 1085 925 1124 826 l 429 133 l 593 133 b 683 181 628 133 651 146 l 767 272 b 858 317 794 301 817 317 b 924 235 901 317 940 294 l 883 94 b 754 0 863 25 829 0 m 576 1072 b 643 1261 494 1144 529 1261 b 749 1171 699 1261 736 1231 l 761 1113 l 835 1200 b 957 1261 874 1247 910 1261 b 1050 1174 1014 1261 1057 1229 b 931 1071 1043 1128 1010 1104 l 728 983 b 700 976 718 979 710 976 b 664 993 689 976 676 982 "}}}
